<svg data-v-423bf9ae="" xmlns="http://www.w3.org/2000/svg" viewBox="0 0 550 90" class="iconLeft"><!----><!----><!---->
<g data-v-423bf9ae="" id="3414e239-e68b-436a-bc79-46126984aea5" fill="#FFFFFF" transform="matrix(5.71973320392212,0,0,5.71973320392212,109.42803016019553,-2.845565034316863)"><path d="M9.11 13.55L7.80 10.68L1.93 10.68L0.62 13.55L0.10 13.55L4.63 3.75L5.10 3.75L9.63 13.55L9.11 13.55ZM2.11 10.28L7.62 10.28L4.87 4.30L2.11 10.28ZM11.30 13.55L11.30 6.29L11.76 6.29L11.76 13.55L11.30 13.55ZM11.52 4.38L11.52 4.38Q11.34 4.38 11.20 4.25L11.20 4.25L11.20 4.25Q11.06 4.12 11.06 3.93L11.06 3.93L11.06 3.93Q11.06 3.74 11.19 3.60L11.19 3.60L11.19 3.60Q11.33 3.47 11.52 3.47L11.52 3.47L11.52 3.47Q11.70 3.47 11.84 3.60L11.84 3.60L11.84 3.60Q11.98 3.74 11.98 3.92L11.98 3.92L11.98 3.92Q11.98 4.10 11.84 4.24L11.84 4.24L11.84 4.24Q11.70 4.38 11.52 4.38L11.52 4.38ZM20.72 3.16L21.18 3.16L21.18 13.55L20.73 13.55L20.73 11.56L20.73 11.56Q20.33 12.52 19.50 13.05L19.50 13.05L19.50 13.05Q18.66 13.59 17.60 13.59L17.60 13.59L17.60 13.59Q16.60 13.59 15.79 13.13L15.79 13.13L15.79 13.13Q14.98 12.66 14.51 11.82L14.51 11.82L14.51 11.82Q14.04 10.98 14.04 9.91L14.04 9.91L14.04 9.91Q14.04 8.85 14.51 8.01L14.51 8.01L14.51 8.01Q14.98 7.17 15.79 6.70L15.79 6.70L15.79 6.70Q16.60 6.23 17.60 6.23L17.60 6.23L17.60 6.23Q18.65 6.23 19.48 6.76L19.48 6.76L19.48 6.76Q20.31 7.29 20.72 8.23L20.72 8.23L20.72 3.16ZM17.61 13.17L17.61 13.17Q18.49 13.17 19.20 12.76L19.20 12.76L19.20 12.76Q19.91 12.35 20.31 11.61L20.31 11.61L20.31 11.61Q20.72 10.86 20.72 9.91L20.72 9.91L20.72 9.91Q20.72 8.96 20.31 8.22L20.31 8.22L20.31 8.22Q19.91 7.49 19.20 7.08L19.20 7.08L19.20 7.08Q18.49 6.66 17.61 6.66L17.61 6.66L17.61 6.66Q16.73 6.66 16.02 7.08L16.02 7.08L16.02 7.08Q15.32 7.49 14.91 8.22L14.91 8.22L14.91 8.22Q14.50 8.96 14.50 9.91L14.50 9.91L14.50 9.91Q14.50 10.86 14.91 11.61L14.91 11.61L14.91 11.61Q15.32 12.35 16.02 12.76L16.02 12.76L16.02 12.76Q16.73 13.17 17.61 13.17L17.61 13.17ZM30.28 9.86L30.28 9.98L23.91 9.98L23.91 9.98Q23.93 10.91 24.35 11.63L24.35 11.63L24.35 11.63Q24.77 12.36 25.50 12.77L25.50 12.77L25.50 12.77Q26.24 13.17 27.15 13.17L27.15 13.17L27.15 13.17Q27.89 13.17 28.52 12.90L28.52 12.90L28.52 12.90Q29.15 12.63 29.55 12.10L29.55 12.10L29.85 12.40L29.85 12.40Q29.36 12.98 28.66 13.29L28.66 13.29L28.66 13.29Q27.96 13.59 27.15 13.59L27.15 13.59L27.15 13.59Q26.08 13.59 25.25 13.13L25.25 13.13L25.25 13.13Q24.42 12.66 23.94 11.82L23.94 11.82L23.94 11.82Q23.46 10.98 23.46 9.91L23.46 9.91L23.46 9.91Q23.46 8.85 23.91 8.01L23.91 8.01L23.91 8.01Q24.35 7.17 25.13 6.70L25.13 6.70L25.13 6.70Q25.91 6.23 26.88 6.23L26.88 6.23L26.88 6.23Q27.83 6.23 28.61 6.69L28.61 6.69L28.61 6.69Q29.39 7.15 29.83 7.98L29.83 7.98L29.83 7.98Q30.28 8.81 30.28 9.86L30.28 9.86ZM26.88 6.65L26.88 6.65Q26.07 6.65 25.41 7.03L25.41 7.03L25.41 7.03Q24.75 7.41 24.36 8.08L24.36 8.08L24.36 8.08Q23.97 8.76 23.93 9.60L23.93 9.60L29.85 9.60L29.85 9.60Q29.79 8.76 29.39 8.08L29.39 8.08L29.39 8.08Q28.99 7.41 28.34 7.03L28.34 7.03L28.34 7.03Q27.69 6.65 26.88 6.65L26.88 6.65ZM35.99 6.23L35.99 6.23Q37.35 6.23 38.14 7.02L38.14 7.02L38.14 7.02Q38.92 7.81 38.92 9.28L38.92 9.28L38.92 13.55L38.46 13.55L38.46 9.31L38.46 9.31Q38.46 8.02 37.81 7.34L37.81 7.34L37.81 7.34Q37.16 6.66 35.95 6.66L35.95 6.66L35.95 6.66Q34.59 6.66 33.81 7.47L33.81 7.47L33.81 7.47Q33.03 8.27 33.03 9.63L33.03 9.63L33.03 13.55L32.56 13.55L32.56 6.29L33.01 6.29L33.01 8.06L33.01 8.06Q33.36 7.21 34.14 6.72L34.14 6.72L34.14 6.72Q34.92 6.23 35.99 6.23L35.99 6.23ZM48.20 13.61L48.20 13.61Q47.14 13.61 46.18 13.23L46.18 13.23L46.18 13.23Q45.22 12.85 44.70 12.25L44.70 12.25L44.95 11.91L44.95 11.91Q45.44 12.47 46.32 12.83L46.32 12.83L46.32 12.83Q47.19 13.19 48.19 13.19L48.19 13.19L48.19 13.19Q49.66 13.19 50.41 12.61L50.41 12.61L50.41 12.61Q51.16 12.03 51.16 11.12L51.16 11.12L51.16 11.12Q51.16 10.42 50.76 9.99L50.76 9.99L50.76 9.99Q50.37 9.56 49.80 9.34L49.80 9.34L49.80 9.34Q49.22 9.13 48.23 8.89L48.23 8.89L48.23 8.89Q47.17 8.62 46.52 8.37L46.52 8.37L46.52 8.37Q45.88 8.12 45.43 7.60L45.43 7.60L45.43 7.60Q44.98 7.08 44.98 6.22L44.98 6.22L44.98 6.22Q44.98 5.53 45.35 4.96L45.35 4.96L45.35 4.96Q45.71 4.38 46.46 4.04L46.46 4.04L46.46 4.04Q47.21 3.70 48.33 3.70L48.33 3.70L48.33 3.70Q49.13 3.70 49.90 3.93L49.90 3.93L49.90 3.93Q50.68 4.17 51.23 4.59L51.23 4.59L51.02 4.97L51.02 4.97Q50.44 4.55 49.73 4.33L49.73 4.33L49.73 4.33Q49.03 4.12 48.34 4.12L48.34 4.12L48.34 4.12Q46.91 4.12 46.18 4.71L46.18 4.71L46.18 4.71Q45.44 5.31 45.44 6.22L45.44 6.22L45.44 6.22Q45.44 6.93 45.84 7.36L45.84 7.36L45.84 7.36Q46.24 7.78 46.82 8.01L46.82 8.01L46.82 8.01Q47.40 8.23 48.38 8.47L48.38 8.47L48.38 8.47Q49.45 8.74 50.09 8.98L50.09 8.98L50.09 8.98Q50.74 9.23 51.18 9.74L51.18 9.74L51.18 9.74Q51.62 10.25 51.62 11.10L51.62 11.10L51.62 11.10Q51.62 11.79 51.25 12.36L51.25 12.36L51.25 12.36Q50.88 12.94 50.11 13.27L50.11 13.27L50.11 13.27Q49.34 13.61 48.20 13.61L48.20 13.61ZM56.69 13.59L56.69 13.59Q55.68 13.59 54.86 13.13L54.86 13.13L54.86 13.13Q54.04 12.66 53.58 11.82L53.58 11.82L53.58 11.82Q53.12 10.98 53.12 9.91L53.12 9.91L53.12 9.91Q53.12 8.85 53.58 8.01L53.58 8.01L53.58 8.01Q54.04 7.17 54.86 6.70L54.86 6.70L54.86 6.70Q55.68 6.23 56.69 6.23L56.69 6.23L56.69 6.23Q57.71 6.23 58.52 6.70L58.52 6.70L58.52 6.70Q59.33 7.17 59.79 8.01L59.79 8.01L59.79 8.01Q60.26 8.85 60.26 9.91L60.26 9.91L60.26 9.91Q60.26 10.98 59.79 11.82L59.79 11.82L59.79 11.82Q59.33 12.66 58.52 13.13L58.52 13.13L58.52 13.13Q57.71 13.59 56.69 13.59L56.69 13.59ZM56.69 13.17L56.69 13.17Q57.57 13.17 58.28 12.76L58.28 12.76L58.28 12.76Q58.98 12.35 59.39 11.61L59.39 11.61L59.39 11.61Q59.79 10.86 59.79 9.91L59.79 9.91L59.79 9.91Q59.79 8.96 59.39 8.22L59.39 8.22L59.39 8.22Q58.98 7.49 58.28 7.08L58.28 7.08L58.28 7.08Q57.57 6.66 56.69 6.66L56.69 6.66L56.69 6.66Q55.80 6.66 55.10 7.08L55.10 7.08L55.10 7.08Q54.39 7.49 53.98 8.22L53.98 8.22L53.98 8.22Q53.58 8.96 53.58 9.91L53.58 9.91L53.58 9.91Q53.58 10.86 53.98 11.61L53.98 11.61L53.98 11.61Q54.39 12.35 55.10 12.76L55.10 12.76L55.10 12.76Q55.80 13.17 56.69 13.17L56.69 13.17ZM68.29 6.29L68.75 6.29L68.75 13.55L68.31 13.55L68.31 11.79L68.31 11.79Q67.97 12.64 67.23 13.12L67.23 13.12L67.23 13.12Q66.49 13.59 65.46 13.59L65.46 13.59L65.46 13.59Q64.05 13.59 63.25 12.81L63.25 12.81L63.25 12.81Q62.45 12.03 62.45 10.56L62.45 10.56L62.45 6.29L62.92 6.29L62.92 10.53L62.92 10.53Q62.92 11.82 63.58 12.49L63.58 12.49L63.58 12.49Q64.25 13.17 65.48 13.17L65.48 13.17L65.48 13.17Q66.78 13.17 67.54 12.37L67.54 12.37L67.54 12.37Q68.29 11.56 68.29 10.21L68.29 10.21L68.29 6.29ZM73.88 3.53L73.88 3.53Q73.16 3.53 72.81 3.91L72.81 3.91L72.81 3.91Q72.45 4.30 72.45 5.05L72.45 5.05L72.45 6.29L74.84 6.29L74.84 6.69L72.45 6.69L72.45 13.55L71.99 13.55L71.99 6.69L70.62 6.69L70.62 6.29L71.99 6.29L71.99 5.00L71.99 5.00Q71.99 4.13 72.48 3.63L72.48 3.63L72.48 3.63Q72.97 3.12 73.85 3.12L73.85 3.12L73.85 3.12Q74.27 3.12 74.66 3.25L74.66 3.25L74.66 3.25Q75.04 3.37 75.29 3.61L75.29 3.61L75.05 3.96L75.05 3.96Q74.58 3.53 73.88 3.53L73.88 3.53ZM76.31 13.55L76.31 6.29L76.78 6.29L76.78 13.55L76.31 13.55ZM76.54 4.38L76.54 4.38Q76.36 4.38 76.22 4.25L76.22 4.25L76.22 4.25Q76.08 4.12 76.08 3.93L76.08 3.93L76.08 3.93Q76.08 3.74 76.21 3.60L76.21 3.60L76.21 3.60Q76.34 3.47 76.54 3.47L76.54 3.47L76.54 3.47Q76.72 3.47 76.86 3.60L76.86 3.60L76.86 3.60Q77 3.74 77 3.92L77 3.92L77 3.92Q77 4.10 76.86 4.24L76.86 4.24L76.86 4.24Q76.72 4.38 76.54 4.38L76.54 4.38Z"></path></g><!----><g data-v-423bf9ae="" id="f4a01960-8958-4ebc-9a05-a15efa07aafa" transform="matrix(1.5,0,0,1.5,0,0)" stroke="none" fill="#C0C0C0"><g><path d="M2 58h56V2H2v56zm57 2H1a1 1 0 0 1-1-1V1a1 1 0 0 1 1-1h58a1 1 0 0 1 1 1v58a1 1 0 0 1-1 1z"></path><path d="M46 55c-4.963 0-9-4.038-9-9a1 1 0 1 1 2 0c0 3.86 3.141 7 7 7s7-3.14 7-7-3.141-7-7-7c-4.963 0-9-4.038-9-9s4.037-9 9-9 9 4.038 9 9a1 1 0 1 1-2 0c0-3.86-3.141-7-7-7s-7 3.14-7 7 3.141 7 7 7c4.963 0 9 4.038 9 9s-4.037 9-9 9M25 55c-4.963 0-9-4.038-9-9a1 1 0 1 1 2 0c0 3.86 3.141 7 7 7s7-3.14 7-7V22a1 1 0 1 1 2 0v24c0 4.962-4.037 9-9 9"></path></g></g><!----></svg>