<?xml version="1.0"?>
<svg xmlns="http://www.w3.org/2000/svg" xmlns:xlink="http://www.w3.org/1999/xlink" xmlns:svgjs="http://svgjs.com/svgjs" version="1.1" width="512" height="512" x="0" y="0" viewBox="0 0 512 512" style="enable-background:new 0 0 512 512" xml:space="preserve"><g><g xmlns="http://www.w3.org/2000/svg"><path d="m361 0h-300v219.789l-19.395-19.394-21.21 21.21 55.605 55.606 55.605-55.606-21.21-21.21-19.395 19.394v-189.789h240v30h-120v61h301v-61h-151z" fill="#ffffff" data-original="#000000" style=""/><path d="m76 482h-31l1 30h315v-99.789l19.395 19.394 21.21-21.21-55.605-55.606-55.605 55.606 21.21 21.21 19.395-19.394v69.789h-225v-30h75v-121h-181v121h76z" fill="#ffffff" data-original="#000000" style=""/><path d="m211 301h301v-150h-301zm105-120h150v30h-150zm0 60h150v30h-150zm-60-60h30v30h-30zm0 60h30v30h-30z" fill="#ffffff" data-original="#000000" style=""/></g></g></svg>
