<?xml version="1.0"?>
<svg xmlns="http://www.w3.org/2000/svg" xmlns:xlink="http://www.w3.org/1999/xlink" xmlns:svgjs="http://svgjs.com/svgjs" version="1.1" width="512" height="512" x="0" y="0" viewBox="0 0 255.2 255.2" style="enable-background:new 0 0 512 512" xml:space="preserve" class=""><g>
<g xmlns="http://www.w3.org/2000/svg">
	<path style="" d="M127.6,195.2l-58.4-33.6v79.2c17.6,9.2,37.6,14.4,58.4,14.4c25.2,0,48.8-7.2,68.4-20L127.6,195.2z" fill="#749e00" data-original="#009e81" class=""/>
	<path style="" d="M186,161.2l-58.4,34l68.4,39.6c35.6-22.8,58.8-62.4,58.8-107.2c0-2,0-4,0-6L186,161.2z" fill="#007ab5" data-original="#00b594" class=""/>
	<path style="" d="M186,94v67.6l68.4-39.6c-2-46.8-29.2-86.8-68.4-107.2V94z" fill="#749e00" data-original="#009e81" class=""/>
	<path style="" d="M127.6,60L186,93.6V14.4C168.4,5.2,148.4,0,127.6,0c-25.2,0-48.8,7.2-68.4,20L127.6,60z" fill="#007ab5" data-original="#00b594" class=""/>
	<path style="" d="M69.2,94l58.4-34L59.2,20.4C23.6,43.2,0.4,82.8,0.4,127.6c0,2,0,4,0,6L69.2,94z" fill="#749e00" data-original="#009e81" class=""/>
	<path style="" d="M69.2,161.2V93.6L0.8,133.2C2.8,180,30,220,69.2,240.4V161.2z" fill="#007ab5" data-original="#00b594" class=""/>
</g>
<g xmlns="http://www.w3.org/2000/svg">
</g>
<g xmlns="http://www.w3.org/2000/svg">
</g>
<g xmlns="http://www.w3.org/2000/svg">
</g>
<g xmlns="http://www.w3.org/2000/svg">
</g>
<g xmlns="http://www.w3.org/2000/svg">
</g>
<g xmlns="http://www.w3.org/2000/svg">
</g>
<g xmlns="http://www.w3.org/2000/svg">
</g>
<g xmlns="http://www.w3.org/2000/svg">
</g>
<g xmlns="http://www.w3.org/2000/svg">
</g>
<g xmlns="http://www.w3.org/2000/svg">
</g>
<g xmlns="http://www.w3.org/2000/svg">
</g>
<g xmlns="http://www.w3.org/2000/svg">
</g>
<g xmlns="http://www.w3.org/2000/svg">
</g>
<g xmlns="http://www.w3.org/2000/svg">
</g>
<g xmlns="http://www.w3.org/2000/svg">
</g>
</g></svg>
