<svg id="Layer_1" enable-background="new 0 0 511.977 511.977" height="512" viewBox="0 0 511.977 511.977" width="512" xmlns="http://www.w3.org/2000/svg"><g><path d="m115.86 220.21 350.804-156.855c7.001-3.13 14.106-4.819 21.076-5.263-12.071-30.037-47.76-47.683-81.076-32.787l-350.804 156.855c-43.545 19.47-48.541 79.294-8.829 105.717l39.881 26.425c-31.404-27.559-12.166-75.709 28.948-94.092z" fill="#cee1f2"/><path d="m371.876 511.9c-15.619 0-31.121-4.567-44.594-13.531l-107.352-71.428c-9.196-6.119-11.69-18.534-5.572-27.73 6.119-9.195 18.535-11.691 27.73-5.572l107.352 71.428c11.664 7.762 25.729 9.025 38.587 3.467 12.858-5.556 21.576-16.662 23.917-30.471l59.454-350.679c2.544-15.007-3.121-29.532-15.154-38.854-12.035-9.323-27.517-11.178-41.416-4.966l-350.804 156.855c-13.698 6.125-22.621 18.707-23.869 33.657-1.249 14.951 5.463 28.839 17.955 37.15l48.979 32.588c9.196 6.119 11.69 18.534 5.572 27.73-6.119 9.194-18.535 11.69-27.73 5.572l-48.979-32.588c-24.808-16.506-38.138-44.088-35.658-73.78 2.479-29.693 20.2-54.683 47.403-66.845l350.803-156.855c27.188-12.155 58.699-8.378 82.24 9.86 23.541 18.236 35.072 47.803 30.096 77.161l-59.454 350.679c-4.58 27.017-22.333 49.635-47.487 60.504-10.302 4.451-21.189 6.648-32.019 6.648z" fill="#1428bf"/><path d="m154.01 511.968c-11.046 0-20-8.954-20-20v-92.351c0-28.591 11.649-56.528 31.96-76.65l187.964-186.207c7.846-7.775 20.51-7.714 28.283.133 7.774 7.847 7.715 20.51-.133 28.283l-187.963 186.207c-12.781 12.662-20.111 30.243-20.111 48.234v92.351c0 11.046-8.955 20-20 20z" fill="#df5cf0"/></g></svg>