<?xml version="1.0"?>
<svg xmlns="http://www.w3.org/2000/svg" xmlns:xlink="http://www.w3.org/1999/xlink" xmlns:svgjs="http://svgjs.com/svgjs" version="1.1" width="512" height="512" x="0" y="0" viewBox="0 0 64 64" style="enable-background:new 0 0 512 512" xml:space="preserve"><g><path xmlns="http://www.w3.org/2000/svg" d="M61,48H60V12a1,1,0,0,0-1-1H5a1,1,0,0,0-1,1V48H3a1,1,0,0,0-1,1v2a3,3,0,0,0,3,3H59a3,3,0,0,0,3-3V49A1,1,0,0,0,61,48ZM6,13H58V48H50.974A4.948,4.948,0,0,0,52,45V41.562A16.355,16.355,0,0,1,54.607,32.8,8.993,8.993,0,0,0,53,21.293a9,9,0,0,0-14.891,5.27A9.427,9.427,0,0,0,38,28.145V28a1,1,0,0,0-1-1H34.613a11.831,11.831,0,0,0-1.277-3.093l1.685-1.685a1,1,0,0,0,0-1.414l-2.829-2.829a1,1,0,0,0-1.414,0l-1.685,1.686A11.834,11.834,0,0,0,26,18.387V16a1,1,0,0,0-1-1H21a1,1,0,0,0-1,1v2.387a11.834,11.834,0,0,0-3.093,1.278l-1.685-1.686a1,1,0,0,0-1.414,0l-2.829,2.829a1,1,0,0,0,0,1.414l1.685,1.685A11.831,11.831,0,0,0,11.387,27H9a1,1,0,0,0-1,1v4a1,1,0,0,0,1,1h2.387a11.831,11.831,0,0,0,1.277,3.093l-1.685,1.685a1,1,0,0,0,0,1.414l2.829,2.829a1,1,0,0,0,1.414,0l1.685-1.686A11.834,11.834,0,0,0,20,41.613V44a1,1,0,0,0,1,1h4a1,1,0,0,0,1-1V41.613a11.834,11.834,0,0,0,3.093-1.278l1.685,1.686a1,1,0,0,0,1.414,0l2.829-2.829a1,1,0,0,0,0-1.414l-1.685-1.685A11.831,11.831,0,0,0,34.613,33H37a1,1,0,0,0,1-1V28.172a8.87,8.87,0,0,0,1.294,4.473A17.179,17.179,0,0,1,42,41.566V45a4.948,4.948,0,0,0,1.026,3H6ZM51.707,29.293l-1-1a1,1,0,0,0-1.023-.242l-2.684.9-2.684-.9a1,1,0,0,0-1.023.242l-1,1a1,1,0,0,0-.188,1.154L44,34.236V41h-.01a19.365,19.365,0,0,0-2.985-9.392,6.959,6.959,0,0,1-.917-4.737A7.049,7.049,0,0,1,46.2,21.045a7,7,0,0,1,6.721,10.688A18.406,18.406,0,0,0,50.009,41H50V34.236l1.9-3.789A1,1,0,0,0,51.707,29.293ZM44,44V43h6v1Zm5.816,2a2.982,2.982,0,0,1-5.632,0ZM45.9,33.553,44.217,30.2l.054-.053,2.413.805a1,1,0,0,0,.632,0l2.413-.805.054.053-1.678,3.356A1,1,0,0,0,48,34v7H46V34A1,1,0,0,0,45.9,33.553ZM31.354,36.939,32.9,38.485,31.485,39.9l-1.547-1.545a1,1,0,0,0-1.274-.117,9.881,9.881,0,0,1-3.845,1.589A1,1,0,0,0,24,40.81V43H22V40.81a1,1,0,0,0-.819-.984,9.881,9.881,0,0,1-3.845-1.589,1,1,0,0,0-1.274.117L14.515,39.9,13.1,38.485l1.545-1.546a1,1,0,0,0,.117-1.274,9.892,9.892,0,0,1-1.589-3.846A1,1,0,0,0,12.19,31H10V29h2.19a1,1,0,0,0,.984-.819,9.892,9.892,0,0,1,1.589-3.846,1,1,0,0,0-.117-1.274L13.1,21.515,14.515,20.1l1.547,1.545a1,1,0,0,0,1.274.117,9.881,9.881,0,0,1,3.845-1.589A1,1,0,0,0,22,19.19V17h2v2.19a1,1,0,0,0,.819.984,9.881,9.881,0,0,1,3.845,1.589,1,1,0,0,0,1.274-.117L31.485,20.1,32.9,21.515l-1.545,1.546a1,1,0,0,0-.117,1.274,9.892,9.892,0,0,1,1.589,3.846A1,1,0,0,0,33.81,29H36v2H33.81a1,1,0,0,0-.984.819,9.892,9.892,0,0,1-1.589,3.846A1,1,0,0,0,31.354,36.939ZM60,51a1,1,0,0,1-1,1H5a1,1,0,0,1-1-1V50H60Z" fill="#ffffff" data-original="#000000" style=""/><path xmlns="http://www.w3.org/2000/svg" d="M23,22a8,8,0,1,0,8,8A8.009,8.009,0,0,0,23,22Zm0,14a6,6,0,1,1,6-6A6.006,6.006,0,0,1,23,36Z" fill="#ffffff" data-original="#000000" style=""/><path xmlns="http://www.w3.org/2000/svg" d="M23,26a4,4,0,1,0,4,4A4,4,0,0,0,23,26Zm0,6a2,2,0,1,1,2-2A2,2,0,0,1,23,32Z" fill="#ffffff" data-original="#000000" style=""/><path xmlns="http://www.w3.org/2000/svg" d="M29.611,45.667l.778,1.842A19.131,19.131,0,0,0,32.5,46.458l-1-1.732A16.852,16.852,0,0,1,29.611,45.667Z" fill="#ffffff" data-original="#000000" style=""/><path xmlns="http://www.w3.org/2000/svg" d="M33.686,43.223l1.257,1.555a19.191,19.191,0,0,0,5.081-6.333l-1.791-.89A17.187,17.187,0,0,1,33.686,43.223Z" fill="#ffffff" data-original="#000000" style=""/><rect xmlns="http://www.w3.org/2000/svg" x="46" y="14" width="2" height="4" fill="#ffffff" data-original="#000000" style=""/><rect xmlns="http://www.w3.org/2000/svg" x="51.197" y="16.5" width="3.606" height="2" transform="translate(9.04 51.891) rotate(-56.31)" fill="#ffffff" data-original="#000000" style=""/><rect xmlns="http://www.w3.org/2000/svg" x="40" y="15.697" width="2" height="3.606" transform="translate(-2.821 25.682) rotate(-33.69)" fill="#ffffff" data-original="#000000" style=""/></g></svg>
