<?xml version="1.0" encoding="UTF-8"?>
<svg width="498px" height="126px" viewBox="0 0 498 126" version="1.1" xmlns="http://www.w3.org/2000/svg" xmlns:xlink="http://www.w3.org/1999/xlink">
    <!-- Generator: Sketch 51.3 (57544) - http://www.bohemiancoding.com/sketch -->
    <title>Artboard</title>
    <desc>Created with Sketch.</desc>
    <defs></defs>
    <g id="Artboard" stroke="none" stroke-width="1" fill="none" fill-rule="evenodd">
        <g id="GF-logo-inverse-NL" fill="#000" fill-rule="nonzero">
            <g id="Group" transform="translate(25.000000, 2.000000)" stroke="#FFFFFF" stroke-linecap="round" stroke-linejoin="round" stroke-width="0.2567">
                <g id="Shape">
                    <g>
                        <path d="M49.98,0.562 C67.95,0.562 80,8.622 80.52,20.672 L69.95,20.672 C69.36,13.572 62.04,9.362 50.13,9.362 C37.63,9.362 29.28,16.382 29.28,27.622 C29.28,38.862 37.56,45.812 49.99,45.812 C61.23,45.812 69.81,41.222 71.07,33.532 L42.23,33.532 L42.23,25.842 L81.35,25.842 L81.35,53.502 L72.77,53.502 L73.51,41.522 L72.84,41.522 C68.11,51.212 59.16,54.682 49.77,54.682 C31.14,54.682 18.79,43.882 18.79,27.622 C18.77,11.352 31.2,0.562 49.98,0.562 Z"></path>
                        <polygon points="92.27 1.742 142.18 1.742 142.18 10.542 102.77 10.542 102.77 21.852 137.82 21.852 137.82 29.982 102.77 29.982 102.77 44.622 142.18 44.622 142.18 53.492 92.27 53.492"></polygon>
                        <polygon points="153.05 1.742 162.59 1.742 201.34 39.012 201.34 1.742 211.84 1.742 211.84 53.502 202.23 53.502 163.56 16.232 163.56 53.502 153.06 53.502 153.06 1.742"></polygon>
                        <polygon points="241.63 10.542 218.71 10.542 218.71 1.742 275.13 1.742 275.13 10.542 252.13 10.542 252.13 53.502 241.63 53.502"></polygon>
                        <path d="M277.79,36.862 L288.73,36.862 C288.66,42.262 295.24,45.812 306.03,45.812 C318.23,45.812 324.96,43.592 324.96,38.712 C324.96,24.732 279.19,40.932 279.19,16.902 C279.19,6.332 290.36,0.562 306.4,0.562 C323.26,0.562 334.35,7.662 334.43,18.382 L323.71,18.382 C323.71,12.912 317.2,9.362 306.7,9.362 C295.98,9.362 289.84,11.582 289.84,16.022 C289.84,29.032 335.54,13.952 335.54,38.282 C335.54,49.082 324.08,54.702 306.48,54.702 C288.81,54.692 277.64,47.442 277.79,36.862 Z"></path>
                        <polygon points="344.7 1.742 394.61 1.742 394.61 10.542 355.2 10.542 355.2 21.852 390.25 21.852 390.25 29.982 355.2 29.982 355.2 44.622 394.61 44.622 394.61 53.492 344.7 53.492"></polygon>
                        <polygon points="0.95 70.542 48.42 70.542 48.42 79.342 11.45 79.342 11.45 91.022 44.8 91.022 44.8 99.152 11.45 99.152 11.45 122.302 0.95 122.302"></polygon>
                        <polygon points="57 70.542 106.91 70.542 106.91 79.342 67.5 79.342 67.5 90.652 102.55 90.652 102.55 98.782 67.5 98.782 67.5 113.422 106.91 113.422 106.91 122.292 57 122.292"></polygon>
                        <polygon points="117.04 70.542 166.95 70.542 166.95 79.342 127.54 79.342 127.54 90.652 162.59 90.652 162.59 98.782 127.54 98.782 127.54 113.422 166.95 113.422 166.95 122.292 117.04 122.292 117.04 70.542"></polygon>
                        <path d="M174.2,105.672 L185.14,105.672 C185.07,111.072 191.65,114.622 202.44,114.622 C214.64,114.622 221.37,112.402 221.37,107.522 C221.37,93.542 175.6,109.742 175.6,85.712 C175.6,75.142 186.77,69.372 202.81,69.372 C219.67,69.372 230.76,76.472 230.84,87.192 L220.12,87.192 C220.12,81.722 213.61,78.172 203.11,78.172 C192.39,78.172 186.25,80.392 186.25,84.832 C186.25,97.842 231.95,82.762 231.95,107.092 C231.95,117.892 220.49,123.512 202.89,123.512 C185.21,123.492 174.05,116.242 174.2,105.672 Z"></path>
                        <polygon points="255.76 79.342 232.84 79.342 232.84 70.542 289.26 70.542 289.26 79.342 266.26 79.342 266.26 122.302 255.76 122.302"></polygon>
                        <polygon points="295.31 70.542 345.22 70.542 345.22 79.342 305.81 79.342 305.81 90.652 340.86 90.652 340.86 98.782 305.81 98.782 305.81 113.422 345.22 113.422 345.22 122.292 295.31 122.292 295.31 70.542"></polygon>
                        <polygon points="355.35 70.542 364.89 70.542 403.64 107.812 403.64 70.542 414.14 70.542 414.14 122.302 404.53 122.302 365.85 85.042 365.85 122.312 355.35 122.312"></polygon>
                    </g>
                </g>
            </g>
            <path d="M0.07,41.302 C2.2,40.692 4.33,40.062 6.46,39.472 C17.42,36.442 28.47,33.752 39.55,31.222 C47.68,29.372 55.81,27.532 63.97,25.802 C71.48,24.212 79.01,22.722 86.54,21.282 C93.48,19.962 100.43,18.702 107.39,17.512 C113.82,16.412 120.27,15.402 126.72,14.392 C132.11,13.552 137.51,12.762 142.91,12.002 C148.01,11.282 153.11,10.622 158.22,9.962 C162.57,9.402 166.91,8.852 171.27,8.332 C174.99,7.882 178.71,7.482 182.43,7.072 C186.1,6.662 189.77,6.252 193.45,5.872 C197.43,5.462 201.41,5.092 205.39,4.722 C209.14,4.372 212.9,4.032 216.65,3.722 C219.75,3.462 222.85,3.252 225.95,3.032 C228.87,2.822 231.79,2.612 234.72,2.422 C238.05,2.202 241.38,2.002 244.71,1.812 C247.58,1.642 250.46,1.502 253.33,1.352 C255.59,1.242 257.86,1.142 260.13,1.042 C262.73,0.932 265.32,0.822 267.92,0.742 C271.23,0.632 274.55,0.532 277.86,0.432 C279.95,0.372 282.04,0.322 284.13,0.282 C286.91,0.222 289.69,0.152 292.47,0.132 C302.2,0.072 311.93,0.042 321.66,0.002 C323.55,-0.008 325.44,0.022 327.33,0.042 C330.47,0.082 333.61,0.132 336.74,0.192 C338.81,0.232 340.87,0.282 342.94,0.342 C345.9,0.432 348.85,0.522 351.81,0.652 C354.33,0.762 356.85,0.912 359.37,1.032 C361.02,1.112 362.68,1.162 364.33,1.262 C366.24,1.372 368.14,1.522 370.05,1.642 C371.32,1.722 372.59,1.792 373.86,1.872 C375.94,2.002 378.03,2.142 380.11,2.292 C382.24,2.442 384.38,2.592 386.51,2.792 C389.55,3.072 392.59,3.392 395.63,3.712 C396.33,3.782 396.49,4.082 396.22,4.672 C396.09,4.962 395.9,5.002 395.61,4.972 C394.01,4.822 392.42,4.682 390.82,4.542 C389.07,4.392 387.32,4.232 385.57,4.092 C382.68,3.852 379.79,3.622 376.89,3.402 C374.86,3.252 372.82,3.142 370.79,3.012 C368.81,2.882 366.83,2.742 364.84,2.632 C363.19,2.542 361.53,2.472 359.88,2.402 C357.56,2.302 355.25,2.202 352.93,2.102 C352.09,2.062 351.25,2.032 350.41,2.012 C348.17,1.952 345.92,1.902 343.68,1.862 C340.21,1.792 336.74,1.682 333.27,1.652 C324.92,1.582 316.57,1.542 308.22,1.502 C306.36,1.492 304.49,1.532 302.63,1.562 C300.26,1.602 297.89,1.652 295.51,1.712 C292.12,1.802 288.73,1.902 285.34,2.022 C282.79,2.112 280.25,2.212 277.7,2.332 C275.28,2.442 272.87,2.592 270.45,2.712 C268.8,2.792 267.14,2.852 265.49,2.942 C264.09,3.012 262.69,3.102 261.29,3.192 C259.36,3.312 257.43,3.422 255.5,3.552 C253.57,3.682 251.64,3.822 249.71,3.962 C247.37,4.132 245.04,4.292 242.7,4.472 C240.42,4.652 238.13,4.842 235.85,5.032 C232.7,5.302 229.56,5.562 226.42,5.852 C222.97,6.172 219.53,6.512 216.08,6.882 C210.43,7.492 204.79,8.092 199.15,8.762 C194.62,9.292 190.1,9.892 185.58,10.512 C179.98,11.272 174.37,12.052 168.78,12.892 C164.17,13.582 159.56,14.322 154.97,15.102 C149.34,16.062 143.72,17.062 138.11,18.082 C134.97,18.652 131.85,19.282 128.72,19.882 C128.6,19.902 128.49,19.942 128.39,20.072 C128.97,20.012 129.55,19.972 130.12,19.902 C133.79,19.502 137.46,19.092 141.13,18.712 C144.12,18.402 147.11,18.132 150.1,17.862 C153.8,17.522 157.5,17.182 161.21,16.872 C164.26,16.622 167.3,16.382 170.35,16.182 C173.83,15.952 177.3,15.542 180.76,15.102 C183.97,14.702 187.18,14.322 190.4,13.942 C193.46,13.582 196.52,13.232 199.59,12.902 C202.35,12.602 205.11,12.332 207.88,12.072 C212.06,11.672 216.24,11.262 220.43,10.902 C223.98,10.592 227.54,10.332 231.09,10.062 C233.78,9.852 236.47,9.652 239.16,9.452 C242.28,9.222 245.41,8.982 248.53,8.762 C250.61,8.622 252.7,8.512 254.78,8.382 C256.61,8.262 258.44,8.112 260.27,8.002 C262.53,7.862 264.8,7.752 267.06,7.622 C269.04,7.502 271.02,7.362 273.01,7.242 C274.54,7.152 276.06,7.092 277.59,7.012 C279.34,6.922 281.1,6.822 282.85,6.722 C283.99,6.662 285.14,6.612 286.29,6.552 C288.27,6.452 290.26,6.352 292.24,6.252 C293.61,6.192 294.99,6.152 296.37,6.092 C298.53,6.002 300.7,5.892 302.86,5.802 C304.34,5.742 305.81,5.692 307.29,5.642 C310.17,5.542 313.05,5.442 315.93,5.342 C316.87,5.312 317.82,5.272 318.76,5.252 C320.29,5.222 321.82,5.212 323.35,5.182 C325.9,5.132 328.45,5.082 331,5.032 C332.53,5.002 334.06,4.962 335.59,4.952 C338.12,4.922 340.64,4.892 343.17,4.882 C350.47,4.852 357.78,4.812 365.08,4.802 C367.56,4.802 370.03,4.852 372.51,4.882 C374.5,4.902 376.49,4.922 378.48,4.952 C381.52,5.002 384.55,5.052 387.59,5.102 C389.89,5.142 392.18,5.202 394.48,5.252 C396.26,5.292 398.05,5.342 399.83,5.402 C402.48,5.492 405.13,5.572 407.78,5.712 C410.91,5.882 414.04,6.062 417.16,6.322 C420.23,6.572 423.3,6.872 426.35,7.252 C427.91,7.442 429.45,7.862 430.99,8.182 C431.08,8.202 431.16,8.282 431.24,8.332 C431.15,8.632 430.96,8.602 430.75,8.532 C429.03,8.012 427.26,7.792 425.49,7.622 C423.26,7.402 421.02,7.192 418.79,7.022 C416.73,6.862 414.67,6.732 412.61,6.632 C410.52,6.532 408.43,6.482 406.34,6.402 C404.07,6.322 401.81,6.222 399.54,6.172 C397.5,6.122 395.46,6.122 393.41,6.102 C389.12,6.052 384.83,5.982 380.54,5.952 C370.73,5.892 360.93,5.842 351.12,5.802 C348.46,5.792 345.81,5.832 343.15,5.862 C339.7,5.902 336.26,5.952 332.81,6.022 C330.64,6.062 328.47,6.112 326.3,6.172 C323.37,6.262 320.44,6.372 317.51,6.472 C315.65,6.532 313.79,6.562 311.93,6.632 C310.22,6.692 308.52,6.782 306.81,6.862 C306.07,6.892 305.33,6.902 304.59,6.942 C302.4,7.042 300.21,7.142 298.02,7.242 C296.67,7.302 295.32,7.342 293.97,7.402 C292.24,7.482 290.51,7.582 288.78,7.672 C287.61,7.732 286.44,7.792 285.27,7.852 C283.62,7.942 281.96,8.022 280.31,8.112 C278.25,8.222 276.19,8.342 274.13,8.462 C272.71,8.542 271.28,8.642 269.86,8.722 C267.95,8.842 266.05,8.952 264.14,9.072 C262.06,9.202 259.97,9.352 257.89,9.492 C256.14,9.612 254.38,9.712 252.63,9.842 C250.67,9.982 248.72,10.132 246.76,10.272 C244.45,10.442 242.14,10.592 239.83,10.762 C237.47,10.942 235.11,11.122 232.75,11.312 C230.03,11.532 227.32,11.742 224.61,11.982 C222,12.212 219.39,12.452 216.78,12.712 C213,13.072 209.23,13.442 205.45,13.822 C204.9,13.872 204.36,13.992 203.81,14.102 C205.5,14.012 207.18,13.912 208.87,13.832 C210.17,13.772 211.47,13.722 212.77,13.672 C215.06,13.572 217.35,13.472 219.64,13.372 C220.35,13.342 221.07,13.322 221.78,13.302 C223.59,13.252 225.4,13.212 227.21,13.142 C229.45,13.062 231.69,12.952 233.93,12.852 C236.04,12.752 238.15,12.652 240.27,12.532 C242.58,12.412 244.9,12.272 247.21,12.152 C248.48,12.082 249.76,12.042 251.03,11.992 C253.37,11.892 255.71,11.792 258.06,11.692 C258.8,11.662 259.54,11.642 260.28,11.622 C262.22,11.572 264.15,11.522 266.09,11.462 C269.05,11.382 272,11.302 274.96,11.222 C277.2,11.162 279.45,11.112 281.69,11.072 C283.55,11.042 285.42,11.022 287.28,11.002 C289.78,10.972 292.28,10.942 294.78,10.922 C298.28,10.892 301.78,10.862 305.28,10.862 C309.06,10.862 312.84,10.892 316.62,10.932 C319.89,10.962 323.15,11.022 326.42,11.082 C328.74,11.122 331.06,11.182 333.38,11.232 C335.29,11.282 337.2,11.322 339.12,11.382 C342.2,11.482 345.29,11.582 348.37,11.692 C350.97,11.782 353.57,11.892 356.16,12.002 C358.4,12.092 360.64,12.192 362.88,12.312 C365.58,12.452 368.27,12.622 370.97,12.762 C373.03,12.872 375.09,12.952 377.15,13.082 C380.12,13.262 383.1,13.482 386.07,13.682 C388.43,13.842 390.8,13.982 393.16,14.152 C395.55,14.322 397.93,14.522 400.32,14.712 C402.98,14.932 405.65,15.142 408.31,15.372 C410.92,15.602 413.53,15.862 416.14,16.112 C419.94,16.472 423.75,16.822 427.54,17.212 C431.95,17.672 436.35,18.162 440.75,18.662 C445.36,19.182 449.96,19.712 454.56,20.262 C455.93,20.422 457.29,20.632 458.64,20.872 C460.18,21.152 460.21,21.452 459.68,22.832 C459.9,22.882 460.11,22.942 460.32,22.972 C466.33,23.932 472.36,24.822 478.36,25.862 C484.49,26.922 490.59,28.122 496.7,29.262 C496.87,29.292 497.03,29.362 497.19,29.412 C497.19,29.462 497.19,29.512 497.19,29.562 C496.06,29.392 494.92,29.242 493.79,29.062 C486.04,27.792 478.31,26.462 470.55,25.272 C464.84,24.402 459.09,23.702 453.36,22.972 C449.47,22.482 445.57,22.052 441.67,21.642 C438.68,21.322 435.69,21.072 432.7,20.792 C429.56,20.502 426.41,20.212 423.27,19.952 C420.94,19.752 418.6,19.592 416.26,19.412 C413.19,19.182 410.12,18.942 407.04,18.722 C404.91,18.572 402.77,18.462 400.63,18.342 C399.9,18.302 399.16,18.242 398.41,18.332 C398.83,18.382 399.24,18.442 399.66,18.492 C404.09,19.022 408.52,19.512 412.93,20.102 C416.19,20.532 419.43,21.102 422.67,21.612 C422.75,21.622 422.82,21.632 422.9,21.652 C423.83,21.882 424.03,22.502 423.42,23.262 C423.22,23.512 422.97,23.452 422.72,23.422 C421.46,23.272 420.19,23.122 418.93,22.972 C415.42,22.552 411.9,22.112 408.38,21.732 C404.18,21.282 399.97,20.892 395.76,20.492 C392.59,20.192 389.42,19.912 386.25,19.652 C383.84,19.452 381.42,19.292 379.01,19.112 C376.67,18.942 374.34,18.742 372,18.582 C369.92,18.442 367.83,18.332 365.75,18.202 C363.82,18.082 361.89,17.942 359.96,17.822 C358.43,17.732 356.91,17.672 355.38,17.592 C353.65,17.502 351.92,17.402 350.19,17.312 C348.92,17.242 347.64,17.192 346.37,17.132 C344.36,17.032 342.35,16.932 340.34,16.842 C338.89,16.782 337.44,16.772 336,16.722 C334.91,16.692 333.82,16.632 332.72,16.592 C332.44,16.582 332.16,16.592 331.88,16.642 C333.59,16.722 335.31,16.802 337.02,16.892 C338.8,16.982 340.58,17.072 342.36,17.162 C343.53,17.222 344.7,17.282 345.87,17.352 C347.29,17.432 348.72,17.512 350.14,17.602 C352,17.722 353.85,17.832 355.7,17.962 C357.55,18.092 359.41,18.232 361.26,18.372 C363.47,18.542 365.68,18.702 367.88,18.882 C369.99,19.052 372.09,19.242 374.19,19.442 C378.07,19.812 381.95,20.162 385.82,20.572 C389.59,20.972 393.36,21.412 397.13,21.872 C402.19,22.492 407.24,23.102 412.29,23.782 C418.38,24.592 424.47,25.392 430.5,26.532 C431.3,26.682 432.09,26.892 432.87,27.132 C433.77,27.412 433.9,27.592 433.84,28.162 C433.74,29.082 433.34,29.582 432.52,29.632 C431.78,29.682 431.04,29.672 430.3,29.642 C428.29,29.562 426.28,29.462 424.27,29.352 C422.06,29.232 419.84,29.092 417.63,28.972 C416,28.882 414.37,28.822 412.74,28.742 C410.96,28.652 409.18,28.552 407.4,28.462 C406.15,28.402 404.9,28.342 403.66,28.282 C401.6,28.182 399.54,28.082 397.47,27.992 C396.04,27.932 394.62,27.882 393.19,27.822 C390.8,27.722 388.4,27.622 386.01,27.532 C384.35,27.472 382.7,27.412 381.04,27.362 C377.75,27.262 374.46,27.162 371.17,27.062 C369.92,27.022 368.67,26.992 367.42,26.972 C364.77,26.922 362.11,26.872 359.46,26.822 C359.21,26.822 358.95,26.822 358.69,26.922 C360.32,27.142 361.95,27.362 363.58,27.582 C366.71,28.002 369.84,28.412 372.97,28.862 C377.06,29.442 381.14,30.032 385.22,30.642 C389.68,31.312 394.14,31.982 398.59,32.712 C403.87,33.572 409.15,34.452 414.42,35.382 C419.51,36.282 424.6,37.232 429.68,38.192 C436.04,39.382 442.4,40.632 448.76,41.792 C455.13,42.952 461.51,44.032 467.88,45.172 C468.77,45.332 469.64,45.642 470.52,45.882 C470.87,45.972 470.99,46.232 470.9,46.522 C470.7,47.172 470.47,47.812 470.2,48.432 C470.07,48.732 469.74,48.722 469.46,48.682 C468.73,48.572 467.99,48.482 467.27,48.312 C460.89,46.792 454.41,45.802 447.98,44.542 C441.8,43.332 435.62,42.122 429.43,40.942 C423.57,39.822 417.71,38.722 411.83,37.662 C406.59,36.722 401.34,35.802 396.08,34.952 C389.69,33.922 383.28,32.962 376.88,32.002 C372.37,31.322 367.85,30.682 363.33,30.062 C359.27,29.502 355.19,28.992 351.12,28.482 C347.45,28.022 343.78,27.582 340.11,27.142 C337.98,26.892 335.86,26.672 333.73,26.442 C333.48,26.412 333.22,26.432 332.96,26.432 C327.21,26.432 321.47,26.422 315.72,26.432 C312.45,26.442 309.18,26.462 305.91,26.502 C302.39,26.542 298.86,26.592 295.34,26.652 C292.74,26.692 290.13,26.752 287.53,26.802 C285.41,26.852 283.29,26.892 281.18,26.952 C277.61,27.052 274.04,27.152 270.47,27.262 C267.51,27.352 264.56,27.462 261.6,27.562 C258.97,27.662 256.35,27.762 253.73,27.872 C251.41,27.972 249.09,28.062 246.78,28.182 C243.95,28.322 241.13,28.482 238.3,28.632 C236.11,28.742 233.92,28.832 231.73,28.952 C229.36,29.082 227,29.242 224.63,29.392 C222.72,29.502 220.81,29.602 218.9,29.722 C216.87,29.852 214.83,30.002 212.8,30.142 C210.33,30.312 207.87,30.462 205.4,30.642 C202.96,30.822 200.52,31.012 198.08,31.202 C195.26,31.422 192.44,31.632 189.62,31.872 C186.9,32.102 184.19,32.352 181.47,32.602 C177.51,32.962 173.55,33.312 169.6,33.712 C165.57,34.112 161.54,34.562 157.51,35.012 C153.71,35.432 149.91,35.862 146.12,36.312 C142.68,36.722 139.24,37.172 135.8,37.632 C131.86,38.152 127.92,38.672 123.98,39.222 C119.94,39.792 115.91,40.382 111.87,40.992 C107.43,41.662 103,42.332 98.57,43.032 C94.31,43.702 90.06,44.392 85.81,45.102 C80.55,45.982 75.3,46.862 70.05,47.782 C64.8,48.702 59.56,49.652 54.32,50.602 C49.93,51.392 45.54,52.192 41.15,53.002 C40.81,53.062 40.47,53.182 40.13,53.272 C39.93,53.272 39.72,53.272 39.52,53.272 C39.25,52.942 38.93,52.642 38.71,52.282 C38.11,51.332 38.11,50.812 39.4,50.502 C43.26,49.562 47.1,48.522 50.98,47.642 C57.81,46.092 64.66,44.562 71.52,43.152 C78.29,41.762 85.08,40.482 91.87,39.232 C98.36,38.032 104.87,36.902 111.38,35.812 C117.01,34.862 122.65,33.972 128.29,33.132 C133.53,32.342 138.78,31.632 144.03,30.922 C148.6,30.302 153.17,29.712 157.75,29.162 C163.69,28.452 169.64,27.782 175.59,27.112 C178.42,26.792 181.26,26.522 184.1,26.212 C184.83,26.132 185.55,25.992 186.27,25.882 C186.69,25.882 187.11,25.882 187.53,25.882 C187.53,25.852 187.53,25.812 187.52,25.782 C187.11,25.822 186.69,25.852 186.28,25.892 C185.62,25.942 184.96,26.002 184.3,26.062 C181.61,26.302 178.92,26.532 176.24,26.802 C172.97,27.122 169.7,27.452 166.44,27.802 C162.97,28.182 159.51,28.582 156.04,28.992 C151.71,29.502 147.39,30.012 143.07,30.562 C138.62,31.132 134.18,31.742 129.74,32.352 C125.32,32.962 120.91,33.582 116.5,34.252 C111.76,34.962 107.03,35.702 102.3,36.482 C96.49,37.442 90.69,38.422 84.89,39.462 C79.02,40.512 73.16,41.642 67.3,42.742 C59.61,44.182 51.92,45.652 44.23,47.082 C41.27,47.632 38.29,48.052 35.34,48.602 C33.93,48.862 33.32,47.882 32.95,46.882 C32.81,46.492 32.95,46.112 33.32,45.882 C33.84,45.562 34.35,45.222 34.91,44.982 C36.22,44.422 37.55,43.892 38.88,43.382 C39.95,42.972 41.04,42.632 42.12,42.252 C41.92,41.422 41.98,41.262 42.73,40.922 C43.36,40.632 43.99,40.372 44.64,40.132 C49.8,38.222 55.05,36.572 60.32,34.962 C60.53,34.902 60.73,34.832 60.94,34.772 C59.57,34.872 58.24,35.092 56.91,35.332 C51.36,36.322 45.82,37.302 40.28,38.332 C35.29,39.252 30.31,40.222 25.33,41.182 C23.43,41.552 21.53,41.942 19.64,42.352 C19.15,42.462 18.75,42.332 18.49,41.972 C18.22,41.612 18.03,41.182 17.87,40.752 C17.74,40.422 17.89,40.152 18.22,40.012 C18.41,39.932 18.61,39.882 18.8,39.832 C21.36,39.142 23.92,38.442 26.48,37.772 C33.32,36.002 40.18,34.352 47.1,32.932 C53.14,31.692 59.19,30.482 65.26,29.352 C70.07,28.452 74.9,27.642 79.73,26.842 C84.46,26.062 89.19,25.322 93.93,24.612 C97.68,24.052 101.45,23.552 105.21,23.032 C106.82,22.812 108.46,22.672 110.05,22.352 C115.7,21.212 121.32,19.972 126.97,18.842 C132.42,17.752 137.88,16.722 143.34,15.722 C148,14.872 152.68,14.082 157.35,13.312 C161.37,12.652 165.4,12.032 169.43,11.422 C173.51,10.802 177.6,10.212 181.68,9.642 C185.29,9.142 188.9,8.682 192.51,8.212 C193.87,8.032 195.23,7.862 196.58,7.682 C196.32,7.612 196.07,7.582 195.82,7.612 C194.33,7.762 192.83,7.912 191.34,8.082 C186.48,8.632 181.62,9.172 176.76,9.742 C171.63,10.342 166.49,10.952 161.36,11.612 C155.12,12.422 148.89,13.262 142.66,14.152 C136.35,15.052 130.05,15.982 123.76,16.962 C118.02,17.862 112.29,18.812 106.57,19.822 C98.89,21.172 91.21,22.542 83.55,24.012 C75.79,25.502 68.04,27.052 60.32,28.732 C48.67,31.272 37.04,33.942 25.41,36.572 C17.4,38.382 9.4,40.212 1.41,42.052 C0.82,42.192 0.38,42.152 -1.70530257e-13,41.682 C0.07,41.512 0.07,41.402 0.07,41.302 Z M108.52,38.782 C108.83,38.732 109.14,38.692 109.45,38.642 C110.58,38.462 111.7,38.262 112.83,38.102 C117.39,37.462 121.96,36.812 126.53,36.192 C130.59,35.642 134.66,35.092 138.73,34.592 C143.3,34.032 147.88,33.512 152.46,32.982 C155.98,32.582 159.49,32.192 163.01,31.832 C166.89,31.442 170.76,31.082 174.64,30.712 C177.3,30.462 179.96,30.222 182.63,29.992 C185.34,29.762 188.06,29.552 190.78,29.332 C192.53,29.192 194.28,29.042 196.03,28.912 C198.42,28.732 200.8,28.572 203.19,28.402 C205.15,28.262 207.1,28.122 209.06,27.992 C210.91,27.872 212.77,27.762 214.63,27.642 C216,27.552 217.37,27.462 218.75,27.382 C220.78,27.262 222.82,27.142 224.85,27.032 C226.5,26.942 228.16,26.862 229.81,26.772 C230.95,26.712 232.1,26.642 233.24,26.582 C234.97,26.492 236.7,26.402 238.43,26.322 C239.78,26.262 241.13,26.212 242.48,26.162 C244.67,26.062 246.86,25.962 249.05,25.872 C249.79,25.842 250.53,25.832 251.27,25.792 C252.97,25.722 254.68,25.632 256.38,25.562 C258.09,25.502 259.79,25.462 261.5,25.402 C264.07,25.312 266.64,25.202 269.21,25.102 C270.87,25.042 272.52,24.992 274.18,24.952 C276.14,24.902 278.11,24.842 280.07,24.802 C282.21,24.752 284.35,24.692 286.49,24.652 C289.17,24.592 291.85,24.542 294.52,24.502 C296.13,24.472 297.74,24.452 299.34,24.432 C302.76,24.402 306.18,24.372 309.6,24.342 C310.03,24.342 310.47,24.342 310.9,24.332 C311.02,24.332 311.15,24.312 311.27,24.302 C310.42,24.152 309.56,24.072 308.71,24.002 C305.82,23.762 302.92,23.502 300.03,23.282 C297.69,23.102 295.35,22.952 293.01,22.802 C290.06,22.602 287.11,22.342 284.16,22.232 C281.56,22.132 278.95,22.182 276.35,22.222 C273.34,22.282 270.33,22.412 267.32,22.512 C265.92,22.562 264.52,22.612 263.11,22.672 C260.56,22.792 258.02,22.932 255.47,23.052 C252.82,23.182 250.17,23.282 247.52,23.432 C244.67,23.592 241.82,23.782 238.97,23.972 C235.87,24.172 232.76,24.362 229.66,24.582 C226.13,24.822 222.59,25.082 219.06,25.352 C215.33,25.642 211.59,25.942 207.86,26.262 C203.82,26.612 199.79,26.962 195.76,27.342 C191.14,27.782 186.53,28.242 181.92,28.712 C178.78,29.032 175.64,29.362 172.5,29.712 C169.11,30.092 165.72,30.502 162.33,30.902 C158.79,31.322 155.25,31.752 151.71,32.202 C148.42,32.622 145.14,33.052 141.86,33.502 C137.72,34.072 133.58,34.652 129.45,35.262 C125.67,35.822 121.89,36.422 118.12,37.012 C115.33,37.452 112.54,37.922 109.75,38.392 C109.64,38.412 109.54,38.552 109.43,38.622 C109.13,38.612 108.78,38.372 108.52,38.782 C108.26,38.762 107.99,38.752 107.73,38.732 C107.73,38.762 107.73,38.782 107.73,38.812 C108,38.802 108.26,38.792 108.52,38.782 Z M97.95,33.732 C98.26,33.692 98.57,33.642 98.89,33.602 C98.98,33.572 99.07,33.522 99.17,33.512 C103.83,32.802 108.49,32.062 113.15,31.392 C120.01,30.422 126.88,29.472 133.75,28.582 C139.89,27.782 146.03,27.052 152.18,26.352 C157.24,25.782 162.31,25.302 167.38,24.792 C169.96,24.532 172.55,24.282 175.14,24.052 C177.83,23.812 180.52,23.602 183.21,23.392 C185.09,23.242 186.97,23.112 188.85,22.972 C190.73,22.842 192.61,22.712 194.49,22.582 C196.34,22.452 198.2,22.332 200.05,22.212 C201.45,22.122 202.85,22.062 204.25,21.982 C206.36,21.862 208.47,21.722 210.58,21.612 C212.36,21.522 214.14,21.462 215.93,21.382 C216.6,21.352 217.27,21.292 217.93,21.252 C217.7,21.152 217.48,21.142 217.25,21.152 C216.05,21.182 214.86,21.212 213.66,21.242 C211.77,21.292 209.89,21.342 208,21.392 C207.13,21.412 206.27,21.432 205.4,21.462 C202.67,21.562 199.95,21.662 197.22,21.762 C195.82,21.812 194.42,21.862 193.02,21.922 C191.06,22.012 189.1,22.122 187.14,22.222 C185.31,22.312 183.47,22.342 181.64,22.482 C178.82,22.692 176,22.962 173.19,23.242 C168.65,23.682 164.11,24.142 159.58,24.622 C155.75,25.032 151.93,25.452 148.11,25.922 C143.81,26.442 139.51,26.962 135.22,27.572 C129.65,28.362 124.08,29.212 118.52,30.082 C114.07,30.782 109.62,31.562 105.18,32.312 C103.2,32.652 101.22,33.012 99.23,33.362 C99.09,33.392 98.82,33.302 98.9,33.622 C98.56,33.562 98.21,33.312 97.95,33.732 C97.69,33.712 97.43,33.702 97.17,33.692 C97.17,33.722 97.17,33.752 97.17,33.792 C97.43,33.772 97.69,33.752 97.95,33.732 Z M381.73,22.592 C336.44,18.142 291.04,17.422 245.58,18.752 C245.79,18.802 246.01,18.832 246.23,18.832 C249.19,18.862 252.15,18.892 255.11,18.922 C256.08,18.932 257.05,18.962 258.02,18.982 C261.1,19.062 264.19,19.142 267.27,19.222 C269.08,19.272 270.89,19.322 272.7,19.382 C273.39,19.402 274.08,19.422 274.76,19.452 C276.77,19.552 278.78,19.702 280.79,19.732 C282.57,19.762 284.36,19.632 286.14,19.602 C288,19.562 289.87,19.532 291.73,19.532 C300.82,19.572 309.91,19.412 319,19.682 C321.35,19.752 323.69,19.782 326.04,19.842 C329.07,19.912 332.11,19.982 335.14,20.062 C335.96,20.082 336.77,20.122 337.58,20.152 C339.87,20.252 342.16,20.352 344.45,20.452 C345.8,20.512 347.15,20.552 348.5,20.622 C350.31,20.712 352.11,20.822 353.92,20.912 C355.47,20.992 357.03,21.052 358.58,21.142 C360.43,21.252 362.29,21.402 364.14,21.522 C366.15,21.652 368.16,21.772 370.16,21.902 C373.54,22.132 376.92,22.362 380.29,22.582 C380.77,22.622 381.25,22.592 381.73,22.592 Z M318.32,22.452 C318.31,22.462 318.31,22.462 318.3,22.472 C320.85,22.722 323.41,22.962 325.96,23.212 C328.49,23.462 331.03,23.722 333.56,23.972 C334.85,24.102 336.14,24.282 337.44,24.332 C339.5,24.412 341.57,24.402 343.64,24.432 C347.34,24.482 351.04,24.532 354.74,24.592 C357.16,24.632 359.58,24.692 362.01,24.742 C364.28,24.792 366.55,24.852 368.82,24.892 C370.32,24.922 371.83,24.932 373.33,24.962 C374.27,24.982 375.21,25.022 376.16,25.052 C378.15,25.122 380.13,25.192 382.12,25.252 C382.3,25.262 382.47,25.232 382.65,25.212 C381.91,25.082 381.18,25.002 380.45,24.952 C378.22,24.782 375.98,24.612 373.74,24.462 C371.68,24.312 369.62,24.162 367.57,24.042 C366.04,23.952 364.52,23.882 362.99,23.812 C360.85,23.712 358.71,23.612 356.57,23.512 C355.07,23.452 353.56,23.402 352.06,23.352 C350.1,23.282 348.14,23.192 346.18,23.122 C344.37,23.062 342.56,23.022 340.75,22.962 C337.79,22.862 334.84,22.752 331.88,22.672 C330.32,22.622 328.77,22.632 327.21,22.602 C325.73,22.572 324.25,22.492 322.77,22.462 C321.27,22.432 319.79,22.452 318.32,22.452 Z M53.91,38.562 C53.92,38.612 53.93,38.672 53.94,38.722 C64.13,35.932 74.39,33.482 84.73,31.292 C84.62,31.242 84.52,31.222 84.43,31.232 C82.11,31.532 79.78,31.822 77.46,32.152 C76,32.362 74.51,32.492 73.1,32.872 C68.55,34.112 64.03,35.442 59.51,36.772 C57.63,37.322 55.78,37.962 53.91,38.562 Z M55.6,41.312 C50.98,42.442 46.28,43.082 41.87,44.862 C41.88,44.912 41.89,44.962 41.9,45.022 C46.69,44.162 51.49,43.312 56.33,42.442 C56.06,42.022 55.86,41.712 55.6,41.312 Z M280.32,15.642 C287.35,15.642 294.39,15.642 300.36,15.642 C294.4,15.432 287.36,15.342 280.32,15.642 Z M305.24,15.742 C305.24,15.722 305.24,15.702 305.24,15.682 C304.35,15.682 303.45,15.682 302.56,15.682 C302.56,15.702 302.56,15.722 302.56,15.742 C303.45,15.742 304.35,15.742 305.24,15.742 Z M307.4,15.812 C307.39,15.822 307.38,15.842 307.37,15.852 C307.74,15.852 308.11,15.852 308.48,15.852 C308.48,15.842 308.48,15.822 308.48,15.812 C308.12,15.812 307.76,15.812 307.4,15.812 Z M310.62,15.822 C310.62,15.842 310.62,15.862 310.62,15.882 C310.95,15.882 311.29,15.882 311.62,15.882 C311.62,15.862 311.62,15.842 311.62,15.822 C311.29,15.822 310.95,15.822 310.62,15.822 Z M330.88,16.502 C330.88,16.482 330.88,16.452 330.88,16.432 C330.5,16.432 330.12,16.432 329.75,16.432 C329.75,16.452 329.75,16.482 329.75,16.502 C330.13,16.502 330.51,16.502 330.88,16.502 Z M189.22,25.642 C188.84,25.622 188.58,25.602 188.31,25.582 C188.31,25.622 188.31,25.662 188.31,25.702 C188.57,25.682 188.83,25.662 189.22,25.642 Z M325.96,16.272 C325.94,16.292 325.92,16.322 325.9,16.342 C326.17,16.342 326.44,16.342 326.7,16.342 C326.7,16.322 326.7,16.292 326.7,16.272 C326.45,16.272 326.21,16.272 325.96,16.272 Z M328.72,16.472 C328.71,16.442 328.71,16.422 328.7,16.392 C328.53,16.402 328.37,16.412 328.2,16.422 C328.2,16.442 328.2,16.452 328.2,16.472 C328.38,16.472 328.55,16.472 328.72,16.472 Z M314.42,16.012 C314.41,16.002 314.41,15.982 314.4,15.972 C314.28,15.972 314.17,15.972 314.05,15.972 C314.05,15.982 314.05,16.002 314.05,16.012 C314.18,16.012 314.3,16.012 314.42,16.012 Z M321.52,16.122 C321.52,16.142 321.52,16.172 321.52,16.192 C321.73,16.192 321.94,16.192 322.15,16.192 C322.15,16.172 322.15,16.142 322.15,16.122 C321.94,16.122 321.73,16.122 321.52,16.122 Z M317.12,16.042 C317.12,16.022 317.12,16.002 317.12,15.982 C316.94,15.982 316.76,15.982 316.58,15.982 C316.58,16.002 316.58,16.022 316.58,16.042 C316.76,16.042 316.94,16.042 317.12,16.042 Z" id="Shape"></path>
        </g>
    </g>
</svg>