<?xml version="1.0"?>
<svg xmlns="http://www.w3.org/2000/svg" xmlns:xlink="http://www.w3.org/1999/xlink" xmlns:svgjs="http://svgjs.com/svgjs" version="1.1" width="512" height="512" x="0" y="0" viewBox="0 0 512 512" style="enable-background:new 0 0 512 512" xml:space="preserve"><g><g xmlns="http://www.w3.org/2000/svg"><path d="m478.21 269.71c-9.919-.588-11.258 13.665-1.4 14.93 3.751.313 7.812-3.007 8.17-6.76.39-4.13-2.65-7.78-6.77-8.17z" fill="#ffffff" data-original="#000000" style=""/><path d="m468.21 323.67c3.658 1.037 8.206-1.51 9.24-5.19 1.119-3.99-1.21-8.13-5.2-9.25-3.98-1.12-8.12 1.21-9.24 5.2s1.21 8.13 5.2 9.24z" fill="#ffffff" data-original="#000000" style=""/><path d="m468.92 190.63c-4 1.07-6.37 5.19-5.29 9.19.987 3.716 5.509 6.263 9.18 5.3 4-1.08 6.38-5.19 5.3-9.19-1.07-4-5.19-6.37-9.19-5.3z" fill="#ffffff" data-original="#000000" style=""/><path d="m485.2 236.6c-.351-4.12-3.971-7.19-8.101-6.85-4.13.35-7.2 3.97-6.85 8.1.319 3.92 3.6 6.88 7.46 6.88 3.981 0 7.815-4.193 7.491-8.13z" fill="#ffffff" data-original="#000000" style=""/><path d="m372.738 215.072c0-23.573-15.727-43.542-37.238-49.966-7.547-38.187-58.074-47.814-79.5-15.799-21.439-32.03-71.97-22.368-79.5 15.801-21.487 6.423-37.212 26.367-37.236 49.91-.004 4.142 3.351 7.503 7.492 7.508h.008c4.139 0 7.496-3.353 7.5-7.492.021-20.454 16.679-37.095 37.133-37.095 9.148-.197 10.198-13.16 1.295-14.889 11.796-28.719 54.383-21.421 55.807 9.866-.007.313-.011.626-.011.94v164.29c0 .314.004.628.011.94-1.432 31.309-44.024 38.567-55.807 9.866 8.902-1.732 7.857-14.688-1.295-14.889-20.476 0-37.135-16.658-37.135-37.134v-41.975c-.344-9.931-14.66-9.923-15 0v41.975c0 23.573 15.728 43.542 37.239 49.967 7.543 38.188 58.075 47.813 79.5 15.799 21.44 32.031 71.965 22.367 79.5-15.799 21.512-6.425 37.238-26.394 37.238-49.966v-81.858zm-15 81.856c0 20.476-16.658 37.134-37.135 37.134-9.149.197-10.197 13.16-1.295 14.889-11.796 28.719-54.382 21.422-55.806-9.866.007-.313.011-.626.011-.94v-164.29c0-.314-.004-.628-.011-.94 1.433-31.309 44.019-38.566 55.806-9.866-8.902 1.732-7.857 14.688 1.295 14.889 20.476 0 37.135 16.658 37.135 37.134z" fill="#ffffff" data-original="#000000" style=""/><path d="m323.511 290.993c-23.938 0-43.412 19.474-43.412 43.412 0 4.142 3.357 7.5 7.5 7.5s7.5-3.358 7.5-7.5c0-15.666 12.746-28.412 28.412-28.412 9.914-.333 9.937-14.658 0-15z" fill="#ffffff" data-original="#000000" style=""/><path d="m188.489 305.993c15.666 0 28.412 12.746 28.412 28.412 0 4.142 3.357 7.5 7.5 7.5s7.5-3.358 7.5-7.5c0-23.938-19.475-43.412-43.412-43.412-9.922.343-9.932 14.654 0 15z" fill="#ffffff" data-original="#000000" style=""/><path d="m224.401 175.181c-4.143 0-7.5 3.358-7.5 7.5 0 15.667-12.746 28.412-28.412 28.412-4.143 0-7.5 3.358-7.5 7.5s3.357 7.5 7.5 7.5c23.938 0 43.412-19.475 43.412-43.412 0-4.142-3.357-7.5-7.5-7.5z" fill="#ffffff" data-original="#000000" style=""/><path d="m323.511 211.093c-15.666 0-28.412-12.746-28.412-28.412 0-4.142-3.357-7.5-7.5-7.5s-7.5 3.358-7.5 7.5c0 23.938 19.475 43.412 43.412 43.412 9.922-.343 9.932-14.654 0-15z" fill="#ffffff" data-original="#000000" style=""/><path d="m229.705 234.384c-2.93-2.929-7.678-2.929-10.607 0-11.919 11.919-11.919 31.313 0 43.232 6.858 6.856 17.465-3.749 10.607-10.606-6.071-6.071-6.071-15.949 0-22.02 2.929-2.928 2.929-7.677 0-10.606z" fill="#ffffff" data-original="#000000" style=""/><path d="m282.01 277.616c3.536 2.929 7.072 2.929 10.607 0 11.919-11.919 11.919-31.313 0-43.232-2.93-2.929-7.678-2.929-10.607 0s-2.929 7.678 0 10.606c6.071 6.071 6.071 15.949 0 22.02-2.929 2.929-2.929 7.678 0 10.606z" fill="#ffffff" data-original="#000000" style=""/><path d="m183 458.81c-3.891-1.41-8.19.61-9.601 4.5-1.409 3.9.601 8.2 4.5 9.61 3.617 1.29 8.277-.832 9.601-4.5 1.41-3.9-.601-8.2-4.5-9.61z" fill="#ffffff" data-original="#000000" style=""/><path d="m297.229 467.6c-4.069.79-6.729 4.72-5.93 8.79.724 3.754 5.076 6.625 8.79 5.93 4.07-.79 6.72-4.73 5.93-8.8-.79-4.06-4.729-6.72-8.79-5.92z" fill="#ffffff" data-original="#000000" style=""/><path d="m334.28 456.82c-3.86 1.51-5.761 5.87-4.25 9.72 1.425 3.64 6.124 5.646 9.72 4.25 3.859-1.52 5.76-5.87 4.25-9.73-1.521-3.85-5.87-5.75-9.72-4.24z" fill="#ffffff" data-original="#000000" style=""/><path d="m258.819 471.53c-4.14.06-7.449 3.46-7.399 7.6.05 4.11 3.399 7.4 7.5 7.4h.1c9.923-.468 9.731-14.785-.201-15z" fill="#ffffff" data-original="#000000" style=""/><path d="m220.319 468.6c-4.079-.69-7.949 2.07-8.63 6.16-.689 4.08 2.07 7.95 6.16 8.63 3.721.623 8.01-2.427 8.63-6.16.681-4.08-2.069-7.95-6.16-8.63z" fill="#ffffff" data-original="#000000" style=""/><path d="m36.56 300.65c4.185 0 8.103-4.57 7.41-8.74-.689-4.08-4.55-6.84-8.64-6.16-4.08.68-6.84 4.55-6.16 8.64.62 3.66 3.79 6.26 7.39 6.26z" fill="#ffffff" data-original="#000000" style=""/><path d="m26.02 253.23c-.05 4.14 3.261 7.54 7.41 7.59h.09c4.101 0 7.45-3.3 7.5-7.42.04-4.14-3.27-7.54-7.42-7.58-4.14-.05-7.531 3.27-7.58 7.41z" fill="#ffffff" data-original="#000000" style=""/><path d="m37.53 221.08c3.52 0 6.659-2.5 7.359-6.09.771-4.07-1.89-8-5.96-8.78-4.06-.78-7.99 1.88-8.78 5.95-.808 4.225 3.133 8.92 7.381 8.92z" fill="#ffffff" data-original="#000000" style=""/><path d="m51.27 168.19c-3.87-1.5-8.21.42-9.71 4.28-1.78 4.581 2.228 10.22 6.99 10.22 3.01 0 5.84-1.82 7-4.79 1.49-3.87-.42-8.21-4.28-9.71z" fill="#ffffff" data-original="#000000" style=""/><path d="m46.68 339.3c4.692 0 8.679-5.512 7.05-10.05-1.399-3.9-5.699-5.92-9.6-4.51-3.9 1.4-5.92 5.7-4.51 9.6 1.1 3.06 3.98 4.96 7.06 4.96z" fill="#ffffff" data-original="#000000" style=""/><path d="m177.93 54.57c4.731 0 8.724-5.578 7.021-10.14-1.46-3.88-5.79-5.84-9.66-4.38v-.01c-3.88 1.46-5.84 5.79-4.38 9.66 1.129 3.01 3.979 4.87 7.019 4.87z" fill="#ffffff" data-original="#000000" style=""/><path d="m216.43 43.96c4.212 0 8.143-4.625 7.39-8.82-.729-4.08-4.63-6.79-8.71-6.06-4.079.74-6.79 4.63-6.05 8.71.65 3.63 3.81 6.17 7.37 6.17z" fill="#ffffff" data-original="#000000" style=""/><path d="m256.22 40.45h.01c9.934-.338 9.918-14.658.011-15-9.942.324-9.935 14.641-.021 15z" fill="#ffffff" data-original="#000000" style=""/><path d="m294.67 43.93c3.716.661 8.039-2.31 8.72-6.04.74-4.08-1.96-7.98-6.03-8.72-4.079-.74-7.989 1.96-8.729 6.03-.741 4.08 1.959 7.98 6.039 8.73z" fill="#ffffff" data-original="#000000" style=""/><path d="m331.85 54.24c3.603 1.367 8.289-.724 9.67-4.36 1.46-3.87-.489-8.2-4.37-9.67-3.869-1.46-8.199.49-9.659 4.37-1.471 3.87.479 8.2 4.359 9.66z" fill="#ffffff" data-original="#000000" style=""/><path d="m482.636 388.042c-4.092.642-6.89 4.479-6.248 8.571 2.308 14.725-2.272 30.109-12.252 41.151-4.736 5.242-7.23 11.98-7.032 18.989-.057 9.383-7.707 16.998-17.103 16.998h-5.397v-44.464h10.143c4.143 0 7.5-3.358 7.5-7.5s-3.357-7.5-7.5-7.5h-35.285c-4.143 0-7.5 3.358-7.5 7.5s3.357 7.5 7.5 7.5h10.143v44.464h-5.396c-9.407 0-17.064-7.633-17.103-17.031.137-7.097-2.309-13.771-6.894-18.802-17.977-19.02-17.077-51.374 2.043-69.282 9.7-9.467 22.488-14.516 36.092-14.171 11.443.277 22.567 4.603 31.323 12.181 3.134 2.71 7.87 2.369 10.579-.764 2.711-3.132 2.369-7.868-.763-10.579-11.382-9.849-25.862-15.472-40.776-15.833-17.646-.43-34.315 6.119-46.933 18.433-24.871 23.293-26.034 65.38-2.653 90.118 1.969 2.161 3.057 5.244 2.983 8.458-.075 12.267 6.815 23.017 16.935 28.458-5.678 12.391 3.836 27.063 17.396 27.063h21.33c13.494 0 23.112-14.591 17.398-27.063 10.141-5.45 17.046-16.25 16.933-28.54-.106-3.154 1.018-6.2 3.165-8.576 12.983-14.367 18.943-34.378 15.941-53.531-.64-4.092-4.47-6.888-8.569-6.248zm-44.867 108.958h-21.33c-5.331 0-5.331-8.249 0-8.249h21.33c5.332 0 5.332 8.249 0 8.249z" fill="#ffffff" data-original="#000000" style=""/><path d="m511.82 72.018c-.026-2.99-1.826-5.679-4.581-6.843l-12.983-5.486c-.916-2.467-1.971-4.885-3.155-7.234l5.171-13.251c1.088-2.786.416-5.951-1.709-8.056l-14.507-14.367c-2.137-2.116-5.334-2.75-8.116-1.613l-13.098 5.357c-2.346-1.151-4.757-2.171-7.214-3.054l-5.644-12.965c-1.192-2.737-3.893-4.506-6.877-4.506h-.035l-20.336.096c-3.017.014-5.731 1.834-6.89 4.62l-4.994 12.007c-3.015.986-5.955 2.183-8.794 3.581l-11.932-4.733c-2.806-1.114-6.001-.437-8.114 1.714l-14.252 14.501c-2.103 2.139-2.729 5.324-1.593 8.099l4.89 11.945c-1.361 2.879-2.519 5.858-3.463 8.91l-11.887 5.173c-2.759 1.201-4.533 3.934-4.507 6.943l.18 20.413c.026 2.99 1.826 5.679 4.581 6.843l12.983 5.486c.916 2.466 1.971 4.883 3.156 7.234l-5.172 13.252c-1.088 2.786-.416 5.951 1.709 8.056l14.507 14.367c2.137 2.115 5.33 2.751 8.116 1.613l13.099-5.357c2.346 1.151 4.756 2.172 7.214 3.054l5.643 12.964c1.191 2.738 3.893 4.507 6.877 4.507h.035l20.336-.096c3.017-.014 5.73-1.834 6.89-4.619l4.995-12.007c3.015-.986 5.955-2.183 8.793-3.581l11.933 4.733c2.805 1.111 6 .436 8.114-1.714l14.253-14.502c2.103-2.139 2.729-5.324 1.593-8.099l-4.89-11.945c1.36-2.878 2.518-5.857 3.462-8.91l11.887-5.173c2.759-1.201 4.533-3.934 4.507-6.943zm-25.467 20.198c-2.137.93-3.72 2.801-4.284 5.062-1.07 4.292-2.672 8.426-4.759 12.285-1.069 1.977-1.195 4.329-.345 6.409l4.314 10.539-7.3 7.428-10.512-4.17c-2.104-.834-4.472-.673-6.444.436-3.812 2.146-7.902 3.807-12.155 4.937-2.255.599-4.103 2.214-4.999 4.368l-4.453 10.705-10.418.049-5.008-11.506c-.878-2.017-2.598-3.547-4.703-4.185-3.775-1.143-7.438-2.698-10.889-4.623-2.134-1.118-4.298-1.249-6.492-.392l-11.731 4.798-7.481-7.409 4.638-11.886c.824-2.11.649-4.479-.474-6.446-1.967-3.443-3.567-7.103-4.757-10.878-.661-2.097-2.209-3.798-4.234-4.654l-11.53-4.872-.093-10.525 10.605-4.615c2.137-.93 3.721-2.801 4.284-5.063 1.069-4.289 2.67-8.421 4.759-12.284 1.069-1.977 1.195-4.329.345-6.409l-4.314-10.539 7.3-7.428 10.511 4.17c2.103.835 4.472.676 6.444-.435 3.813-2.146 7.904-3.808 12.156-4.938 2.255-.599 4.103-2.214 4.999-4.368l4.452-10.705 10.418-.049 5.009 11.506c.878 2.017 2.598 3.547 4.703 4.185 3.774 1.143 7.438 2.698 10.888 4.623 1.992 1.111 4.382 1.255 6.492.392l11.731-4.798 7.482 7.409-4.639 11.886c-.824 2.11-.649 4.48.475 6.448 1.965 3.438 3.565 7.098 4.756 10.877.661 2.097 2.209 3.798 4.234 4.654l11.53 4.872.093 10.525z" fill="#ffffff" data-original="#000000" style=""/><path d="m429.077 46.227c-.082 0-.164 0-.246.001-9.419.064-18.242 3.799-24.844 10.516-13.643 13.88-13.454 36.35.419 50.088 6.741 6.68 15.68 10.326 25.133 10.259 9.419-.063 18.243-3.798 24.846-10.517 21.866-22.139 5.831-60.473-25.308-60.347zm14.609 49.834c-3.786 3.853-8.846 5.994-14.248 6.031-5.477.011-10.587-2.064-14.477-5.917-8.019-7.941-8.143-20.912-.275-28.916 3.785-3.852 8.846-5.994 14.247-6.031 18.021-.192 27.395 22.043 14.753 34.833z" fill="#ffffff" data-original="#000000" style=""/><path d="m159.358 421.503h-8.2c-3.475-31.952-28.887-57.404-60.792-60.889v-7.108c0-4.142-3.357-7.5-7.5-7.5s-7.5 3.358-7.5 7.5v7.108c-31.905 3.485-57.318 28.937-60.793 60.889h-7.073c-4.143 0-7.5 3.358-7.5 7.5s3.357 7.5 7.5 7.5h7.073c3.436 31.595 29.16 57.479 60.793 60.894v7.103c0 4.142 3.357 7.5 7.5 7.5s7.5-3.358 7.5-7.5v-7.104c31.624-3.424 57.355-29.29 60.792-60.893h8.2c9.929-.342 9.926-14.659 0-15zm-87.465 16.562c-3.79-3.377-5.807-8.232-5.531-13.319.446-8.239 7.228-15.092 15.438-15.602 15.567-.861 23.73 18.51 12.039 28.921-4.354 3.881-2.474 10.824 2.375 12.628 9.41 3.501 16.972 10.466 21.245 19.424-19.895 16.827-49.259 16.849-69.178.007 4.278-8.882 11.955-15.978 21.238-19.431 4.849-1.804 6.729-8.748 2.374-12.628zm56.079 20.1c-4.421-7.017-10.413-12.9-17.53-17.192 12.17-21.341-5.168-48.431-29.571-46.8-15.945.99-28.622 13.784-29.487 29.762-.327 6.043 1.051 11.917 3.893 17.042-7.122 4.292-13.105 10.168-17.519 17.182-23.055-35.083 2.849-83.208 45.111-82.952 42.257-.258 68.167 47.883 45.103 82.958z" fill="#ffffff" data-original="#000000" style=""/><path d="m7.5 142.329h145.895c4.143 0 7.5-3.358 7.5-7.5v-49.663c0-4.142-3.357-7.5-7.5-7.5h-41.132v-70.166c0-4.142-3.357-7.5-7.5-7.5h-48.631c-4.143 0-7.5 3.358-7.5 7.5v40.688h-41.132c-4.143 0-7.5 3.358-7.5 7.5v79.142c0 4.141 3.357 7.499 7.5 7.499zm138.395-49.663v34.663h-33.632v-34.663zm-82.263-77.666h33.631v112.329h-33.631zm-48.632 48.188h33.632v64.142h-33.632z" fill="#ffffff" data-original="#000000" style=""/></g></g></svg>
