<svg id="Capa_1" enable-background="new 0 0 512 512" height="512" viewBox="0 0 512 512" width="512" xmlns="http://www.w3.org/2000/svg" xmlns:xlink="http://www.w3.org/1999/xlink"><linearGradient id="SVGID_1_" gradientUnits="userSpaceOnUse" x1="256" x2="256" y1="421" y2="91"><stop offset="0" stop-color="#fd3a84"/><stop offset="1" stop-color="#ffa68d"/></linearGradient><g><g><path d="m497 91h-482c-8.206 0-15 6.729-15 15v300c0 8.284 6.716 15 15 15h482c8.284 0 15-6.716 15-15v-300c0-8.351-6.87-15-15-15zm-40.047 30-200.953 175.105-200.953-175.105zm25.047 270h-452v-252.033l216.146 188.343c2.824 2.46 6.338 3.69 9.854 3.69s7.03-1.23 9.854-3.691l216.146-188.342z" fill="url(#SVGID_1_)"/></g></g></svg>