<?xml version="1.0" standalone="no"?>
<!DOCTYPE svg PUBLIC "-//W3C//DTD SVG 20010904//EN"
 "http://www.w3.org/TR/2001/REC-SVG-20010904/DTD/svg10.dtd">
<svg version="1.0" xmlns="http://www.w3.org/2000/svg"
 width="776.000000pt" height="776.000000pt" viewBox="0 0 776.000000 776.000000"
 preserveAspectRatio="xMidYMid meet">
<metadata>
Created by potrace 1.14, written by Peter Selinger 2001-2017
</metadata>
<g transform="translate(0.000000,776.000000) scale(0.100000,-0.100000)"
fill="#000000" stroke="none">
<path d="M334 7716 l-39 -34 -3 -3794 -2 -3795 23 -34 c12 -18 34 -39 47 -46
20 -10 743 -13 3524 -13 l3498 0 29 21 c16 11 36 34 44 49 13 26 15 478 13
3819 l-3 3791 -33 32 -32 33 -3513 3 -3514 2 -39 -34z m6854 -226 l42 0 0
-1579 0 -1579 -112 40 c-62 22 -117 41 -123 42 -5 2 -17 6 -25 9 -52 21 -172
56 -210 62 -25 4 -48 9 -51 11 -13 7 -200 18 -329 18 -176 0 -321 -15 -435
-46 -22 -5 -44 -11 -50 -13 -5 -1 -23 -7 -40 -14 -16 -6 -50 -19 -75 -28 -25
-10 -47 -20 -50 -24 -3 -3 -21 -14 -40 -24 -75 -38 -182 -139 -240 -225 -53
-79 -98 -171 -107 -220 -2 -13 -9 -30 -15 -37 -6 -7 -8 -13 -5 -13 3 0 2 -14
-3 -30 -23 -78 -34 -342 -18 -410 3 -14 9 -38 13 -55 33 -133 149 -286 292
-383 68 -46 222 -126 283 -147 5 -2 23 -9 85 -32 22 -9 54 -19 70 -23 17 -5
57 -16 90 -25 61 -17 83 -23 120 -30 11 -3 76 -19 145 -36 69 -17 130 -32 135
-33 20 -4 91 -29 125 -43 19 -8 46 -20 60 -25 58 -23 213 -109 230 -128 3 -3
22 -18 43 -33 70 -53 130 -122 163 -189 18 -38 31 -68 29 -68 -2 0 3 -20 10
-45 14 -45 15 -275 1 -340 -38 -189 -104 -304 -230 -399 -52 -39 -193 -110
-242 -122 -16 -4 -33 -9 -39 -13 -5 -3 -14 -6 -20 -7 -5 -2 -44 -9 -85 -18
-111 -23 -204 -32 -321 -31 -261 3 -495 83 -846 288 l-113 65 0 -112 0 -112
88 -51 c240 -142 418 -207 642 -237 25 -3 56 -8 70 -11 14 -2 58 -6 98 -9 40
-3 77 -8 82 -11 5 -3 11 -1 15 5 4 6 11 7 17 4 8 -5 140 -9 158 -4 3 1 25 3
49 6 25 2 56 7 70 10 14 2 40 7 58 9 17 3 43 9 57 15 14 5 26 7 26 4 0 -2 14
2 30 11 17 9 30 13 30 10 0 -4 6 -3 13 2 6 4 14 8 17 9 27 5 168 73 235 113
58 34 128 85 160 117 13 14 15 -41 15 -525 0 -426 -3 -541 -12 -541 -7 -1
-1515 -2 -3351 -3 l-3337 -2 0 3617 0 3618 303 2 c212 2 5496 0 6355 -2z
m-588 -3170 c0 -3 17 -6 37 -8 20 -1 46 -4 57 -7 12 -2 35 -7 51 -10 101 -19
473 -158 481 -179 2 -6 3 -370 2 -808 l-3 -797 -40 37 c-103 98 -273 189 -475
256 -93 30 -196 61 -240 72 -21 5 -172 44 -190 49 -8 2 -34 9 -57 15 -105 25
-331 109 -363 135 -8 6 -30 17 -47 25 -18 7 -33 16 -33 21 0 4 -9 11 -20 14
-12 4 -51 37 -88 73 -115 115 -153 225 -147 429 6 206 62 360 166 463 71 70
75 73 151 114 91 49 196 83 316 102 20 3 39 7 40 9 6 6 402 1 402 -5z"/>
<path d="M3119 4370 c-18 -47 -36 -96 -42 -110 -6 -14 -18 -45 -27 -70 -69
-184 -132 -348 -139 -365 -6 -11 -29 -72 -52 -135 -24 -63 -46 -117 -49 -120
-3 -3 -6 -13 -8 -23 -3 -15 -56 -159 -97 -262 -5 -11 -9 -22 -10 -25 -7 -19
-18 -49 -28 -70 -6 -14 -11 -28 -13 -32 -1 -5 -3 -10 -4 -13 -1 -3 -3 -8 -5
-12 -1 -5 -7 -21 -13 -36 -7 -16 -12 -33 -12 -39 0 -5 -6 -22 -14 -36 -8 -15
-38 -90 -67 -167 -103 -276 -180 -480 -189 -500 -6 -11 -32 -81 -60 -155 -28
-74 -54 -144 -59 -155 -4 -11 -18 -45 -29 -75 -12 -30 -27 -68 -33 -85 -7 -16
-13 -34 -15 -40 -3 -12 -71 -188 -87 -225 -5 -14 -11 -28 -11 -32 -1 -3 -4
-10 -8 -14 -5 -4 -8 -17 -8 -29 0 -11 -4 -25 -9 -31 -4 -5 -21 -45 -36 -89
-16 -44 -32 -84 -35 -90 -6 -8 -30 -72 -35 -95 -1 -3 -7 -18 -14 -35 -18 -42
-41 -106 -41 -114 0 -4 53 -7 117 -6 l117 0 13 33 c7 17 10 32 6 32 -5 0 -3 4
2 8 6 4 59 138 119 297 115 307 132 351 172 455 14 36 34 90 45 120 21 60 40
102 51 110 9 8 1553 4 1565 -3 6 -4 13 -17 16 -29 3 -13 26 -77 52 -143 26
-66 48 -124 49 -130 2 -5 8 -21 14 -35 6 -14 20 -50 31 -80 11 -30 40 -107 64
-170 25 -63 73 -191 108 -285 34 -93 65 -172 67 -175 2 -3 59 -5 128 -6 119 0
124 1 124 20 0 12 -7 30 -15 40 -8 11 -15 28 -15 37 0 10 -6 30 -14 46 -8 15
-26 57 -39 93 -14 36 -47 121 -73 190 -27 69 -49 130 -50 135 -2 6 -20 55 -42
110 -21 55 -65 168 -96 250 -32 83 -78 201 -102 263 -24 62 -44 118 -44 125 0
7 -4 17 -8 23 -5 5 -21 43 -36 84 -15 41 -32 84 -36 95 -5 11 -32 81 -60 155
-28 74 -68 178 -88 230 -20 52 -37 97 -38 100 0 3 -6 19 -13 35 -60 150 -73
185 -75 197 -2 7 -8 24 -14 38 -5 14 -40 104 -77 200 -36 96 -70 184 -75 195
-5 11 -34 88 -65 170 -32 83 -64 163 -71 179 -8 16 -14 36 -14 46 0 9 -4 20
-8 25 -5 6 -30 69 -57 140 -26 72 -52 134 -57 140 -5 5 -73 10 -153 10 l-144
1 -32 -86z m219 -253 c19 -50 44 -119 57 -152 13 -33 49 -130 80 -215 31 -85
60 -164 65 -175 5 -11 23 -58 41 -105 17 -47 41 -112 54 -145 13 -33 76 -202
140 -375 64 -173 123 -328 130 -345 7 -16 20 -52 30 -80 9 -27 21 -59 26 -70
4 -11 17 -44 28 -72 l19 -53 -718 0 -718 1 60 152 c33 84 61 159 63 167 2 8
37 98 76 200 40 102 72 191 72 198 0 6 4 12 9 12 4 0 8 5 8 12 0 7 21 66 46
133 69 180 116 301 189 495 36 96 70 184 74 195 5 11 19 47 31 80 12 33 26 69
31 80 33 77 56 145 51 149 -3 3 1 6 9 6 9 0 27 -36 47 -93z"/>
</g>
</svg>
