<svg width="18" height="18" viewBox="0 0 18 18" fill="none" xmlns="http://www.w3.org/2000/svg">
<path d="M17.4424 13.5595L17.9416 14.5686C18.0787 14.8463 17.9662 15.1838 17.6885 15.3209L15.3856 16.4776C14.823 16.7589 14.1339 16.5198 13.8667 15.9468L11.6622 11.2496H6.75052C6.1915 11.2496 5.71685 10.8383 5.63598 10.2828C4.4441 1.94322 4.51441 2.46005 4.50035 2.2491C4.50035 0.969336 5.56567 -0.0572852 6.85952 0.00248382C8.03031 0.0552212 8.96906 1.01856 9.0007 2.18933C9.03234 3.34603 8.18501 4.31289 7.08102 4.47462L7.24275 5.62429H11.8134C12.1228 5.62429 12.376 5.87743 12.376 6.18682V7.31189C12.376 7.62128 12.1228 7.87442 11.8134 7.87442H7.56621L7.72794 8.99948H12.376C12.8119 8.99948 13.2092 9.25262 13.3956 9.6464L15.4172 13.9498L16.69 13.3064C16.9677 13.1657 17.3053 13.2818 17.4424 13.5595ZM10.9485 12.3747H10.0871C9.81287 14.2803 8.17095 15.7499 6.18798 15.7499C4.01516 15.7499 2.25017 13.9849 2.25017 11.8121C2.25017 10.3531 3.04828 9.07683 4.22963 8.39476C4.09954 7.48065 3.99054 6.71068 3.89562 6.06377C1.61731 6.97788 0 9.21043 0 11.8121C0 15.2225 2.77756 18 6.18798 18C8.71591 18 10.8923 16.4776 11.8521 14.3013L10.9485 12.3747Z" fill="black"/>
</svg>
