<svg width="19" height="18" viewBox="0 0 24 23" fill="none" xmlns="http://www.w3.org/2000/svg">
<path d="M9.21101 17.3622C4.13262 17.3622 0 13.4682 0 8.68108C0 3.89391 4.13262 0 9.21101 0C14.2894 0 18.422 3.89486 18.422 8.68108C18.422 13.4673 14.2904 17.3622 9.21101 17.3622ZM9.21101 2.96457C5.86604 2.96457 3.14554 5.5295 3.14554 8.68108C3.14554 11.8327 5.86705 14.3976 9.21101 14.3976C12.555 14.3976 15.2775 11.8327 15.2775 8.68108C15.2775 5.5295 12.556 2.96457 9.21101 2.96457ZM18.5409 14.7763C17.718 15.8927 16.6755 16.8533 15.4729 17.6061L20.9642 22.7825L24 19.9223L18.5409 14.7763Z" fill="white"/>
</svg>
