<svg width="28" height="28" viewBox="0 0 65 54" fill="none" xmlns="http://www.w3.org/2000/svg">
<path d="M58.3187 13.4578C58.3599 14.0484 58.36 14.6391 58.36 15.2297C58.36 33.2437 44.9558 54 20.4569 54C12.9093 54 5.89788 51.764 0 47.8829C1.07238 48.0094 2.10337 48.0516 3.21701 48.0516C9.44472 48.0516 15.1777 45.9001 19.7558 42.2297C13.8991 42.1031 8.99111 38.1797 7.30009 32.7797C8.12503 32.9062 8.94985 32.9906 9.81605 32.9906C11.0121 32.9906 12.2082 32.8218 13.3218 32.5266C7.21769 31.2609 2.63949 25.7765 2.63949 19.1531V18.9844C4.41291 19.9969 6.47527 20.6297 8.66103 20.714C5.07281 18.2671 2.72201 14.0906 2.72201 9.36553C2.72201 6.83433 3.38179 4.51401 4.53669 2.489C11.0945 10.7577 20.9518 16.1577 32.005 16.7484C31.7988 15.7359 31.6751 14.6813 31.6751 13.6266C31.6751 6.11712 37.6142 0 44.9968 0C48.8325 0 52.2969 1.64531 54.7303 4.30312C57.7411 3.71253 60.6281 2.57341 63.1853 1.01251C62.1953 4.17664 60.092 6.83446 57.3287 8.52184C60.0096 8.22667 62.6079 7.46713 65 6.41255C63.1856 9.11244 60.917 11.517 58.3187 13.4578Z" fill="black"/>
</svg>
