<svg width="43" height="43" viewBox="0 0 43 43" fill="none" xmlns="http://www.w3.org/2000/svg">
<circle cx="21.5" cy="21.5" r="21.5" fill="#fff"/>
<g clip-path="url(#clip0)">
<path d="M31.2595 16.4965C31.2751 16.7147 31.2751 16.933 31.2751 17.1513C31.2751 23.8086 26.2081 31.4794 16.947 31.4794C14.0938 31.4794 11.4434 30.6531 9.21387 29.2187C9.61925 29.2655 10.009 29.2811 10.43 29.2811C12.7842 29.2811 14.9513 28.486 16.682 27.1296C14.468 27.0828 12.6127 25.6328 11.9734 23.6371C12.2853 23.6839 12.5971 23.7151 12.9245 23.7151C13.3767 23.7151 13.8288 23.6527 14.2498 23.5436C11.9423 23.0758 10.2116 21.049 10.2116 18.6012V18.5389C10.882 18.9131 11.6617 19.147 12.4879 19.1781C11.1315 18.2738 10.2428 16.7303 10.2428 14.9841C10.2428 14.0487 10.4923 13.1912 10.9288 12.4428C13.4078 15.4986 17.1341 17.4942 21.3124 17.7126C21.2345 17.3384 21.1877 16.9486 21.1877 16.5588C21.1877 13.7836 23.4328 11.5229 26.2236 11.5229C27.6735 11.5229 28.9832 12.131 29.9031 13.1132C31.0412 12.895 32.1325 12.474 33.0992 11.8971C32.725 13.0665 31.9299 14.0487 30.8853 14.6723C31.8987 14.5632 32.881 14.2825 33.7852 13.8928C33.0993 14.8906 32.2418 15.7792 31.2595 16.4965Z" fill="black"/>
</g>
<defs>
<clipPath id="clip0">
<rect width="24.5714" height="24.5714" fill="white" transform="translate(9.21387 9.21436)"/>
</clipPath>
</defs>
</svg>
