<svg width="44" height="43" viewBox="0 0 44 43" fill="none" xmlns="http://www.w3.org/2000/svg">
<circle cx="21.8037" cy="21.5" r="21.5" fill="#fff"/>
<g clip-path="url(#clip0)">
<path d="M33.0011 15.9605C32.7415 14.9674 31.9767 14.1853 31.0057 13.9198C29.2456 13.4375 22.188 13.4375 22.188 13.4375C22.188 13.4375 15.1304 13.4375 13.3703 13.9198C12.3993 14.1853 11.6345 14.9674 11.3749 15.9605C10.9033 17.7606 10.9033 21.5163 10.9033 21.5163C10.9033 21.5163 10.9033 25.272 11.3749 27.0721C11.6345 28.0652 12.3993 28.8147 13.3703 29.0802C15.1304 29.5625 22.188 29.5625 22.188 29.5625C22.188 29.5625 29.2456 29.5625 31.0057 29.0802C31.9767 28.8147 32.7415 28.0652 33.0011 27.0721C33.4727 25.272 33.4727 21.5163 33.4727 21.5163C33.4727 21.5163 33.4727 17.7606 33.0011 15.9605ZM19.8797 24.9262V18.1064L25.7785 21.5164L19.8797 24.9262Z" fill="black"/>
</g>
<defs>
<clipPath id="clip0">
<rect width="23.8036" height="21.5" fill="white" transform="translate(10.2861 10.75)"/>
</clipPath>
</defs>
</svg>
