<svg data-v-423bf9ae="" xmlns="http://www.w3.org/2000/svg" viewBox="0 0 NaN NaN" class="iconAbove"><!----><!----><!----><g data-v-423bf9ae="" id="8191efb9-90d8-4b5a-8100-bd6b0cf44ee7" fill="#ECEBE7" transform="matrix(Infinity,0,0,Infinity,0,0)"><path d=""></path></g><!----><g data-v-423bf9ae="" id="ca1f7238-ffe0-4107-9815-03ee08ce3761" transform="matrix(1.2259690331742286,0,0,1.2259690331742286,-10.393528622820888,-9.874412931919437)" stroke="none" fill="#441D4F"><defs><style>.a{fill:none}</style></defs><path class="a" d="M49.762 56.66a3.819 3.819 0 0 1-.541 1.95 12.906 12.906 0 0 0 3.25-1.95 12.956 12.956 0 0 0-3.25-1.95 3.82 3.82 0 0 1 .54 1.95z"></path><path class="a" d="M51.706 48.24a1.63 1.63 0 0 0-1.225-.013.258.258 0 0 1-.203.015.252.252 0 0 1-.147-.138l-4.147-9.932-4.256 10.192-.246-.139a1.622 1.622 0 0 0-1.22.016c-1.06.352-2.727 1.635-4.656 5.744-1.164 2.484-3.366 6.422-5.038 9.341a18.247 18.247 0 0 0 15.504 8.743 18.029 18.029 0 0 0 15.415-8.596c-2.144-3.735-4.061-7.217-5.127-9.488-1.927-4.11-3.594-5.392-4.654-5.744zm1.318 8.602a11.64 11.64 0 0 1-7.1 2.96 11.64 11.64 0 0 1-7.1-2.96l-.196-.183.195-.182a11.64 11.64 0 0 1 7.1-2.96 11.64 11.64 0 0 1 7.101 2.96l.196.182z"></path><circle class="a" cx="46.413" cy="24.794" r="1.372"></circle><path class="a" d="M48.415 54.438a7.96 7.96 0 0 0-4.982 0 3.336 3.336 0 0 0 0 4.442 7.973 7.973 0 0 0 4.982 0 3.336 3.336 0 0 0 0-4.442zm-2.491 2.994a.773.773 0 1 1 .772-.773.773.773 0 0 1-.772.773z"></path><path class="a" d="M42.627 54.709a12.903 12.903 0 0 0-3.251 1.95 12.957 12.957 0 0 0 3.25 1.95 3.785 3.785 0 0 1 .001-3.9zM68.526 66.739l-1.704-.949.121-.219c.112-.2.223-.405.328-.612l.116-.223 1.736.899a25.616 25.616 0 0 0 1.331-3.11l-1.869-.623.08-.237c.072-.22.144-.444.21-.665l.072-.238 1.895.57a25.882 25.882 0 0 0 .75-3.305l-1.992-.275.034-.248c.032-.228.061-.46.085-.69l.026-.25 2.012.217a26.208 26.208 0 0 0 .155-2.85v-.506h-2.058v-1.236h2.058v-3.283h-2.058V47.67h2.058v-3.283h-2.058v-1.235h2.058v-3.283h-2.058v-1.16h2.058v-3.536H64.71v18.759a18.527 18.527 0 0 1-.981 5.97c-.07.208-.192.492-.304.751l-.117.278 3.738 8.087a25.822 25.822 0 0 0 1.48-2.28zM45.924 35.592a5.002 5.002 0 0 1-.627-.063l.973 2.03L50.5 47.69a2.339 2.339 0 0 1 1.328.065c1.16.37 2.967 1.715 4.985 6.018 2.535 5.403 9.922 17.713 13.675 23.883l-20.43-44.205a5.079 5.079 0 0 1-4.134 2.141zM48.285 24.794a1.862 1.862 0 0 1-.32 1.044 5.027 5.027 0 0 1 2.345 2.094l9.168-19.137h-5.732l-6.84 14.2a1.87 1.87 0 0 1 1.38 1.799zM44.714 25.566a1.84 1.84 0 0 1 .52-2.213L38.22 8.795h-5.73l9.117 19.033a5.078 5.078 0 0 1 3.106-2.262zM30.279 62.824c1.648-2.883 3.75-6.652 4.874-9.05 2.02-4.305 3.826-5.65 4.987-6.02a2.347 2.347 0 0 1 1.327-.064l4.246-10.136-1.009-2.104c-.003-.007.002-.015-.001-.022a5.082 5.082 0 0 1-2.837-1.883l-12.58 27.218c.19.467.389.933.615 1.378.119.232.25.456.378.683zM25.706 70.638l-.132-.16 1.502-1.242-.134-.166-1.538 1.198-.153-.198c-.057-.073-.106-.152-.162-.226l-3.614 7.821a887.424 887.424 0 0 0 4.231-7.027z"></path><path class="a" d="M45.924 35.092a4.593 4.593 0 0 0 1.787-8.823l-.096-.052a1.857 1.857 0 0 1-.834.412l-.33 1.188a.251.251 0 0 1-.242.183.246.246 0 0 1-.067-.01.25.25 0 0 1-.174-.307l.287-1.033a1.845 1.845 0 0 1-.39-.076l-.272.975a.251.251 0 0 1-.241.183.246.246 0 0 1-.068-.009.25.25 0 0 1-.174-.307l.293-1.051a1.875 1.875 0 0 1-.407-.363 4.592 4.592 0 0 0 .928 9.09zM27.028 68.37l.155.196c.142.184.29.367.436.545l.16.192-1.5 1.24c.485.577.995 1.134 1.522 1.66q.4.4.814.778l1.303-1.451.186.167c.171.155.348.308.525.458l.191.161-1.262 1.49a26.127 26.127 0 0 0 2.73 1.99l1.028-1.669.213.13c.198.122.399.242.599.358l.216.124-.98 1.702a25.67 25.67 0 0 0 3.045 1.47l.716-1.841.233.09c.215.084.434.166.654.243l.235.084-.662 1.865a25.783 25.783 0 0 0 3.262.893l.376-1.948.245.047c.226.043.457.084.687.122l.247.04-.318 1.96a26.154 26.154 0 0 0 3.368.296l.028-1.987.25.003c.231.004.466.004.699 0l.25-.004.028 1.988a26.14 26.14 0 0 0 3.368-.299l-.32-1.959.247-.04c.229-.038.46-.079.686-.123l.246-.047.376 1.949a25.715 25.715 0 0 0 3.262-.895l-.663-1.864.236-.084c.217-.078.437-.16.653-.243l.233-.091.715 1.84a25.535 25.535 0 0 0 3.045-1.47l-.981-1.702.216-.125c.203-.116.404-.236.6-.357l.212-.132 1.03 1.67a26.013 26.013 0 0 0 2.73-1.992l-1.263-1.49.191-.162c.177-.149.354-.304.526-.459l.185-.167 1.304 1.452q.409-.376.803-.769c.557-.557.911-.93 1.382-1.492a566.965 566.965 0 0 1-3.959-6.752 18.518 18.518 0 0 1-15.695 8.61 18.753 18.753 0 0 1-16.011-9.107q-.32-.536-.605-1.094a18.807 18.807 0 0 1-.774-1.732 18.516 18.516 0 0 1-1.246-6.704V35.173h-7.204v3.51h2.059v1.186h-2.059v3.297h2.059v1.235h-2.059v3.284h2.059v1.235h-2.059v3.283h2.059v1.235h-2.059v.494a26.537 26.537 0 0 0 .157 2.863l2.012-.217.027.25c.023.227.052.459.085.689l.034.248-1.991.274a25.78 25.78 0 0 0 .75 3.303l1.895-.57.073.239c.067.222.138.446.21.664l.08.238-1.869.623a25.575 25.575 0 0 0 1.332 3.109l1.735-.898.115.221c.107.207.219.413.33.614l.121.219-1.704.948a25.817 25.817 0 0 0 1.87 2.816z"></path><path d="M19.22 81.35l.44.236c.03-.048 2.996-4.85 6.39-10.55.45.525.914 1.038 1.397 1.52q.498.498 1.019.965l.185.168 1.305-1.454.16.139-1.263 1.491.19.162a26.58 26.58 0 0 0 3.194 2.328l.213.132 1.03-1.673.182.108-.98 1.703.215.125a26.096 26.096 0 0 0 3.563 1.719l.233.091.717-1.844.2.074-.664 1.866.236.084a26.25 26.25 0 0 0 3.815 1.045l.246.048.376-1.952.21.037-.32 1.96.248.041a26.599 26.599 0 0 0 3.937.348l.25.003.028-1.99c.071.002.142 0 .215 0l.028 1.99.25-.003a26.734 26.734 0 0 0 3.938-.35l.246-.04-.32-1.961.208-.037.377 1.952.246-.048a26.154 26.154 0 0 0 3.816-1.048l.235-.084-.663-1.865.198-.074.716 1.844.233-.092a26.06 26.06 0 0 0 3.564-1.72l.215-.125-.982-1.703.183-.108 1.031 1.672.213-.132a26.514 26.514 0 0 0 3.193-2.33l.19-.162-1.263-1.49.16-.14 1.306 1.454.185-.168q.516-.464 1.007-.955c.513-.513.871-.889 1.3-1.392 3.364 5.647 6.25 10.325 6.31 10.421a.25.25 0 0 0 .44-.236l-5.458-11.808a26.176 26.176 0 0 0 1.797-2.777l.123-.22-1.708-.95.1-.185 1.736.898.115-.22a26.057 26.057 0 0 0 1.558-3.64l.08-.238-1.873-.625.063-.201 1.895.57.073-.238a26.338 26.338 0 0 0 .876-3.865l.037-.25-1.998-.275.026-.21 2.007.215.03-.246a26.797 26.797 0 0 0 .186-3.153v-1.007h-2.058v-.236h2.058v-4.283h-2.058v-.236h2.058v-4.283h-2.058v-.235h2.058v-4.283h-2.058v-.16h2.058v-4.536H64.21v19.259a18.056 18.056 0 0 1-.954 5.81 8.93 8.93 0 0 1-.231.575L50.368 32.934a5.028 5.028 0 0 0 .648-2.434 5.092 5.092 0 0 0-.42-2.007L60.27 8.295h-6.838l-7.048 14.63a1.854 1.854 0 0 0-.725.158L38.604 8.437a.251.251 0 0 0-.226-.142h-6.285a.25.25 0 0 0-.226.358l9.422 19.666c.008.018.025.027.037.041a4.907 4.907 0 0 0 .217 4.693L29.035 60.116a18.017 18.017 0 0 1-1.1-6.184V34.673h-8.203v4.51h2.059v.186h-2.059v4.297h2.059v.235h-2.059v4.284h2.059v.235h-2.059v4.283h2.059v.235h-2.059v.994a26.897 26.897 0 0 0 .189 3.168l.03.245 2.007-.216.026.208-1.999.277.037.25a26.431 26.431 0 0 0 .878 3.864l.074.237 1.894-.57.065.2-1.874.626.08.238a26.156 26.156 0 0 0 1.56 3.64l.115.22 1.736-.9.1.187-1.709.951.123.219a26.336 26.336 0 0 0 1.736 2.667l-.063-.029zm44.205-20.697c.112-.259.233-.543.304-.75a18.527 18.527 0 0 0 .981-5.971V35.173h7.202v3.536h-2.058v1.16h2.058v3.283h-2.058v1.235h2.058v3.283h-2.058v1.236h2.058v3.283h-2.058v1.236h2.058v.507a26.208 26.208 0 0 1-.155 2.849l-2.012-.217-.026.25c-.024.23-.053.462-.085.69l-.034.248 1.992.275a25.882 25.882 0 0 1-.75 3.304l-1.895-.57-.072.24c-.066.22-.138.444-.211.664l-.08.237 1.87.623a25.616 25.616 0 0 1-1.331 3.11l-1.736-.899-.116.223c-.105.207-.216.413-.328.612l-.12.219 1.703.949a25.822 25.822 0 0 1-1.48 2.279l-3.738-8.088.117-.277zm7.063 17.003c-3.753-6.17-11.14-18.48-13.675-23.883-2.018-4.303-3.825-5.648-4.985-6.018a2.339 2.339 0 0 0-1.328-.065L46.27 37.56l-.973-2.03a5.002 5.002 0 0 0 .627.063 5.079 5.079 0 0 0 4.133-2.14zm-9-14.183a18.029 18.029 0 0 1-15.416 8.596 18.247 18.247 0 0 1-15.504-8.743c1.672-2.919 3.874-6.857 5.038-9.34 1.93-4.11 3.596-5.393 4.656-5.745a1.622 1.622 0 0 1 1.22-.016l.246.139 4.256-10.192 4.147 9.932a.252.252 0 0 0 .147.138.258.258 0 0 0 .203-.015 1.63 1.63 0 0 1 1.225.014c1.06.352 2.727 1.634 4.654 5.744 1.066 2.27 2.983 5.753 5.127 9.488zM53.745 8.795h5.732L50.31 27.932a5.027 5.027 0 0 0-2.344-2.094 1.863 1.863 0 0 0-1.06-2.842zm-7.333 14.627a1.372 1.372 0 1 1-1.371 1.372 1.374 1.374 0 0 1 1.371-1.372zM32.49 8.795h5.73l7.014 14.558a1.84 1.84 0 0 0-.52 2.213 5.078 5.078 0 0 0-3.106 2.262zM41.331 30.5a4.605 4.605 0 0 1 3.665-4.498 1.875 1.875 0 0 0 .407.363l-.293 1.05a.25.25 0 0 0 .174.308.246.246 0 0 0 .068.01.251.251 0 0 0 .24-.184l.272-.975a1.845 1.845 0 0 0 .391.076l-.287 1.033a.25.25 0 0 0 .174.308.246.246 0 0 0 .067.009.251.251 0 0 0 .241-.183l.331-1.188a1.857 1.857 0 0 0 .834-.412l.096.052a4.593 4.593 0 1 1-6.38 4.231zm.535 3.044a5.082 5.082 0 0 0 2.837 1.884c.003.007-.002.015.001.022l1.01 2.104-4.247 10.136a2.347 2.347 0 0 0-1.327.064c-1.16.37-2.967 1.715-4.987 6.02-1.124 2.398-3.226 6.167-4.874 9.05-.128-.227-.26-.451-.378-.683a18.39 18.39 0 0 1-.615-1.378zM23.624 66.75l1.704-.95-.121-.217a27.057 27.057 0 0 1-.33-.615l-.115-.221-1.735.898a25.575 25.575 0 0 1-1.332-3.109l1.868-.623-.079-.238a26.432 26.432 0 0 1-.21-.664l-.073-.239-1.894.57a25.78 25.78 0 0 1-.751-3.302l1.99-.275-.033-.248c-.033-.23-.062-.462-.085-.69l-.027-.249-2.012.217a26.537 26.537 0 0 1-.157-2.863v-.493h2.059v-1.236h-2.059V48.92h2.059v-1.235h-2.059V44.4h2.059v-1.235h-2.059v-3.297h2.059v-1.186h-2.059v-3.51h7.204v18.759a18.516 18.516 0 0 0 1.246 6.704 18.807 18.807 0 0 0 .774 1.732q.286.558.605 1.094a18.753 18.753 0 0 0 16.011 9.107 18.518 18.518 0 0 0 15.695-8.61 567.045 567.045 0 0 0 3.959 6.752c-.47.562-.825.935-1.382 1.492q-.394.394-.803.77l-1.304-1.452-.185.167c-.172.154-.349.31-.526.459l-.191.161 1.263 1.49a26.013 26.013 0 0 1-2.73 1.992l-1.03-1.67-.213.131c-.195.122-.396.242-.599.358l-.216.125.981 1.702a25.535 25.535 0 0 1-3.045 1.47l-.715-1.84-.233.09a24.36 24.36 0 0 1-.653.244l-.236.083.663 1.865a25.715 25.715 0 0 1-3.262.895l-.376-1.949-.247.047c-.225.044-.457.085-.685.123l-.247.04.32 1.96a26.14 26.14 0 0 1-3.368.298l-.028-1.988-.25.004a20.87 20.87 0 0 1-.7 0l-.25-.003-.027 1.987a26.154 26.154 0 0 1-3.368-.297l.318-1.96-.247-.04c-.23-.037-.46-.078-.687-.121l-.245-.047-.376 1.948a25.783 25.783 0 0 1-3.262-.893l.662-1.865-.235-.084a22.5 22.5 0 0 1-.654-.242l-.233-.091-.716 1.84a25.67 25.67 0 0 1-3.045-1.469l.98-1.702-.216-.124c-.2-.116-.401-.236-.599-.357l-.213-.131-1.028 1.67a26.127 26.127 0 0 1-2.73-1.99l1.262-1.49-.191-.162c-.177-.15-.354-.304-.526-.458l-.185-.167-1.303 1.451q-.414-.379-.814-.778a26.604 26.604 0 0 1-1.523-1.66l1.5-1.24-.159-.192a26.597 26.597 0 0 1-.436-.545l-.155-.196-1.535 1.195a25.817 25.817 0 0 1-1.869-2.815zm1.465 3.094c.056.074.105.153.162.226l.153.198 1.538-1.198.134.166-1.502 1.242.132.16a888.422 888.422 0 0 1-4.231 7.027z"></path><path d="M45.924 53.516a11.64 11.64 0 0 0-7.1 2.96l-.196.183.195.183a11.64 11.64 0 0 0 7.1 2.96 11.64 11.64 0 0 0 7.101-2.96l.196-.183-.196-.182a11.64 11.64 0 0 0-7.1-2.96zm-6.548 3.143a12.903 12.903 0 0 1 3.251-1.95 3.785 3.785 0 0 0 0 3.9 12.957 12.957 0 0 1-3.251-1.95zm4.057 2.221a3.336 3.336 0 0 1 0-4.442 7.96 7.96 0 0 1 4.982 0 3.336 3.336 0 0 1 0 4.442 7.973 7.973 0 0 1-4.982 0zm5.788-.27a3.785 3.785 0 0 0 0-3.9 12.956 12.956 0 0 1 3.25 1.95 12.906 12.906 0 0 1-3.25 1.95z"></path><circle cx="45.924" cy="56.659" r=".773"></circle></g><!----></svg>