<svg data-v-423bf9ae="" xmlns="http://www.w3.org/2000/svg" viewBox="0 0 NaN NaN" class="iconAbove"><!----><!----><!----><g data-v-423bf9ae="" id="c6d49086-ca92-4709-a89b-e9442187ff97" fill="#ECEBE7" transform="matrix(Infinity,0,0,Infinity,0,0)"><path d=""></path></g><!----><g data-v-423bf9ae="" id="5d805f26-f461-4ec4-8c33-4661c7366f0b" transform="matrix(2.091690549493261,0,0,2.091690549493261,-34.910088379146956,-21.462679973707026)" stroke="none" fill="#441D4F"><g data-name="Layer 3"><path d="M27.29 10.5a7 7 0 0 0-1.81.23 6.82 6.82 0 0 0-4.31 3.84.54.54 0 0 1-.23.22S17.37 16.63 18 19.2c1.22.48 3.92 1.28 5 .42.45-.36.57-1.05.37-2a.5.5 0 0 1 .39-.59.49.49 0 0 1 .59.39 2.88 2.88 0 0 1-.72 3 3.25 3.25 0 0 1-2.07.6 11.92 11.92 0 0 1-4-.89c-.86.43-4.36 2.52-2.65 7.65a.52.52 0 0 1-.25.61c-.16.08-3.84 2-2.87 7.83a.6.6 0 0 1 0 .19c0 .09-2 9.08 2.9 12l.08.06c.07.07 7.08 6.52 12.68 4.75a7.52 7.52 0 0 0 4.15-3.6 19.86 19.86 0 0 0 2.17-6.05v-31a13.79 13.79 0 0 0-6.48-2.07zm-13 18.94c.15 0 3.68-1 5.58.37a2.74 2.74 0 0 1 1 1.49A10.65 10.65 0 0 1 27 29.42a.5.5 0 0 1 .5.5.5.5 0 0 1-.5.5 9.58 9.58 0 0 0-6 2.11.53.53 0 0 1-.14.12 9.6 9.6 0 0 0-2.45 3.1L17 38.5a.5.5 0 0 1-.45.28.43.43 0 0 1-.22-.06.5.5 0 0 1-.23-.67l1.38-2.75a10.68 10.68 0 0 1 2.57-3.3 1.92 1.92 0 0 0-.74-1.38c-1.26-.91-3.84-.46-4.72-.21a.5.5 0 0 1-.62-.34.51.51 0 0 1 .34-.63zm17.37 10.72a6.94 6.94 0 0 1-.57 2.77l-.91 2.12a7 7 0 0 1-11.8 1.8l-4.31-5a.5.5 0 0 1 .76-.65l4.31 5a6 6 0 0 0 10.13-1.54l.9-2.12a5.93 5.93 0 0 0 .49-2.38V18.52a.51.51 0 0 1 .5-.5.5.5 0 0 1 .5.5zM41.11 33.06a6.8 6.8 0 0 1-6.32 6.78V26.27a6.81 6.81 0 0 1 6.32 6.79z"></path><path d="M46.18 40.66a.49.49 0 0 0 .07.62l2.85 2.86-3.72 3.72L42.52 45a.49.49 0 0 0-.62-.07 13.74 13.74 0 0 1-4.58 1.9.5.5 0 0 0-.39.49v4h-4.39V50a21.91 21.91 0 0 0 2.24-6.32.34.34 0 0 0 0-.1v-2.73a7.81 7.81 0 0 0 0-15.59v-10.5h2.14v4a.5.5 0 0 0 .39.49 13.74 13.74 0 0 1 4.58 1.9.5.5 0 0 0 .62-.06l2.86-2.86L49.1 22l-2.85 2.86a.49.49 0 0 0-.07.62 13.82 13.82 0 0 1 1.9 4.52.5.5 0 0 0 .49.39h4v5.27h-4a.5.5 0 0 0-.49.39 13.74 13.74 0 0 1-1.9 4.61z"></path></g></g><!----></svg>