<svg xmlns="http://www.w3.org/2000/svg" viewBox="0 0 82.86 24">
  <g id="logo-mollie" transform="translate(0 0)">
    <path id="Path_1" data-name="Path 1" d="M30.473,19.4a4.718,4.718,0,1,1,4.718-4.718A4.718,4.718,0,0,1,30.473,19.4Zm0-12.687a7.969,7.969,0,1,0,7.97,7.969,7.97,7.97,0,0,0-7.97-7.969Z" transform="translate(4.52 1.349)" fill="#14161a" fill-rule="evenodd"/>
    <path id="Path_2" data-name="Path 2" d="M54.786,2.246A2.246,2.246,0,1,1,52.539,0a2.246,2.246,0,0,1,2.246,2.246" transform="translate(10.102 0)" fill="#14161a" fill-rule="evenodd"/>
    <path id="Path_3" data-name="Path 3" d="M24.279,13.681v8.633H21V13.566a3.639,3.639,0,0,0-3.6-3.6,3.689,3.689,0,0,0-3.661,3.694v8.651H10.455V13.589A3.638,3.638,0,0,0,6.866,9.981a3.694,3.694,0,0,0-3.669,3.7v8.633H0V13.566A6.866,6.866,0,0,1,12.118,9.144s0,0,0,0a6.893,6.893,0,0,1,12.161,4.537" transform="translate(0 1.345)" fill="#14161a" fill-rule="evenodd"/>
    <path id="Path_4" data-name="Path 4" d="M38.133,23.606h3.283V.327H38.133Z" transform="translate(7.66 0.066)" fill="#14161a" fill-rule="evenodd"/>
    <path id="Path_5" data-name="Path 5" d="M44.465,23.606h3.283V.327H44.465Z" transform="translate(8.931 0.066)" fill="#14161a" fill-rule="evenodd"/>
    <path id="Path_6" data-name="Path 6" d="M50.8,22.245H54.08V7.04H50.8Z" transform="translate(10.203 1.414)" fill="#14161a" fill-rule="evenodd"/>
    <path id="Path_7" data-name="Path 7" d="M63.911,9.619a4.57,4.57,0,0,1,4.46,3.577H59.45a4.57,4.57,0,0,1,4.46-3.577M63.972,6.7a7.969,7.969,0,1,0,6.964,12.037.007.007,0,0,0,0-.009l-2.659-1.309a4.811,4.811,0,0,1-8.854-1.627h12.17V14.309A7.6,7.6,0,0,0,63.972,6.7" transform="translate(11.271 1.345)" fill="#14161a" fill-rule="evenodd"/>
  </g>
</svg>
