<svg data-v-423bf9ae="" xmlns="http://www.w3.org/2000/svg" viewBox="0 0 198.26865689487335 163" class="iconAbove"><!----><!----><!----><g data-v-423bf9ae="" id="84d5ebb5-e614-4ed9-b0f3-e0e2d6101ea1" fill="#441D4F" transform="matrix(4.4776120677666755,0,0,4.4776120677666755,-3.1343306815419822,101.43283245087625)"><path d="M3.43 10.64C4.61 10.64 5.31 10.22 5.78 9.25L5.77 9.56L5.77 13.75L6.90 13.75L6.89 5.07C6.89 4.56 6.92 3.77 6.93 3.14L5.85 3.14C5.82 3.57 5.78 4.09 5.78 4.37L5.77 4.37C5.35 3.46 4.69 3.00 3.43 3.00C1.61 3.00 0.70 4.26 0.70 6.83C0.70 9.37 1.54 10.64 3.43 10.64ZM3.72 9.76C2.41 9.76 1.89 8.85 1.89 6.79C1.89 4.73 2.45 3.84 3.72 3.84C4.97 3.84 5.75 4.51 5.75 6.71C5.75 9.14 4.86 9.76 3.72 9.76ZM10.35 3.14L9.21 3.14L9.21 8.06C9.21 9.88 9.93 10.64 11.54 10.64C12.94 10.64 13.59 9.97 13.92 9.14L13.99 10.50L15.06 10.50C15.05 9.87 15.04 9.46 15.04 8.93L15.04 3.14L13.90 3.14L13.90 7.41C13.90 8.90 13.12 9.76 11.91 9.76C10.77 9.76 10.35 9.30 10.35 7.84ZM17.44 10.50L18.56 10.50L18.56 3.14L17.44 3.14ZM17.39 1.61L18.62 1.61L18.62 0.35L17.39 0.35ZM20.27 10.50L25.87 10.50L25.87 9.62L21.49 9.62L25.63 4.00L25.63 3.14L20.54 3.14L20.54 4.00L24.42 4.00L20.27 9.63ZM26.85 10.50L32.45 10.50L32.45 9.62L28.07 9.62L32.21 4.00L32.21 3.14L27.12 3.14L27.12 4.00L31.00 4.00L26.85 9.63ZM36.60 10.64C38.51 10.64 39.12 9.73 39.45 8.90L38.49 8.62C38.22 9.34 37.80 9.79 36.62 9.79C35.11 9.79 34.57 8.64 34.57 7.06L34.57 7.04L39.61 7.04C39.62 6.89 39.63 6.66 39.63 6.52C39.63 4.59 39.02 3.00 36.57 3.00C34.73 3.00 33.36 4.09 33.36 6.76C33.36 9.30 34.43 10.64 36.60 10.64ZM36.57 3.84C37.83 3.84 38.44 4.54 38.44 6.08L38.44 6.17L34.57 6.17C34.65 4.34 35.59 3.84 36.57 3.84ZM44.98 4.07L44.98 3.02C44.77 3.01 44.66 3.01 44.59 3.01C43.55 3.01 42.91 3.61 42.70 4.59L42.64 3.14L41.57 3.14L41.61 4.84L41.61 10.50L42.74 10.50L42.74 6.13C42.74 5.14 43.25 4.06 44.49 4.06C44.63 4.06 44.77 4.06 44.98 4.07Z"></path></g><!----><g data-v-423bf9ae="" id="fd392844-75f3-4658-aaeb-6be6536b2b2d" transform="matrix(1.6042714641624949,0,0,1.6042714641624949,18.841200704760013,-32.0868930298157)" stroke="none" fill="#FFBC00"><path d="M68.633 55.761a3.614 3.614 0 0 0-3.574 4.085 3.621 3.621 0 0 0 4.054 3.1 3.615 3.615 0 0 0 3.1-4.054 3.623 3.623 0 0 0-3.58-3.131zM73.58 34.083c-1.609-1.063-3.733-1.625-6.146-1.625-.709 0-1.438.049-2.166.146-2.408.321-4.744 1.487-6.41 3.197-1.689 1.736-2.51 3.855-2.248 5.813.192 1.445 1.28 2.379 2.771 2.379.16 0 .323-.012.486-.033 1.992-.266 2.422-1.638 2.836-2.964.473-1.512.919-2.939 3.493-3.283.264-.035.521-.053.765-.053 1.853 0 3.003.978 3.24 2.754.232 1.738-1.142 3.124-2.597 4.591-1.633 1.647-3.484 3.513-3.131 6.16a3.21 3.21 0 0 0 .846 1.791 2.67 2.67 0 0 0 1.972.83c.141 0 .287-.009.432-.029 2.084-.278 2.368-1.487 2.642-2.658.104-.442.212-.9.42-1.312.289-.576 1.012-1.252 1.851-2.034 2.002-1.871 4.743-4.433 4.236-8.228-.317-2.377-1.426-4.208-3.292-5.442z"></path><path d="M95.961 65.606l-5.583-41.84a4.354 4.354 0 0 0-4.877-3.727l-41.839 5.583a4.346 4.346 0 0 0-3.728 4.877l.319 2.394-27.441-3.965a3.415 3.415 0 0 0-.484-.035 3.385 3.385 0 0 0-3.331 2.886L4.315 64.188a3.351 3.351 0 0 0 .636 2.498 3.344 3.344 0 0 0 2.216 1.316l32.408 4.682a3.382 3.382 0 0 0 3.814-2.852l.932-6.453 1.195 8.957a4.353 4.353 0 0 0 4.877 3.73l41.84-5.585a4.308 4.308 0 0 0 2.873-1.665 4.304 4.304 0 0 0 .855-3.21zm-55.338 3.828a.573.573 0 0 1-.647.483L7.567 65.235a.574.574 0 0 1-.484-.648l4.682-32.409a.574.574 0 0 1 .647-.484l28.226 4.077 2.328 17.444-2.343 16.219zm51.621-2.807a.732.732 0 0 1-.488.283l-41.839 5.584a.739.739 0 0 1-.828-.633l-5.583-41.839a.738.738 0 0 1 .633-.828l41.838-5.584a.738.738 0 0 1 .83.634l5.585 41.84a.742.742 0 0 1-.148.543z"></path><path d="M33.159 41.087c-1.284-1.176-3.186-1.997-5.354-2.31a8.37 8.37 0 0 0-1.208-.087c-1.703 0-3.377.5-4.717 1.408-1.377.934-2.246 2.203-2.443 3.572-.094.651.061 1.231.45 1.679.35.402.877.673 1.485.761.153.022.3.034.44.034 1.227 0 1.775-.837 2.305-1.646.591-.906 1.151-1.762 2.64-1.762.206 0 .429.017.66.05 1.764.254 2.645 1.298 2.418 2.864-.193 1.345-1.513 2.09-2.908 2.877-1.567.884-3.344 1.886-3.64 3.937a2.477 2.477 0 0 0 .32 1.633c.235.382.695.863 1.557.988.18.025.351.039.509.039h.001c1.212 0 1.625-.745 2.023-1.465.171-.309.347-.628.59-.891.337-.369 1.021-.721 1.812-1.128 1.89-.972 4.479-2.306 4.903-5.244.301-2.091-.335-3.927-1.843-5.309zM25.057 56.696a2.792 2.792 0 0 0-.397-.03 2.818 2.818 0 0 0-2.774 2.4 2.804 2.804 0 0 0 2.768 3.198 2.815 2.815 0 0 0 2.774-2.398 2.805 2.805 0 0 0-2.371-3.17z"></path></g><!----></svg>