<svg width="241" height="72" viewBox="0 0 241 72" fill="none" xmlns="http://www.w3.org/2000/svg">
<path d="M29.4327 0.486084C39.8419 0.486084 46.8219 5.16136 47.1232 12.1511H41.0004C40.6587 8.03265 36.4185 5.5906 29.5196 5.5906C22.2789 5.5906 17.4421 9.66261 17.4421 16.1825C17.4421 22.7023 22.2384 26.7337 29.4385 26.7337C35.9493 26.7337 40.9193 24.0713 41.6492 19.6106H24.9435V15.15H47.6039V31.1944H42.6339L43.0626 24.2453H42.6745C39.9346 29.8661 34.7503 31.8789 29.3111 31.8789C18.5195 31.8789 11.3657 25.6142 11.3657 16.1825C11.3542 6.74492 18.5543 0.486084 29.4327 0.486084Z" fill="black" stroke="white" stroke-width="0.2567" stroke-miterlimit="10" stroke-linecap="round" stroke-linejoin="round"/>
<path d="M53.9294 1.17041H82.8401V6.27493H60.0116V12.8354H80.3145V17.5513H60.0116V26.0433H82.8401V31.1884H53.9294V1.17041Z" fill="black" stroke="white" stroke-width="0.2567" stroke-miterlimit="10" stroke-linecap="round" stroke-linejoin="round"/>
<path d="M89.1365 1.17041H94.6626L117.109 22.7892V1.17041H123.191V31.1943H117.624L95.2244 9.57546V31.1943H89.1423V1.17041H89.1365Z" fill="black" stroke="white" stroke-width="0.2567" stroke-miterlimit="10" stroke-linecap="round" stroke-linejoin="round"/>
<path d="M140.447 6.27493H127.17V1.17041H159.852V6.27493H146.529V31.1943H140.447V6.27493Z" fill="black" stroke="white" stroke-width="0.2567" stroke-miterlimit="10" stroke-linecap="round" stroke-linejoin="round"/>
<path d="M161.393 21.5422H167.73C167.689 24.6745 171.501 26.7337 177.751 26.7337C184.818 26.7337 188.716 25.446 188.716 22.6153C188.716 14.5061 162.204 23.9031 162.204 9.96424C162.204 3.83302 168.674 0.486084 177.965 0.486084C187.731 0.486084 194.155 4.6045 194.202 10.8227H187.992C187.992 7.64981 184.221 5.5906 178.139 5.5906C171.929 5.5906 168.373 6.87833 168.373 9.45379C168.373 17.0004 194.845 8.25307 194.845 22.3659C194.845 28.6305 188.206 31.8905 178.012 31.8905C167.776 31.8847 161.306 27.6792 161.393 21.5422Z" fill="black" stroke="white" stroke-width="0.2567" stroke-miterlimit="10" stroke-linecap="round" stroke-linejoin="round"/>
<path d="M200.151 1.17041H229.062V6.27493H206.233V12.8354H226.536V17.5513H206.233V26.0433H229.062V31.1884H200.151V1.17041Z" fill="black" stroke="white" stroke-width="0.2567" stroke-miterlimit="10" stroke-linecap="round" stroke-linejoin="round"/>
<path d="M1.03174 41.0786H28.529V46.1831H7.11392V52.9582H26.4321V57.6741H7.11392V71.1025H1.03174V41.0786Z" fill="black" stroke="white" stroke-width="0.2567" stroke-miterlimit="10" stroke-linecap="round" stroke-linejoin="round"/>
<path d="M33.499 41.0786H62.4097V46.1831H39.5812V52.7436H59.8841V57.4595H39.5812V65.9515H62.4097V71.0967H33.499V41.0786Z" fill="black" stroke="white" stroke-width="0.2567" stroke-miterlimit="10" stroke-linecap="round" stroke-linejoin="round"/>
<path d="M68.2773 41.0786H97.188V46.1831H74.3595V52.7436H94.6624V57.4595H74.3595V65.9515H97.188V71.0967H68.2773V41.0786Z" fill="black" stroke="white" stroke-width="0.2567" stroke-miterlimit="10" stroke-linecap="round" stroke-linejoin="round"/>
<path d="M101.388 61.456H107.725C107.684 64.5884 111.496 66.6476 117.746 66.6476C124.813 66.6476 128.711 65.3598 128.711 62.5292C128.711 54.4199 102.199 63.8169 102.199 49.8781C102.199 43.7468 108.669 40.3999 117.96 40.3999C127.727 40.3999 134.15 44.5183 134.197 50.7366H127.987C127.987 47.5636 124.216 45.5044 118.134 45.5044C111.924 45.5044 108.368 46.7922 108.368 49.3676C108.368 56.9142 134.84 48.1669 134.84 62.2797C134.84 68.5444 128.202 71.8043 118.007 71.8043C107.765 71.7927 101.301 67.5873 101.388 61.456Z" fill="black" stroke="white" stroke-width="0.2567" stroke-miterlimit="10" stroke-linecap="round" stroke-linejoin="round"/>
<path d="M148.632 46.1831H135.355V41.0786H168.037V46.1831H154.714V71.1025H148.632V46.1831Z" fill="black" stroke="white" stroke-width="0.2567" stroke-miterlimit="10" stroke-linecap="round" stroke-linejoin="round"/>
<path d="M171.541 41.0786H200.452V46.1831H177.623V52.7436H197.926V57.4595H177.623V65.9515H200.452V71.0967H171.541V41.0786Z" fill="black" stroke="white" stroke-width="0.2567" stroke-miterlimit="10" stroke-linecap="round" stroke-linejoin="round"/>
<path d="M206.32 41.0786H211.846L234.292 62.6974V41.0786H240.374V71.1025H234.808L212.402 49.4895V71.1083H206.32V41.0786Z" fill="black" stroke="white" stroke-width="0.2567" stroke-miterlimit="10" stroke-linecap="round" stroke-linejoin="round"/>
</svg>
