<svg xmlns="http://www.w3.org/2000/svg" width="530.497" height="97.174" viewBox="0 0 530.497 97.174">
  <g id="as-logo" transform="translate(-7365 -11676)">
    <g id="default-monochrome" transform="translate(7365 11680)">
      <g id="a8299718-3a23-496c-a311-bc26d5672d87" transform="translate(0 -4)">
        <g id="Group_374" data-name="Group 374">
          <path id="Path_159" data-name="Path 159" d="M3,93.935H87V3.239H3Zm85.5,3.239H1.5A1.563,1.563,0,0,1,0,95.554V1.62A1.563,1.563,0,0,1,1.5,0h87A1.563,1.563,0,0,1,90,1.62V95.554A1.563,1.563,0,0,1,88.5,97.174Z" fill="silver"/>
        </g>
        <text id="AS" transform="translate(18 83.587)" fill="silver" font-size="58" font-family="Graphik-Extralight, Graphik" font-weight="200" letter-spacing="-0.002em"><tspan x="0" y="0">AS</tspan></text>
      </g>
      <g id="Group_375" data-name="Group 375" transform="translate(12 -2)">
        <g id="e5e4bde0-0fdc-4ca1-a4f8-be37219e1459" transform="translate(108.486 -45.287)">
          <path id="Path_158" data-name="Path 158" d="M36.932,104.016,33,90.938H11.019l-4,13.078H1.514L17.982,51.039h8.052l16.408,52.977Zm-24.46-17.8H31.544L22.4,55.883h-.787Zm39.415,17.8ZM52.916,61.7l5.51-1.029v43.35h-5.51Zm2.967-8.779h0q-2.422,0-3.209-.787h0a4.217,4.217,0,0,1-.787-2.967h0a4.442,4.442,0,0,1,.787-3.088h0q.787-.787,3.209-.787h0a4.217,4.217,0,0,1,2.967.787h0a4.714,4.714,0,0,1,.727,3.088h0a4.47,4.47,0,0,1-.727,2.967h0q-.727.787-2.967.787Zm44.5-5.691,5.51-.969v57.76h-2.3l-1.453-3.209h0a7.315,7.315,0,0,1-4.48,3.512h0a31.919,31.919,0,0,1-9.021.969h0q-7.023,0-10.172-1.574h0q-3.088-1.574-4.238-6.115h0q-1.09-4.541-1.09-14.773h0q0-9.445,1.029-13.925h0q1.029-4.48,3.814-6.236h0q2.785-1.7,8.658-1.7h0a68.929,68.929,0,0,1,8.779.424h0a10.345,10.345,0,0,1,4.965,1.937h0Zm0,51.1V65.873h-17.5a9.647,9.647,0,0,0-3.269.363h0a1.609,1.609,0,0,0-.787,1.635h0v32.513H96.206a8.311,8.311,0,0,0,3.33-.424h0a1.58,1.58,0,0,0,.848-1.635Zm36.024,1.7h0a50.362,50.362,0,0,0,6.6-.424h0a69.8,69.8,0,0,0,7.931-1.635h0l.787,4.359h0a33,33,0,0,1-7.265,1.756h0a72.82,72.82,0,0,1-9.506.605h0q-6.3,0-9.263-1.756h0q-2.967-1.7-4-6.236h0q-1.09-4.48-1.09-13.865h0q0-8.9,1.393-13.5h0a10.355,10.355,0,0,1,4.783-6.478h0q3.391-1.877,10.111-1.877h0a37.712,37.712,0,0,1,9.869.969h0a7.656,7.656,0,0,1,4.723,3.572h0q1.332,2.543,1.332,7.568h0q0,6.539-1.574,9.082h0q-1.635,2.6-6.781,3.391h0q-5.086.848-18.163.848h0V98.809h0a34.742,34.742,0,0,0,10.111,1.211Zm-2.725-33.966h0q-4.359,0-5.873,1.15h0q-1.514,1.09-1.514,4.359h0V81.857h13.986q4.42,0,5.994-1.09h0q1.574-1.09,1.574-4.3h0V66.054ZM168.5,104.016V61.635h2.3l1.635,4.238h0a20.229,20.229,0,0,1,6.66-3.754h0a28.47,28.47,0,0,1,8.658-1.15h0q11.806,0,11.806,6.236h0v36.811h-5.51V65.449H182.6a21.275,21.275,0,0,0-5.267.484h0a4.318,4.318,0,0,0-2.543,1.7h0a6.6,6.6,0,0,0-.787,3.572h0v32.815ZM236,99.112h0a74.053,74.053,0,0,0,7.75,1.15h0a74.9,74.9,0,0,0,8.658.545h0q4.238,0,10.535-.545h0V80.585l-8.234-.545h0a54.018,54.018,0,0,1-12.048-1.816h0q-4-1.332-5.389-4.178h0q-1.453-2.846-1.453-8.6h0a25.078,25.078,0,0,1,1.393-9.2h0a9.017,9.017,0,0,1,4.541-4.965h0a19.45,19.45,0,0,1,8.355-1.514h0a107.077,107.077,0,0,1,16.1,1.271h0l-.666,4.3h0a95.88,95.88,0,0,0-16.165-1.09h0a57.563,57.563,0,0,0-7.447.424h0V74.531l10.474.545h0A34.306,34.306,0,0,1,262.7,76.831h0a8.769,8.769,0,0,1,4.9,4.541h0q1.453,3.148,1.453,9.082h0q0,5.812-1.7,9.021h0a9.529,9.529,0,0,1-5.631,4.48h0a37.193,37.193,0,0,1-11.261,1.332h0a66.722,66.722,0,0,1-15.318-1.7h0Zm59.818,5.57h0q-7.568,0-11.019-1.635h0a9.2,9.2,0,0,1-4.723-6.115h0q-1.211-4.48-1.211-14.107h0q0-9.687,1.211-14.107h0A9.021,9.021,0,0,1,284.8,62.6h0q3.451-1.635,11.019-1.635h0q7.629,0,11.08,1.574h0a8.606,8.606,0,0,1,4.662,6.054h0q1.211,4.48,1.211,14.228h0q0,9.627-1.211,14.107h0a9.2,9.2,0,0,1-4.723,6.115h0q-3.451,1.635-11.019,1.635Zm-11.382-4.9h18.587a9.05,9.05,0,0,0,3.451-.424h0a1.58,1.58,0,0,0,.848-1.635h0V65.873H288.8a10.731,10.731,0,0,0-3.512.363h0a1.58,1.58,0,0,0-.848,1.635h0Zm73.744-38.143v42.381h-2.24l-1.635-4.238h0a20.787,20.787,0,0,1-7.144,3.693h0a31.872,31.872,0,0,1-9.324,1.211h0q-5.51,0-8.052-1.877h0a6.683,6.683,0,0,1-2.6-5.812h0V61.635h5.51V99.96h11.443a19.4,19.4,0,0,0,5.267-.545h0a3.786,3.786,0,0,0,2.543-1.7h0a7.413,7.413,0,0,0,.727-3.633h0V61.635Zm35.54-9.324-9.808-.848V61.635h7.326v4.057h-7.326v38.325h-5.51V65.691h-6.539V61.635h6.539a56.472,56.472,0,0,1,1.211-9.082h0a7.814,7.814,0,0,1,2.422-4.42h0a7.469,7.469,0,0,1,4.723-1.332h0a28.327,28.327,0,0,1,7.326.848h0Zm8.537,51.705ZM403.29,61.7l5.51-1.029v43.35h-5.51Zm2.967-8.779h0q-2.361,0-3.148-.787h0a4.006,4.006,0,0,1-.848-2.967h0q0-2.3.848-3.088h0q.787-.787,3.148-.787h0q2.24,0,2.967.787h0a4.442,4.442,0,0,1,.787,3.088h0a4.47,4.47,0,0,1-.727,2.967h0q-.726.787-3.027.787Z" fill="#fff"/>
        </g>
        <g id="e685dd6a-0f9d-4205-987c-0d4612649be0" transform="translate(109.744 71.952)">
          <path id="Path_161" data-name="Path 161" d="M8.363,4.307V15.742h0a7.538,7.538,0,0,1-1.07,4.323h0a3.439,3.439,0,0,1-3.014,1.57h0a3.338,3.338,0,0,1-2.75-1.2h0a5.05,5.05,0,0,1-.972-3.27h0a7.994,7.994,0,0,1,.083-1.219h0l.917-.277h0q-.056.61-.056,1.182h0q0,3.6,2.75,3.6h0A2.567,2.567,0,0,0,6.64,19.178h0a7.473,7.473,0,0,0,.75-3.732h0V4.307ZM30.728,21.376l-1.611-5.357H22.963l-1.6,5.357H20.337l5.14-17.069h1.139l5.14,17.069Zm-7.39-6.54h5.418L26.519,7.392l-.458-1.81h-.028l-.458,1.755ZM52.315,4.307,47.37,21.376H46.231L41.272,4.307h1.042l3.792,13.208.681,2.642.681-2.642,3.82-13.208ZM72.208,21.376,70.6,16.019H64.442l-1.584,5.357H61.817l5.14-17.069H68.11l5.126,17.069Zm-7.39-6.54h5.432L68.012,7.392l-.472-1.81h-.014l-.472,1.755ZM89.169,4.048h0q3.612,0,4.834,3.769h0l-.833.905h0a5.2,5.2,0,0,0-1.445-2.66h0a3.743,3.743,0,0,0-2.542-.831h0a3.855,3.855,0,0,0-1.959.48h0a3.213,3.213,0,0,0-1.278,1.256h0a3.806,3.806,0,0,0-.431,1.81h0a3.3,3.3,0,0,0,.361,1.626h0a3,3,0,0,0,1.264,1.108h0a11.357,11.357,0,0,0,2.431.813h0a7.055,7.055,0,0,1,3.556,1.663h0a4.081,4.081,0,0,1,1.056,2.993h0a4.922,4.922,0,0,1-.6,2.438h0a4.157,4.157,0,0,1-1.709,1.626h0a5.218,5.218,0,0,1-2.514.591h0a5.428,5.428,0,0,1-3.417-1.071h0a5.347,5.347,0,0,1-1.889-3.011h0l.847-.887h0a4.729,4.729,0,0,0,1.57,2.808h0a4.4,4.4,0,0,0,2.9.979h0a4.056,4.056,0,0,0,2.737-.905h0a3.111,3.111,0,0,0,1.056-2.494h0a2.8,2.8,0,0,0-.861-2.161h0a6.519,6.519,0,0,0-3-1.293h0a10.973,10.973,0,0,1-2.862-1.016h0A3.629,3.629,0,0,1,84.932,11.1h0a4.682,4.682,0,0,1-.458-2.2h0a5.116,5.116,0,0,1,.583-2.42h0a4.322,4.322,0,0,1,1.625-1.773h0a4.611,4.611,0,0,1,2.487-.665Zm27.949,13.005h0a6.555,6.555,0,0,1-1.9,3.381h0a4.7,4.7,0,0,1-3.237,1.2h0a4.727,4.727,0,0,1-3.07-1.071h0a6.829,6.829,0,0,1-2.042-3.067h0a13.66,13.66,0,0,1-.722-4.655h0a13.66,13.66,0,0,1,.722-4.655h0a6.829,6.829,0,0,1,2.042-3.067h0a4.707,4.707,0,0,1,3.056-1.071h0q3.848,0,4.973,4.212h0l-.959.591h0a5.3,5.3,0,0,0-1.431-2.716h0a3.562,3.562,0,0,0-2.528-.905h0a3.83,3.83,0,0,0-2.542.924h0A5.879,5.879,0,0,0,107.783,8.8h0a12.077,12.077,0,0,0-.611,4.046h0a12.335,12.335,0,0,0,.6,4.046h0a6,6,0,0,0,1.667,2.642h0a3.8,3.8,0,0,0,2.542.924h0a3.717,3.717,0,0,0,2.639-1.016h0a5.477,5.477,0,0,0,1.528-2.863h0Zm22.226,4.323h-1.153l-3.667-7.389h-3.862v7.389h-.972V4.307h4.765a3.885,3.885,0,0,1,3.07,1.293h0a5.18,5.18,0,0,1,1.139,3.547h0a5.416,5.416,0,0,1-.82,3.085h0a3.654,3.654,0,0,1-2.237,1.589h0ZM130.662,5.489v7.279h3.778a2.978,2.978,0,0,0,2.375-.942h0a3.87,3.87,0,0,0,.833-2.679h0a4.016,4.016,0,0,0-.833-2.716h0a2.978,2.978,0,0,0-2.375-.942h-3.778Zm22.171-1.182V21.376h-.972V4.307Zm18.031,0h0a4.04,4.04,0,0,1,3.181,1.33h0a5.316,5.316,0,0,1,1.181,3.658h0a5.387,5.387,0,0,1-1.181,3.676h0a4.014,4.014,0,0,1-3.181,1.349h-3.278v7.057h-.972V4.307Zm-.111,8.793h0a3.277,3.277,0,0,0,2.556-.979h0a4.065,4.065,0,0,0,.889-2.826h0a4.078,4.078,0,0,0-.889-2.808h0a3.245,3.245,0,0,0-2.556-1h-3.167V13.1Zm25.741-8.793V5.489h-4.681V21.376h-.972V5.489h-4.681V4.307Zm31.506,0h0a5.607,5.607,0,0,1,4.737,2.161h0a10.064,10.064,0,0,1,1.667,6.244h0a10.616,10.616,0,0,1-1.667,6.429h0A5.536,5.536,0,0,1,228,21.376h-4.042V4.307Zm.083,15.887h0a4.542,4.542,0,0,0,3.945-1.94h0a9.521,9.521,0,0,0,1.361-5.542h0a8.955,8.955,0,0,0-1.361-5.339h0a4.588,4.588,0,0,0-3.945-1.884h-3.153v14.7Zm20.267,0h8.113v1.182h-9.085V4.307h8.765V5.489H248.35v6.595h6.168V13.3H248.35ZM278.466,4.307l-4.931,17.069h-1.153L267.422,4.307h1.056l3.792,13.208.681,2.642.681-2.642,3.806-13.208Zm13.169,15.887h8.113v1.182h-9.085V4.307h8.779V5.489h-7.807v6.595H297.8V13.3h-6.168Zm21.629,0h7.7v1.182h-8.668V4.307h.972ZM337.476,4.048h0a4.861,4.861,0,0,1,3.139,1.071h0a6.779,6.779,0,0,1,2.056,3.048h0a13.622,13.622,0,0,1,.722,4.674h0a13.622,13.622,0,0,1-.722,4.674h0a6.779,6.779,0,0,1-2.056,3.048h0a4.861,4.861,0,0,1-3.139,1.071h0a4.861,4.861,0,0,1-3.139-1.071h0a6.78,6.78,0,0,1-2.056-3.048h0a13.621,13.621,0,0,1-.722-4.674h0a13.621,13.621,0,0,1,.722-4.674h0a6.78,6.78,0,0,1,2.056-3.048h0a4.861,4.861,0,0,1,3.139-1.071Zm0,1.182h0a3.906,3.906,0,0,0-2.6.924h0A5.879,5.879,0,0,0,333.184,8.8h0a12.605,12.605,0,0,0-.583,4.046h0a12.605,12.605,0,0,0,.583,4.046h0a5.879,5.879,0,0,0,1.695,2.642h0a3.906,3.906,0,0,0,2.6.924h0a3.96,3.96,0,0,0,2.612-.924h0a5.879,5.879,0,0,0,1.695-2.642h0a12.334,12.334,0,0,0,.6-4.046h0a12.334,12.334,0,0,0-.6-4.046h0a5.879,5.879,0,0,0-1.695-2.642h0a3.96,3.96,0,0,0-2.612-.924Zm23.129-.924h0a4.04,4.04,0,0,1,3.181,1.33h0a5.357,5.357,0,0,1,1.167,3.658h0a5.429,5.429,0,0,1-1.167,3.676h0a4.014,4.014,0,0,1-3.181,1.349h-3.292v7.057h-.972V4.307Zm-.125,8.793h0a3.25,3.25,0,0,0,2.556-.979h0a4.065,4.065,0,0,0,.889-2.826h0a4.078,4.078,0,0,0-.889-2.808h0a3.219,3.219,0,0,0-2.556-1h-3.167V13.1Zm17.975,7.094h8.113v1.182h-9.085V4.307h8.765V5.489h-7.793v6.595h6.168V13.3h-6.168Zm30.3,1.182H407.6l-3.667-7.389h-3.848v7.389h-.972V4.307h4.765A3.869,3.869,0,0,1,406.933,5.6h0a5.18,5.18,0,0,1,1.139,3.547h0a5.415,5.415,0,0,1-.82,3.085h0a3.654,3.654,0,0,1-2.236,1.589h0ZM400.085,5.489v7.279h3.765a3.022,3.022,0,0,0,2.389-.942h0a3.914,3.914,0,0,0,.82-2.679h0a4.062,4.062,0,0,0-.82-2.716h0a3.022,3.022,0,0,0-2.389-.942h-3.765Z" fill="#fff"/>
        </g>
      </g>
    </g>
  </g>
</svg>
