<?xml version="1.0"?>
<svg xmlns="http://www.w3.org/2000/svg" xmlns:xlink="http://www.w3.org/1999/xlink" xmlns:svgjs="http://svgjs.com/svgjs" version="1.1" width="512" height="512" x="0" y="0" viewBox="0 0 163.505 163.505" style="enable-background:new 0 0 512 512" xml:space="preserve"><g>
<g xmlns="http://www.w3.org/2000/svg">
	<path d="M162.902,70.911c-0.691-1.628-1.179-3.349-1.691-5.05c-0.487-1.607-0.563-3.448-1.406-4.819   c-1.818-2.96-2.61-5.987-2.042-9.402c0.082-0.495,0.071-1.161-0.197-1.536c-1.331-1.872-2.483-3.768-1.98-6.208   c0.269,0.027,0.624,0.068,1.183,0.124c-0.36-0.528-0.568-0.939-0.873-1.262c-1.427-1.536-1.615-3.06-0.533-4.981   c0.894-1.592,1.346-3.438,1.925-5.19c0.178-0.531,0.162-1.129,0.233-1.696c-1.412,0.921-2.234,2.257-3.412,2.922   c-1.229,0.681-2.956,1.196-4.189,0.838c-0.666-0.192-0.838-2.351-1.072-3.65c-0.111-0.65,0.122-1.366,0.209-2.055   c-0.147-0.119-0.3-0.243-0.457-0.363c-0.777,0.502-1.783,0.843-2.291,1.543c-1.635,2.293-3.584,1.186-5.596,0.754   c-0.69,2.153-2.066,3.219-4.529,3.026c-1.939-0.15-3.931,0.104-5.88,0.272c-2.463,0.205-2.793-0.063-2.89-2.712   c-1.503,1.64-3.006,3.283-4.474,4.89c-0.671-0.193-1.579-0.447-2.488-0.704c-0.417,0.074-0.655-0.7-0.681-0.695   c-1.249,0.348-1.919-0.427-2.641-1.206c-0.061-0.063-0.959,0.353-1.025,0.65c-0.284,1.196-0.406,2.432-0.614,3.836   c-1.071-0.77-1.813-1.305-2.788-2.014c-0.27,1.181-0.457,1.993-0.676,2.94c-0.487-0.246-0.898-0.449-1.416-0.703   c0,0.894,0,1.587,0,2.346c-1.32,0.378-2.56,0.739-3.22,0.924c-0.894,1.648-1.681,2.862-2.225,4.177   c-0.497,1.211-0.726,2.531-1.066,3.791c0.361,0.14,0.65,0.254,1.174,0.457c-0.798,0.516-1.356,0.879-2.453,1.592   c0.6-4.648,1.046-8.688,1.676-12.7c0.721-4.601,0.808-4.631-3.209-6.894c-1.046-0.589-1.229-1.166-0.69-2.216   c0.497-0.993,1.183-2.085,1.157-3.118c-0.04-2.346,0.812-3.734,3.139-4.177c0.061-0.01,0.091-0.218,0.137-0.337   c-0.168,0.074-0.33,0.145-0.492,0.218c-0.671-1.3-1.523-2.544-1.96-3.915c-1.854-5.83-7.902-7.411-12.36-3.313   c-3.188,2.933-2.782,8.071-1.549,10.875c0.99,2.24,1.057,2.546-1.224,3.375c-0.873,0.317-1.727,0.69-2.61,0.935   c-2.389,0.655-3.823,2.168-4.483,4.544c-0.666,2.381-1.447,4.733-2.158,7.099c-1.026,3.399-2.72,4.644-6.391,4.72   c-0.589,0.01-1.196,0.112-1.752,0.302c-3.9,1.348-7.785,2.735-11.877,4.177c1.247,2.462,2.902,4.804,5.299,6.474   c1.351,0.945,1.731,1.851,1.166,3.445c-0.917,2.585-0.251,5.015,1.569,6.99c1.607,1.742,3.448,3.26,5.144,4.923   c1.61,1.582,3.161,3.225,4.923,5.035c-1.31,0.81-2.122,1.361-2.973,1.835c-1.895,1.046-3.745,1.594-6.002,0.736   c-1.602-0.606-3.479-0.606-5.235-0.68c-1.612-0.066-1.881,0.853-1.572,2.355c0.312,1.488,0.257,3.058,0.312,4.591   c0.01,0.27-0.503,1.706-0.988,3.037c-0.696,0.106-1.419,0.111-2.188-0.051c-0.272-0.062-0.625,0.335-0.952,0.492   c-0.691,0.325-1.366,0.854-2.089,0.924c-6.173,0.635-11.654,2.899-16.339,6.937c-2.013,1.737-3.94,3.062-6.639,1.498   c-0.381-0.218-0.896-0.238-1.354-0.273c-4.273-0.325-8.247,0.451-10.841,4.164c-1.97,2.828-3.479,5.981-5.21,8.978   c-1.523,2.63-2.516,5.316-1.424,8.403c0.368,1.057-0.188,1.58-1.265,1.732c-0.988,0.146-1.955,0.426-3.359,0.746   c1.285,0.69,2.087,1.117,3.026,1.62c-0.729,1.011-1.95,1.95-2.064,3.006c-0.244,2.265-1.668,3.433-3.135,4.764   c-0.645,0.589-1.58,1.919-1.384,2.188c1,1.381,1.706-0.147,2.569-0.514c0.577-0.243,1.374-0.584,1.81-0.36   c0.368,0.188,0.551,1.143,0.478,1.717c-0.233,1.798-0.706,3.569-0.939,5.367c-0.063,0.462-0.193,0.808-0.365,1.097H3.989   C1.79,142.5,0,144.288,0,146.497c0,2.214,1.79,4.001,3.999,4.001h139.916c2.209,0,3.997-1.787,3.997-4.001   c0-2.209-1.788-3.997-3.997-3.997H54.966c2.143-3.605,4.316-7.19,6.439-10.811c0.729-1.244,1.449-2.539,1.881-3.9   c0.417-1.31,1.112-1.741,2.425-1.787c5.802-0.208,11.616-0.3,17.393-0.808c5.436-0.478,10.915-1.097,15.901-3.682   c0.432-0.224,0.98-0.229,1.488-0.284c1.584-0.188,3.188-0.264,4.758-0.563c1.274-0.244,2.468-0.879,3.742-1.102   c4.977-0.863,9.485-2.641,13.284-6.084c2.052-1.858,4.433-3.169,7.338-2.884c0.726,0.065,1.965,0.477,2.006,0.838   c0.116,1.102,0.146,2.376-1.523,2.742c-1.234,0.269-2.356,0.934-1.96,2.676c-1.676,0.31-3.413,0.427-4.997,0.97   c-3.047,1.046-5.52,2.864-6.429,6.19c-0.884,3.234,0.731,4.875,3.961,4.179c0.67-0.147,1.635-0.097,2.112,0.29   c1.046,0.832,1.96,0.751,2.884,0.056c2.702-2.021,6.022-3.235,7.836-6.419c0.66-1.158,1.995-1.919,2.889-2.966   c0.935-1.076,1.788-2.233,2.539-3.442c1.798-2.885,3.312-5.967,5.317-8.693c2.279-3.098,2.736-5.814,0.451-8.953   c-1.645-2.254-3.447-4.453-5.515-6.302c-1.229-1.106-3.107-1.487-4.677-2.233c-0.543-0.254-1.315-0.498-1.503-0.95   c-1.214-2.895-2.239-5.875-3.453-8.774c-0.451-1.087-0.269-1.846,0.686-2.326c1.585-0.789,3.25-1.404,4.845-2.173   c1.279-0.612,2.498-1.346,3.747-2.029c-0.944,0.317-1.898,0.635-2.884,0.968c-0.741,0.251-1.503,0.505-2.306,0.774   c-0.264,0.089-0.538,0.183-0.817,0.271c1.106-1.93,1.995-3.473,2.971-5.164c1.595,0.162,2.793,1.071,3.392,2.793   c2.001,1.473,3.931,3.062,6.054,4.326c0.477,0.282,1.695-0.49,2.447-0.973c0.416-0.269,0.568-0.947,1.168-2.023   c0.589,1.333,1.046,2.133,1.3,2.996c0.264,0.904,0.335,1.861,0.432,2.43c1.325,0.206,2.453,0.102,3.271,0.562   c3.752,2.117,5.991,1.219,7.235-1.811c0.244-0.599,0.62-1.181,1.057-1.653C163.78,74.981,163.821,73.066,162.902,70.911z    M36.653,142.5c1.285-1.808,2.575-3.62,3.859-5.428c0.264,0.03,0.536,0.061,0.8,0.091c0.198,1.782,0.432,3.555,0.551,5.337H36.653z    M92.835,59.635c-0.122,0.218-0.254,0.432-0.376,0.645c-0.127,0.213-0.254,0.427-0.37,0.645c-0.173,0.33-0.32,0.655-0.432,1.006   c-0.071,0.224-0.122,0.457-0.152,0.69c-0.051,0.358-0.076,0.734-0.097,1.127c-0.021,0.396-0.046,0.812-0.086,1.254   c-0.214-0.145-0.478-0.259-0.752-0.363c-0.27-0.104-0.559-0.203-0.833-0.307c-0.365-0.142-0.711-0.302-0.984-0.526   c-0.265-0.223-0.457-0.515-0.508-0.916c-0.016-0.097-0.016-0.206-0.011-0.32c0.011-0.117,0.021-0.241,0.051-0.371   c0.081-0.421,0.157-0.79,0.254-1.117c0.132-0.49,0.279-0.883,0.457-1.186c0.122-0.203,0.249-0.368,0.396-0.505   c0.233-0.198,0.497-0.322,0.822-0.378c0.66-0.119,1.544,0.015,2.803,0.292C92.958,59.422,92.902,59.529,92.835,59.635z    M101.793,120.898c-0.102-0.31-0.214-0.619-0.315-0.929c1.438-0.452,2.874-0.909,4.316-1.361c0.071,0.213,0.143,0.432,0.213,0.645   C104.601,119.802,103.195,120.355,101.793,120.898z M118.246,115.395c-2.325,0.97-4.742,1.727-7.149,2.487   c-0.66,0.209-1.401,0.168-2.62,0.295c3.103-1.849,5.713-3.488,8.419-4.946c0.559-0.305,1.482,0.071,2.229,0.133   C118.834,114.068,118.733,115.191,118.246,115.395z M134.231,71.462c-1.203,1.528-2.503,2.979-3.803,4.428   c-0.432,0.485-0.868,0.97-1.295,1.453c-0.183-0.12-0.366-0.244-0.549-0.363c-0.01-0.917,0.076-1.801,0.265-2.659   c0.07-0.343,0.162-0.68,0.269-1.013c0.051-0.167,0.106-0.333,0.168-0.495c0.478-1.31,1.188-2.531,2.122-3.656   c0.081-0.096,0.233-0.149,0.437-0.165c0.057-0.005,0.107-0.005,0.163-0.005c0.111,0,0.233,0.01,0.36,0.025   c0.254,0.03,0.533,0.089,0.797,0.16c0.071,0.022,0.143,0.038,0.203,0.059c0.193,0.063,0.386,0.129,0.549,0.198   c0.061,0.025,0.111,0.045,0.162,0.074C134.394,69.646,134.546,71.056,134.231,71.462z M132.454,66.699   c0.701-0.937,1.229-1.632,2.011-2.678c0.066,0.119,0.133,0.233,0.203,0.337c0.152,0.213,0.325,0.396,0.519,0.561   c0.091,0.084,0.192,0.163,0.294,0.241c0.305,0.229,0.635,0.432,0.955,0.637c0.64,0.421,1.239,0.886,1.549,1.67   c0.106,0.259,0.168,0.562,0.198,0.904c0.015,0.173,0.015,0.358,0.005,0.556C136.095,68.118,134.414,67.463,132.454,66.699z    M146.708,75.453c-1.808-0.873-3.666-1.678-5.407-2.671c-0.473-0.271-0.609-1.122-0.904-1.711c0.589-0.203,1.274-0.701,1.757-0.551   c0.224,0.069,0.447,0.155,0.66,0.264c0.432,0.208,0.843,0.479,1.254,0.749c0.203,0.137,0.406,0.276,0.609,0.406   c0.158,0.104,0.33,0.213,0.488,0.322c0.482,0.328,0.959,0.686,1.365,1.097c0.097,0.099,0.183,0.213,0.265,0.333   c0.162,0.238,0.289,0.51,0.426,0.774c0.066,0.137,0.133,0.267,0.203,0.391C147.19,75.06,146.947,75.258,146.708,75.453z" fill="#ffffff" data-original="#000000" style=""/>
</g>
<g xmlns="http://www.w3.org/2000/svg">
</g>
<g xmlns="http://www.w3.org/2000/svg">
</g>
<g xmlns="http://www.w3.org/2000/svg">
</g>
<g xmlns="http://www.w3.org/2000/svg">
</g>
<g xmlns="http://www.w3.org/2000/svg">
</g>
<g xmlns="http://www.w3.org/2000/svg">
</g>
<g xmlns="http://www.w3.org/2000/svg">
</g>
<g xmlns="http://www.w3.org/2000/svg">
</g>
<g xmlns="http://www.w3.org/2000/svg">
</g>
<g xmlns="http://www.w3.org/2000/svg">
</g>
<g xmlns="http://www.w3.org/2000/svg">
</g>
<g xmlns="http://www.w3.org/2000/svg">
</g>
<g xmlns="http://www.w3.org/2000/svg">
</g>
<g xmlns="http://www.w3.org/2000/svg">
</g>
<g xmlns="http://www.w3.org/2000/svg">
</g>
</g></svg>
