<svg data-v-423bf9ae="" xmlns="http://www.w3.org/2000/svg" viewBox="0 0 337 90" class="iconLeft"><!----><!----><!----><g data-v-423bf9ae="" id="ab7f07ce-7800-449f-85f8-587b95f508e2" fill="#fff" transform="matrix(6.54307587140309,0,0,6.54307587140309,103.3689773154039,-38.78408588696031)"><path d="M1.46 8.43L2.37 8.43L2.37 17.18L1.46 17.18L1.46 8.43ZM5.35 17.18L5.35 8.43L6.22 8.43L10.12 14.73L10.12 14.73Q10.16 14.80 10.28 14.99L10.28 14.99L10.28 14.99Q10.40 15.19 10.44 15.30L10.44 15.30L10.44 15.30Q10.47 15.41 10.49 15.55L10.49 15.55L10.57 15.55L10.57 8.43L11.48 8.43L11.48 17.18L10.61 17.18L6.71 10.88L6.71 10.88Q6.66 10.81 6.54 10.61L6.54 10.61L6.54 10.61Q6.43 10.42 6.39 10.30L6.39 10.30L6.39 10.30Q6.36 10.19 6.34 10.05L6.34 10.05L6.26 10.05L6.26 17.18L5.35 17.18ZM14.08 12.81L14.08 12.81Q14.08 10.75 14.32 9.82L14.32 9.82L14.32 9.82Q14.56 8.89 15.24 8.55L15.24 8.55L15.24 8.55Q15.92 8.22 17.40 8.22L17.40 8.22L17.40 8.22Q18.87 8.22 19.55 8.55L19.55 8.55L19.55 8.55Q20.23 8.89 20.47 9.83L20.47 9.83L20.47 9.83Q20.71 10.77 20.71 12.81L20.71 12.81L20.71 12.81Q20.71 14.85 20.47 15.79L20.47 15.79L20.47 15.79Q20.23 16.72 19.55 17.05L19.55 17.05L19.55 17.05Q18.87 17.39 17.40 17.39L17.40 17.39L17.40 17.39Q15.92 17.39 15.24 17.05L15.24 17.05L15.24 17.05Q14.56 16.72 14.32 15.79L14.32 15.79L14.32 15.79Q14.08 14.85 14.08 12.81L14.08 12.81ZM15.05 16.62L18.49 16.62L18.49 16.62Q19.19 16.62 19.47 16.37L19.47 16.37L19.47 16.37Q19.74 16.13 19.74 15.50L19.74 15.50L19.74 8.99L16.27 8.99L16.27 8.99Q15.58 8.99 15.32 9.23L15.32 9.23L15.32 9.23Q15.05 9.48 15.05 10.11L15.05 10.11L15.05 16.62ZM21.97 8.43L22.88 8.43L25.14 16.38L25.27 16.38L27.54 8.43L28.45 8.43L25.87 17.18L24.54 17.18L21.97 8.43ZM34.71 17.18L34.05 15.02L30.42 15.02L29.76 17.18L28.85 17.18L31.57 8.43L32.90 8.43L35.62 17.18L34.71 17.18ZM30.66 14.24L33.81 14.24L32.30 9.23L32.17 9.23L30.66 14.24Z"></path></g><defs data-v-423bf9ae=""><linearGradient data-v-423bf9ae="" gradientTransform="rotate(25)" id="c0e465b7-13a5-41e7-b7a4-199340ecabca" x1="0%" y1="0%" x2="100%" y2="0%"><stop data-v-423bf9ae="" offset="0%" style="stop-color: rgb(142, 66, 211); stop-opacity: 1;"></stop><stop data-v-423bf9ae="" offset="100%" style="stop-color: rgb(212, 105, 117); stop-opacity: 1;"></stop></linearGradient></defs><g data-v-423bf9ae="" id="7e3ed5bc-1768-4372-93bb-a684862284f2" transform="matrix(1.2693936212660621,0,0,1.2693936212660621,-10.99323764898839,-12.909451161056232)" stroke="none" fill="url(#c0e465b7-13a5-41e7-b7a4-199340ecabca)"><path d="M71.5 18.9c.3-.7.5-1.5.5-2.3 0-3.2-2.6-5.8-5.8-5.8s-5.8 2.6-5.8 5.8 2.6 5.8 5.8 5.8c1 0 2-.3 2.8-.7 6.3 6.2 9.9 14.6 9.9 23.5C78.9 63.3 64.2 78 46 78S13.2 63.3 13.2 45.1c0-6.9 2.2-13.6 6.2-19.2.6.2 1.3.4 2.1.4 3.2 0 5.8-2.6 5.8-5.8s-2.6-5.8-5.8-5.8-5.8 2.6-5.8 5.8c0 1.1.3 2.1.8 3-4.6 6.2-7.1 13.8-7.1 21.6 0 20.2 16.4 36.6 36.6 36.6s36.6-16.4 36.6-36.6c.1-9.9-4-19.3-11.1-26.2z"></path><path d="M27 35c0 1.7.7 3.2 1.9 4.3-.6 1.9-1 3.8-1 5.8 0 10 8.1 18.1 18.1 18.1s18.1-8.1 18.1-18.1c0-2.8-.6-5.5-1.9-8 .7-1 1.1-2.2 1.1-3.4 0-3.2-2.6-5.8-5.8-5.8s-5.8 2.6-5.8 5.8c0 3.2 2.6 5.8 5.8 5.8.5 0 1-.1 1.5-.2.8 1.8 1.2 3.8 1.2 5.9 0 7.9-6.4 14.3-14.3 14.3s-14.3-6.4-14.3-14.3c0-1.5.2-3 .7-4.4h.4c3.2 0 5.8-2.6 5.8-5.8 0-3.2-2.6-5.8-5.8-5.8S27 31.8 27 35z"></path><path d="M27.3 52c0-3.2-2.6-5.8-5.8-5.8s-5.8 2.6-5.8 5.8c0 3.2 2.6 5.8 5.8 5.8h.5c4.7 8.9 13.9 14.6 24.1 14.6 15 0 27.1-12.2 27.1-27.1 0-7.3-2.8-14.1-8-19.2-4.7-4.7-10.9-7.5-17.5-7.9-.6-2.6-2.9-4.5-5.7-4.5-3.2 0-5.8 2.6-5.8 5.8s2.6 5.8 5.8 5.8c2.3 0 4.3-1.4 5.3-3.4 5.8.3 11.1 2.7 15.2 6.8 4.4 4.4 6.9 10.3 6.9 16.5C69.4 58.1 59 68.5 46 68.5c-8.7 0-16.6-4.8-20.6-12.4 1.1-1 1.9-2.5 1.9-4.1z"></path></g><!----></svg>