<?xml version="1.0"?>
<svg xmlns="http://www.w3.org/2000/svg" xmlns:xlink="http://www.w3.org/1999/xlink" xmlns:svgjs="http://svgjs.com/svgjs" version="1.1" width="512" height="512" x="0" y="0" viewBox="0 0 511.999 511.999" style="enable-background:new 0 0 512 512" xml:space="preserve"><g>
<g xmlns="http://www.w3.org/2000/svg">
	<g>
		<path d="M375.458,216.251l29.342-57.707l69.723,125.184c3.658,6.569,10.47,10.272,17.491,10.272c3.293,0,6.632-0.815,9.713-2.531    c9.65-5.375,13.116-17.554,7.741-27.203L421.47,106.268c-3.597-6.457-10.443-10.397-17.851-10.265    c-7.39,0.14-14.1,4.343-17.45,10.932l-33.045,64.99L272.043,11.002c-3.399-6.746-10.308-11.001-17.861-11.001H253    c-7.612,0-14.564,4.321-17.934,11.147l-79.938,161.933l-55.04-90.476c-3.732-6.136-10.46-9.789-17.648-9.598    c-7.179,0.202-13.699,4.237-17.081,10.573L2.361,201.578c-5.202,9.744-1.521,21.86,8.223,27.063    c9.744,5.202,21.86,1.52,27.062-8.224l46.489-87.074l50.02,82.226L2.071,483.14c-4.89,9.905-0.824,21.897,9.081,26.787    c2.847,1.405,5.864,2.07,8.838,2.07c7.372,0,14.465-4.094,17.948-11.151l99.222-200.998l35.839,57.865    c3.655,5.902,10.097,9.469,17,9.469c0.274,0,0.551-0.006,0.826-0.017c7.212-0.297,13.705-4.458,16.988-10.886l49.655-97.226    l23.923,44.426c5.237,9.726,17.365,13.364,27.092,8.127c9.725-5.237,13.364-17.366,8.127-27.091l-41.999-77.999    c-3.491-6.483-10.257-10.518-17.608-10.518c-0.072,0-0.146,0-0.219,0.001c-7.435,0.081-14.212,4.28-17.594,10.902l-50.864,99.591    l-30.298-48.917l95.741-193.949l220.366,437.365c4.972,9.865,16.997,13.833,26.859,8.862c9.864-4.97,13.832-16.996,8.862-26.86    L375.458,216.251z" fill="#ffffff" data-original="#000000" style=""/>
	</g>
</g>
<g xmlns="http://www.w3.org/2000/svg">
</g>
<g xmlns="http://www.w3.org/2000/svg">
</g>
<g xmlns="http://www.w3.org/2000/svg">
</g>
<g xmlns="http://www.w3.org/2000/svg">
</g>
<g xmlns="http://www.w3.org/2000/svg">
</g>
<g xmlns="http://www.w3.org/2000/svg">
</g>
<g xmlns="http://www.w3.org/2000/svg">
</g>
<g xmlns="http://www.w3.org/2000/svg">
</g>
<g xmlns="http://www.w3.org/2000/svg">
</g>
<g xmlns="http://www.w3.org/2000/svg">
</g>
<g xmlns="http://www.w3.org/2000/svg">
</g>
<g xmlns="http://www.w3.org/2000/svg">
</g>
<g xmlns="http://www.w3.org/2000/svg">
</g>
<g xmlns="http://www.w3.org/2000/svg">
</g>
<g xmlns="http://www.w3.org/2000/svg">
</g>
</g></svg>
