<?xml version="1.0" encoding="iso-8859-1"?>
<!-- Generator: Adobe Illustrator 19.0.0, SVG Export Plug-In . SVG Version: 6.00 Build 0)  -->
<svg version="1.1" id="Capa_1" xmlns="http://www.w3.org/2000/svg" xmlns:xlink="http://www.w3.org/1999/xlink" x="0px" y="0px"
	 viewBox="0 0 389.12 389.12" style="enable-background:new 0 0 389.12 389.12;" xml:space="preserve">
<polygon style="fill:#EAEAEA;" points="81.92,39.801 320.853,39.801 368.64,374.308 20.48,374.308 "/>
<path style="fill:#602F75;" d="M368.64,381.135H20.48c-2.028,0-3.946-0.901-5.246-2.458c-1.294-1.556-1.833-3.611-1.468-5.605
	l61.44-334.507c0.594-3.239,3.42-5.594,6.714-5.594h238.933c3.4,0,6.281,2.495,6.758,5.861l47.787,334.507
	c0.28,1.959-0.307,3.942-1.601,5.441C372.5,380.274,370.62,381.135,368.64,381.135z M28.672,367.481h332.093L314.931,46.628H87.603
	L28.672,367.481z"/>
<polyline style="fill:#FFFFFF;" points="97.713,288.012 95.055,363.727 343.593,367.631 316.6,230.17 274.214,209.737 
	292.56,14.809 106.523,37.2 99.386,240.375 "/>
<path style="fill:#602F75;" d="M343.593,374.458c-0.034,0-0.072,0-0.106,0L94.949,370.55c-1.833-0.031-3.581-0.792-4.84-2.123
	c-1.266-1.331-1.939-3.11-1.874-4.942l2.659-75.711c0.126-3.775,3.587-6.721,7.059-6.584c3.768,0.133,6.714,3.297,6.581,7.062
	l-2.413,68.755l233.148,3.662l-24.709-125.833l-39.315-18.947c-2.567-1.239-4.099-3.946-3.826-6.789l17.555-186.501L113.145,43.283
	l-6.939,197.332c-0.126,3.686-3.154,6.588-6.813,6.588c-0.085,0-0.167,0-0.246-0.003c-3.768-0.133-6.714-3.297-6.581-7.062
	l7.141-203.172c0.113-3.359,2.666-6.137,6.007-6.537L291.748,8.033c2.007-0.242,4.093,0.444,5.581,1.888
	c1.475,1.44,2.225,3.475,2.028,5.53l-17.9,190.205l38.113,18.367c1.932,0.932,3.321,2.727,3.734,4.833l26.993,137.462
	c0.393,2.024-0.14,4.113-1.461,5.697C347.532,373.56,345.614,374.458,343.593,374.458z"/>
<path style="fill:#FFE600;" d="M136.533,374.308c0-26.392-21.395-47.787-47.787-47.787S40.96,347.916,40.96,374.308H136.533z"/>
<path style="fill:#602F75;" d="M136.533,381.135H40.96c-3.772,0-6.827-3.058-6.827-6.827c0-30.112,24.501-54.613,54.613-54.613
	s54.613,24.501,54.613,54.613C143.36,378.076,140.305,381.135,136.533,381.135z M48.353,367.481h80.787
	c-3.26-19.347-20.132-34.133-40.393-34.133S51.613,348.134,48.353,367.481z"/>
<path style="fill:#EA3457;" d="M327.68,374.308c0-26.392-21.395-47.787-47.787-47.787s-47.787,21.395-47.787,47.787H327.68z"/>
<path style="fill:#602F75;" d="M327.68,381.135h-95.573c-3.772,0-6.827-3.058-6.827-6.827c0-30.112,24.501-54.613,54.613-54.613
	s54.613,24.501,54.613,54.613C334.507,378.076,331.452,381.135,327.68,381.135z M239.5,367.481h80.787
	c-3.26-19.347-20.132-34.133-40.393-34.133S242.76,348.134,239.5,367.481z"/>
<path style="fill:#EA3457;" d="M150.187,374.308c0-18.848-15.282-34.133-34.133-34.133S81.92,355.459,81.92,374.308H150.187z"/>
<g>
	<path style="fill:#602F75;" d="M150.187,381.135H81.92c-3.772,0-6.827-3.058-6.827-6.827c0-22.586,18.374-40.96,40.96-40.96
		s40.96,18.374,40.96,40.96C157.013,378.076,153.958,381.135,150.187,381.135z M89.614,367.481h52.879
		c-3.034-11.762-13.739-20.48-26.44-20.48S92.648,355.719,89.614,367.481z"/>
	<rect x="109.227" y="94.415" style="fill:#602F75;" width="164.011" height="13.653"/>
</g>
<path style="fill:#00E7FF;" d="M122.88,101.241h136.533v170.694c0,11.291-8.96,18.214-19.852,15.49l-96.826-24.207
	c-10.967-2.737-19.855-14.083-19.855-25.491V101.241z"/>
<g>
	<path style="fill:#602F75;" d="M244.173,294.835c-2.062,0-4.161-0.259-6.267-0.785l-96.826-24.207
		c-14.032-3.505-25.027-17.609-25.027-32.116V101.241c0-3.768,3.055-6.827,6.827-6.827h136.533c3.772,0,6.827,3.058,6.827,6.827
		v170.694c0,7.479-3.079,14.172-8.448,18.367C253.972,293.282,249.214,294.835,244.173,294.835z M129.707,108.068v129.659
		c0,8.24,6.721,16.879,14.681,18.865l96.826,24.207c3.219,0.802,6.113,0.348,8.178-1.263c2.062-1.608,3.195-4.308,3.195-7.602
		V108.068H129.707z"/>
	<rect x="150.187" y="135.375" style="fill:#602F75;" width="13.653" height="75.093"/>
</g>
<rect x="143.36" y="230.944" style="fill:#00E7FF;" width="95.573" height="136.533"/>
<path style="fill:#602F75;" d="M238.933,374.308H143.36c-3.772,0-6.827-3.058-6.827-6.827V230.948c0-3.768,3.055-6.827,6.827-6.827
	h95.573c3.772,0,6.827,3.058,6.827,6.827v136.533C245.76,371.25,242.705,374.308,238.933,374.308z M150.187,360.655h81.92v-122.88
	h-81.92V360.655z"/>
<path style="fill:#FFFFFF;" d="M218.453,374.308c0-26.392-21.395-47.787-47.787-47.787s-47.787,21.395-47.787,47.787H218.453z"/>
<g>
	<path style="fill:#602F75;" d="M218.453,381.135H122.88c-3.772,0-6.827-3.058-6.827-6.827c0-30.112,24.501-54.613,54.613-54.613
		s54.613,24.501,54.613,54.613C225.28,378.076,222.225,381.135,218.453,381.135z M130.273,367.481h80.787
		c-3.26-19.347-20.132-34.133-40.393-34.133S133.533,348.134,130.273,367.481z"/>
	<rect x="204.8" y="237.771" style="fill:#602F75;" width="13.653" height="75.093"/>
</g>
<path style="fill:#FFE600;" d="M252.587,374.308c0-18.848-15.281-34.133-34.133-34.133s-34.133,15.285-34.133,34.133H252.587z"/>
<g>
	<path style="fill:#602F75;" d="M252.587,381.135H184.32c-3.772,0-6.827-3.058-6.827-6.827c0-22.586,18.374-40.96,40.96-40.96
		s40.96,18.374,40.96,40.96C259.413,378.076,256.358,381.135,252.587,381.135z M192.014,367.481h52.879
		c-3.034-11.762-13.739-20.48-26.44-20.48C205.752,347.001,195.048,355.719,192.014,367.481z"/>
	<rect y="367.478" style="fill:#602F75;" width="389.12" height="13.653"/>
</g>
<g>
</g>
<g>
</g>
<g>
</g>
<g>
</g>
<g>
</g>
<g>
</g>
<g>
</g>
<g>
</g>
<g>
</g>
<g>
</g>
<g>
</g>
<g>
</g>
<g>
</g>
<g>
</g>
<g>
</g>
</svg>
