<?xml version="1.0" encoding="utf-8"?>
<!-- Generator: Adobe Illustrator 24.3.0, SVG Export Plug-In . SVG Version: 6.00 Build 0)  -->
<svg version="1.1" xmlns="http://www.w3.org/2000/svg" xmlns:xlink="http://www.w3.org/1999/xlink" x="0px" y="0px"
	 viewBox="0 0 204.7 196.3" style="enable-background:new 0 0 204.7 196.3;" xml:space="preserve">
<style type="text/css">
	.st0{fill:#FFF6F0;}
	.st1{fill:#FFF8E1;}
	.st2{fill:#00372B;}
	.st3{opacity:0.2;clip-path:url(#SVGID_2_);}
	.st4{fill:#B1DEA2;}
	.st5{fill:#C11462;}
	.st6{fill:#FFFFFF;}
	.st7{opacity:0.2;clip-path:url(#SVGID_4_);}
	.st8{opacity:0.2;clip-path:url(#SVGID_6_);}
	.st9{fill:#009E29;}
	.st10{fill:#DFF4D7;}
	.st11{fill:#DCDCFF;}
	.st12{fill:#F2D6E3;}
	.st13{fill:#FCF2EB;}
	.st14{fill:#D3F4DA;}
	.st15{fill:#FCD945;}
	.st16{fill:#C9F4E9;}
	.st17{fill:#EB5F0A;}
	.st18{clip-path:url(#SVGID_8_);}
	.st19{fill:#003504;}
	.st20{clip-path:url(#SVGID_10_);}
	.st21{clip-path:url(#SVGID_12_);}
	.st22{fill:#EBF8E5;}
	.st23{clip-path:url(#SVGID_14_);}
	.st24{opacity:0.2;clip-path:url(#SVGID_16_);}
	.st25{clip-path:url(#SVGID_18_);}
	.st26{clip-path:url(#SVGID_20_);}
	.st27{clip-path:url(#SVGID_22_);}
	.st28{clip-path:url(#SVGID_24_);}
	.st29{clip-path:url(#SVGID_26_);}
	.st30{clip-path:url(#SVGID_28_);}
	.st31{clip-path:url(#SVGID_30_);}
	.st32{clip-path:url(#SVGID_32_);}
	.st33{clip-path:url(#SVGID_34_);}
	.st34{clip-path:url(#SVGID_36_);}
	.st35{clip-path:url(#SVGID_38_);}
	.st36{fill:none;}
	.st37{clip-path:url(#SVGID_40_);}
	.st38{opacity:0.2;clip-path:url(#SVGID_42_);}
	.st39{clip-path:url(#SVGID_44_);}
	.st40{clip-path:url(#SVGID_46_);}
	.st41{clip-path:url(#SVGID_48_);}
	.st42{clip-path:url(#SVGID_50_);}
	.st43{clip-path:url(#SVGID_52_);}
	.st44{clip-path:url(#SVGID_54_);}
	.st45{clip-path:url(#SVGID_56_);}
	.st46{clip-path:url(#SVGID_58_);}
	.st47{clip-path:url(#SVGID_60_);}
	.st48{clip-path:url(#SVGID_62_);}
	.st49{clip-path:url(#SVGID_64_);}
	.st50{opacity:0.2;clip-path:url(#SVGID_66_);}
	.st51{opacity:0.2;clip-path:url(#SVGID_68_);}
	.st52{opacity:0.2;clip-path:url(#SVGID_70_);}
	.st53{fill:#2D2A26;}
	.st54{clip-path:url(#SVGID_72_);}
	.st55{clip-path:url(#SVGID_74_);}
	.st56{clip-path:url(#SVGID_76_);}
	.st57{opacity:0.2;clip-path:url(#SVGID_78_);}
	.st58{opacity:0.2;clip-path:url(#SVGID_80_);}
	.st59{opacity:0.2;}
	.st60{fill:none;stroke:#E6007E;stroke-width:0.2946;stroke-miterlimit:10;}
</style>
<g id="Layer_1">
</g>
<g id="Layer_3">
	<g>
		<path class="st36" d="M41.1,56.9c6-15.3,12.6-31.9,21.9-45.4c-10.7,4.9-20.8,11.7-29.8,20.3C13.9,50.3,2.8,74.5,2.8,98.1
			c0,0.7,0,1.4,0,2.1c3.5-0.2,7.1-0.4,10.7-0.7C25.7,96.1,32.8,77.9,41.1,56.9z"/>
		<path class="st36" d="M20.7,99.1c3-0.2,6-0.4,9.1-0.6c3.4-0.2,6.9-0.5,10.5-0.7c0.6-0.4,1.2-0.9,2-1.3c4.4-2.6,9.4-4.3,15.1-5
			v-7.3c0-0.4-0.1-1-0.4-1.9c-0.3-0.9-0.9-1.7-2-2.6c-1-0.8-2.5-1.3-4.5-1.3c-1.9,0-3.1,0.5-3.7,1.5c-0.2,0.4-0.3,0.8-0.3,1.3
			c0,0.8,0.2,1.7,0.7,2.7c0.4,1,0.6,1.8,0.6,2.4c0,1.5-0.6,2.8-1.7,3.9s-2.4,1.6-3.9,1.6c-1.4,0-2.7-0.6-3.8-1.7s-1.7-2.4-1.7-3.9
			c-0.1-0.8,0.1-1.8,0.4-3c0.3-1.2,1.1-2.4,2.2-3.5c2.6-2.9,7.1-4.3,13.5-4.3c5.8,0,10.1,1.5,12.9,4.5c1.5,1.5,2.4,3,2.8,4.6
			c0.4,1.6,0.6,2.9,0.6,3.9v1.2c2-2.3,4-5.1,5.9-8.2v-0.6l0.4-0.1c1.4-2.2,2.7-4.7,4-7.2c-0.2-0.2-0.4-0.3-0.6-0.5
			c-1.1-1.1-1.6-2.5-1.6-4.1s0.5-2.9,1.6-4c1.1-1.1,2.4-1.7,3.9-1.7c0.6,0,1.2,0.1,1.8,0.3c0,0,0-0.1,0-0.1
			c9.9-19.7,21.4-42.6,42.7-56.9c-8.5-2.5-17.2-3.9-25.8-3.9C90.2,2.8,79,5.1,68.1,9.3C57.4,23.2,50.3,41.3,43.8,57.9
			C36.6,76,30.3,92,20.7,99.1z"/>
		<path class="st36" d="M77.4,98.6v-0.3c-0.1,0-0.3,0-0.4,0C77.1,98.4,77.3,98.5,77.4,98.6z"/>
		<path class="st36" d="M123.8,174.8c1.2-0.4,2.3-1.2,1.9-2.7c-0.8-2.3-4.2-0.6-6.6-1.5c0.5,1.2,1.1,2.3,1.6,3.5
			C121.4,174.9,122.3,175.3,123.8,174.8z"/>
		<path class="st36" d="M55.7,158.5l-0.9-0.6l-3.1,4.5l-1.7-1.2l4.1-5.9c-11.2-22-25.9-44.5-51-51.8c1.5,21.9,12.4,43.9,30.3,61
			c10.8,10.4,23.4,18.2,36.7,23.1c-2.9-5.4-5.8-11.5-8.9-17.9C59.4,166.1,57.6,162.3,55.7,158.5z"/>
		<path class="st36" d="M83.8,165.9c-2.2-0.7-4.3,0.4-5.2,3.6c-1,3.2,0,5.2,2.3,5.8c2.2,0.7,4.1-0.3,5.1-3.7
			C86.9,168.4,86,166.5,83.8,165.9z"/>
		<path class="st36" d="M132.4,96c5.5,3,10.1,7,14.2,11.7l-5-11.7C138.5,95.9,135.4,95.9,132.4,96z"/>
		<path class="st36" d="M87,64.8c-0.1,0.1-0.1,0.3-0.2,0.4c0.9,1.1,1.4,2.3,1.4,3.8c0,1.6-0.5,2.9-1.6,4.1c-1.1,1.1-2.4,1.7-3.9,1.7
			c-0.2,0-0.5,0-0.7-0.1c-0.9,1.7-1.8,3.3-2.6,4.9l7.3-2.3h1.3v17.5c3.2-0.2,6.5-0.3,9.8-0.5V70.8c0-1.5-0.4-2.6-1.2-3.2
			c-0.4-0.4-0.9-0.5-1.4-0.5v-1.5l11.8-3.6h1.3v30.8c3-1,5.9-2.3,8.8-3.9v-2.7c0-1.5-0.4-2.6-1.2-3.2c-0.4-0.4-0.9-0.5-1.4-0.5v-1.5
			l11.8-3.6h1.3v4.4c1.4-1.1,2.8-2.3,4.2-3.5v-0.9h1.1c5.3-4.6,10.6-9.8,16-15.2c8.8-8.6,17.7-17.4,27.4-24.5c-1.9-2-3.8-4-5.9-5.9
			c-11.8-11-25.4-19.1-39.7-23.9C108.7,21.6,96.9,44.9,87,64.8z M118.3,65c1.1-1.1,2.4-1.7,3.9-1.7c1.5,0,2.8,0.6,3.9,1.7
			c1.1,1.1,1.6,2.4,1.6,4s-0.5,2.9-1.6,4.1c-1.1,1.1-2.4,1.7-3.9,1.7c-1.5,0-2.8-0.6-3.9-1.7c-1.1-1.1-1.6-2.5-1.6-4.1
			S117.3,66.1,118.3,65z"/>
		<path class="st36" d="M135.3,81.9c-0.3-0.4-0.4-0.6-0.5-0.6l-0.2-0.2c-0.4-0.3-0.7-0.5-0.9-0.7c-0.1,0-0.2-0.1-0.2-0.1
			c-2,1.7-4,3.3-6,4.9v7.9c4.3-0.1,8.5-0.1,12.7-0.1l-4-9.4C135.9,82.9,135.6,82.3,135.3,81.9z"/>
		<path class="st36" d="M69,93.8v2.2c1-0.1,2-0.1,2.9-0.2c0.2-0.1,0.5-0.1,0.7,0c1.6-0.1,3.1-0.2,4.7-0.3v-9.3
			c0-1.1-0.2-1.9-0.6-2.5C74.4,87.6,71.8,91.1,69,93.8z"/>
		<path class="st36" d="M57.2,95.3c-1.6,0-3.1,0.4-4.7,1.3c-0.2,0.1-0.4,0.2-0.6,0.4c1.7-0.1,3.5-0.2,5.2-0.3V95.3z"/>
		<path class="st36" d="M154.5,99.9l1.5-3.8c-1.1,0-2.1,0-3.2-0.1L154.5,99.9z"/>
		<path class="st36" d="M47.5,104.1c0,1.4,0.2,2.6,0.7,3.5c0.7,1.5,1.9,2.3,3.6,2.3c2.1,0,3.9-1.3,5.4-3.8v-6.6
			c-2.8,0.2-5.6,0.4-8.4,0.5C47.9,101.4,47.5,102.7,47.5,104.1z"/>
		<path class="st36" d="M137.1,77.3h14.3v3h-1.1c-1.7,0-2.8,0.4-3.4,1.1c-0.1,0.1-0.1,0.2-0.1,0.3c0,0.2,0.1,0.5,0.2,0.8v0.2
			c0.1,0.1,0.2,0.2,0.2,0.2l4.4,10.3c1.8,0,3.7,0.1,5.5,0.1l3.5-8.9l0.3-0.9v-0.1l0.1-0.1c0.1-0.4,0.2-0.8,0.2-1.2v-0.4
			c0,0-0.1-0.2-0.2-0.5c-0.7-0.6-1.8-0.8-3.3-0.8h-0.3l-0.4-0.2c-0.2-0.2-0.3-0.5-0.3-0.8l0.1-0.9v-1h13.1v3h-0.8
			c-0.8,0.1-1.5,0.5-2.3,1.2c-0.7,0.7-1.3,1.6-1.8,2.8l-3.4,8.7c5.4-0.5,12.4-2.8,20.8-5.6c5.3-1.8,11.2-3.7,17.8-5.6
			c-3.2-14.8-10.8-29.3-21.8-42c-9.6,7-18.5,15.8-27.3,24.4C146.3,68.7,141.7,73.2,137.1,77.3z"/>
		<path class="st36" d="M98.6,168.6l-2-0.1l-0.2,4.4l2,0.1c1.5,0.1,2.7-0.4,2.8-2.2C101.3,169.2,100.3,168.7,98.6,168.6z"/>
		<path class="st36" d="M201.2,107.9c0.4-3.2,0.7-6.5,0.7-9.7c-4.7-0.3-9.4-0.6-14.1-0.9C192.4,99.8,196.9,103.6,201.2,107.9z"/>
		<path class="st36" d="M117,93.5v-1.4c-1.1,0.6-2.1,1.1-3.2,1.6C114.9,93.6,116,93.5,117,93.5z"/>
		<path class="st36" d="M178.5,96.8c-6.1-0.3-12.2-0.5-18.3-0.6l-7.6,19.6h0c7.5,11.6,12.6,25.4,17,37.6c1.1,3,2.2,6,3.3,8.8
			c14.8-14.7,24.5-32.5,27.8-50.7C193.7,104.1,186.3,98.3,178.5,96.8z"/>
		<path class="st36" d="M88.9,115.7H74.4v-1.2h0.1c1.3-0.2,2.2-1.1,2.6-2.8c0.2-0.6,0.3-1.4,0.3-2.2v-0.3v-7
			c-1.7-1.4-3.5-2.6-5.3-3.6c-1.1,0.1-2.1,0.1-3.2,0.2v30.1c0,0.7,0.3,1.7,1,2.9c0.7,1.3,1.9,2.1,3.8,2.5c0.6,0.1,1.2,0.2,1.8,0.2
			c1.8,0,3-0.5,3.8-1.5c0.5-0.8,0.8-1.6,0.8-2.4c0-0.7-0.2-1.4-0.7-1.9c-0.5-0.5-1.2-0.7-2.2-0.7c-0.4,0-0.9,0.1-1.5,0.4
			c-0.6,0.2-1,0.3-1.3,0.1c-0.4-0.2-0.6-0.7-0.6-1.5v-0.4c0-2,0.7-3.8,2.2-5.2c1.4-1.4,3.2-2.2,5.2-2.2c2,0,3.8,0.7,5.2,2.2
			s2.2,3.2,2.2,5.2c0,3.6-1.5,6.3-4.4,8.2c-2.9,1.9-6.5,2.8-10.6,2.8c-2.6,0-5.1-0.4-7.4-1.2c-2.3-0.8-4.2-1.9-5.6-3.3
			c-1.5-1.5-2.4-3-2.8-4.6c-0.4-1.6-0.6-2.9-0.6-3.9v-13.9c-2.2,2.3-4.6,3.9-7.3,4.8c-1.5,0.5-2.8,0.7-3.8,0.7c-2,0-3.9-0.4-5.6-1.3
			s-3.1-2.1-4.1-3.6c-1-1.5-1.5-3.1-1.5-4.8c0-1.1,0.2-2.2,0.7-3.3c0.3-0.8,0.7-1.5,1.2-2.2c-2.4,0.2-4.7,0.3-7,0.5
			c-7.2,0.5-14,0.9-20.6,1.4c22.3,8.8,36,29.5,46.5,50l1.5-2.2l6.4,4.5l-1,1.4l-4.7-3.3l-1.2,1.7c0.6,1.3,1.3,2.6,1.9,3.8l1.3,0.9
			l-0.5,0.7c1.2,2.4,2.3,4.8,3.4,7.2l5-9.8l1.9,1l-5.1,10l5.1,2.6l-0.8,1.6l-4.7-2.4c3.3,6.9,6.4,13.3,9.6,18.8
			c9,2.9,18.2,4.4,27.3,4.4c8.2,0,16.5-1.2,24.6-3.5c-5.6-9.2-10.8-20.9-16.2-33C103.2,142.2,96.5,127.2,88.9,115.7z M88.1,172.1
			c-1.2,4.1-4,6.1-7.9,4.9c-4-1.2-4.9-4.4-3.8-8.1c1.1-3.7,4-5.9,7.9-4.7C88.2,165.3,89.1,168.6,88.1,172.1z M101.4,180.1l-2.6-5.4
			l-2.5-0.1l-0.2,5.2l-2.1-0.1l0.6-13l4.7,0.2c3.2,0.2,4.2,2,4.1,3.8c-0.1,1.9-1.1,3-2.6,3.5l2.8,5.9L101.4,180.1z M112.8,179
			l-2.1,0.3l-1.9-12.9l2.1-0.3L112.8,179z"/>
		<path class="st36" d="M171.8,93.7c1.1,0,2.3,0.1,3.4,0.1c0.2-0.1,0.5-0.2,0.8-0.2c0.9,0.1,1.9,0.2,2.8,0.3
			c7.7,0.4,15.4,0.8,23,1.3c-0.1-3.6-0.5-7.2-1.2-10.7c-6.4,1.8-12.2,3.8-17.5,5.5C179,91.4,175.2,92.7,171.8,93.7z"/>
		<path class="st36" d="M127.6,96.8v12.3c0,1,0.1,1.9,0.3,2.5c0.4,1.7,1.2,2.7,2.6,2.8v1.2H114v-1.2h0.1c1.3-0.2,2.2-1.1,2.6-2.8
			c0.2-0.6,0.3-1.4,0.3-2.2v-0.3V96.3c-1.7,0.1-3.3,0.1-5,0.2c-1.3,0.1-2.5,0.1-3.8,0.2v12.4c0,1,0.1,1.9,0.3,2.5
			c0.4,1.7,1.2,2.7,2.6,2.8v1.2H94.7v-1.2h0.1c1.3-0.2,2.2-1.1,2.6-2.8c0.2-0.6,0.3-1.4,0.3-2.2v-0.3v-12c-3.3,0.2-6.5,0.3-9.8,0.5
			v11.4c0,0.1,0,0.2,0,0.3c9.2,12.2,16.9,29.4,24.4,46.3c1.6,3.6,3.2,7.2,4.8,10.7c0.4-1.3,1.6-2.3,3.2-2.8c2.2-0.7,4.2-0.5,5.4,2.2
			l-1.8,0.8c-0.6-1.1-1.4-1.9-3.1-1.4c-1.6,0.5-2.1,1.4-1.7,2.4c1,3,7-0.9,8.5,3.6c0.9,2.7-0.9,4.5-3.3,5.2
			c-0.8,0.3-1.5,0.4-2.2,0.4c2.2,4.5,4.4,8.6,6.7,12.3c15-4.7,29.4-13.1,41.6-24.6c0.1-0.1,0.2-0.2,0.3-0.3c-1.2-3.2-2.4-6.5-3.7-10
			C159.1,132.8,149.4,106.3,127.6,96.8z M137.4,170.7l-5.2-10l-3.5,1.8l-0.8-1.6l8.8-4.6l0.8,1.6l-3.4,1.8l5.2,10L137.4,170.7z
			 M148.2,164.4l-7.6-10.6l6.4-4.6l1,1.4l-4.7,3.4l2.2,3.1l4.4-3.2l1,1.4l-4.4,3.2l2.3,3.2l4.9-3.5l1,1.4L148.2,164.4z"/>
		<path class="st4" d="M84.4,63.5C84.4,63.6,84.4,63.6,84.4,63.5c0.7,0.4,1.5,0.8,2.1,1.4c0.1,0.1,0.1,0.2,0.2,0.3
			c0.1-0.1,0.1-0.3,0.2-0.4c10-19.9,21.7-43.2,43.7-57c-1.2-0.4-2.4-0.8-3.6-1.1C105.8,20.9,94.3,43.9,84.4,63.5z"/>
		<path class="st4" d="M81.9,74.7c-1-0.1-1.9-0.5-2.6-1.1c-1.3,2.5-2.7,4.9-4,7.2l4-1.2C80.2,78,81,76.4,81.9,74.7z"/>
		<path class="st4" d="M76.8,83.7c-0.2-0.3-0.4-0.5-0.6-0.7c-0.4-0.4-0.9-0.5-1.4-0.5v-0.9C73,84.6,71,87.4,69,89.7v4.1
			C71.8,91.1,74.4,87.6,76.8,83.7z"/>
		<path class="st4" d="M133.6,80.4c-0.2-0.1-0.4-0.1-0.7-0.1h-1.1v-2.1c-1.4,1.2-2.8,2.4-4.2,3.5v3.6
			C129.6,83.8,131.6,82.1,133.6,80.4z"/>
		<path class="st4" d="M132.9,77.3h4.3c4.6-4.1,9.1-8.6,13.7-13.1c8.8-8.6,17.6-17.3,27.3-24.4c-0.6-0.7-1.3-1.4-1.9-2.1
			c-9.7,7.1-18.6,15.9-27.4,24.5C143.5,67.5,138.2,72.7,132.9,77.3z"/>
		<path class="st4" d="M58.9,158.6c-0.6-1.3-1.3-2.6-1.9-3.8l-1.2,1.7L58.9,158.6z"/>
		<path class="st4" d="M62.2,169.1l0.9-1.8c-1.1-2.3-2.3-4.7-3.4-7.2l-0.5,0.7l-3.5-2.4c1.9,3.8,3.7,7.6,5.4,11.3
			c3.1,6.4,6,12.5,8.9,17.9c1.3,0.5,2.7,1,4,1.4c-3.2-5.4-6.3-11.9-9.6-18.8L62.2,169.1z"/>
		<path class="st4" d="M54,155.3l1.8-2.6c-10.5-20.4-24.2-41.1-46.5-50c6.5-0.4,13.4-0.9,20.6-1.4c2.3-0.2,4.7-0.3,7-0.5
			c0.2-0.3,0.4-0.5,0.6-0.8c0.1-0.1,0.4-0.4,1.2-1.1c0.4-0.4,0.9-0.7,1.5-1.2c-3.6,0.2-7.1,0.5-10.5,0.7c-3.1,0.2-6.1,0.4-9.1,0.6
			c9.6-7.1,15.9-23.1,23-41.2c6.6-16.6,13.7-34.7,24.4-48.6c-1.7,0.7-3.4,1.4-5.1,2.2C53.7,25,47.2,41.5,41.1,56.9
			c-8.3,21-15.5,39.2-27.5,42.7c-3.7,0.2-7.2,0.5-10.7,0.7c0,0.1,0,0.2,0,0.3c0,0.9,0.1,1.7,0.1,2.6c0,0.1,0,0.3,0,0.4
			C28.1,110.7,42.8,133.3,54,155.3z"/>
		<path class="st4" d="M77,98.3c0.1,0,0.3,0,0.4,0v-2.8c-1.6,0.1-3.2,0.2-4.7,0.3c-0.2-0.1-0.5,0-0.7,0c-1,0.1-2,0.1-2.9,0.2v2.8
			c1-0.1,2.1-0.1,3.2-0.2c1.8,1,3.6,2.2,5.3,3.6v-3.6C77.3,98.5,77.1,98.4,77,98.3z"/>
		<path class="st4" d="M118.5,174.2l1.8-0.9c0.2,0.3,0.3,0.5,0.5,0.7c-0.5-1.1-1.1-2.3-1.6-3.5c-0.8-0.3-1.5-0.9-1.9-2.1
			c-0.2-0.8-0.2-1.5,0-2.1c-1.6-3.5-3.2-7.1-4.8-10.7c-7.5-16.9-15.2-34.2-24.4-46.3c0,0.9,0.1,1.6,0.3,2.2c0.4,1.7,1.2,2.7,2.6,2.8
			v1.2h-1.9c7.6,11.5,14.3,26.5,20.8,41.1c5.4,12.1,10.6,23.9,16.2,33c0.9-0.3,1.9-0.5,2.8-0.8c-2.3-3.7-4.5-7.8-6.7-12.3
			C120.6,176.8,119.3,176.1,118.5,174.2z"/>
		<path class="st4" d="M152.6,115.7H150l-3.5-8.1c-4-4.7-8.7-8.7-14.2-11.7c3.1,0,6.1-0.1,9.1-0.1l-1.2-2.8c-4.2,0-8.5,0.1-12.7,0.1
			v0.5v2.3v0.7c21.9,9.5,31.6,36,39.4,57.5c1.3,3.5,2.5,6.8,3.7,10c0.8-0.7,1.5-1.4,2.2-2.1c-1.1-2.8-2.2-5.7-3.3-8.8
			C165.2,141.1,160.1,127.3,152.6,115.7z"/>
		<path class="st4" d="M156,96.1l1.1-2.8c-1.8,0-3.7-0.1-5.5-0.1l1.2,2.9C153.9,96,155,96,156,96.1z"/>
		<path class="st4" d="M87.9,94.8v2.8c3.2-0.2,6.5-0.3,9.8-0.5v-2.8C94.4,94.5,91.1,94.7,87.9,94.8z"/>
		<path class="st4" d="M52,97c-1.3,0.8-2.3,1.8-3.1,3c0,0,0,0,0,0.1c2.8-0.2,5.6-0.4,8.4-0.5v-2.8C55.5,96.8,53.7,96.9,52,97z"/>
		<path class="st4" d="M201.8,95.3c-7.6-0.5-15.2-1-23-1.3c-0.9-0.2-1.9-0.3-2.8-0.3c-0.3,0-0.6,0.1-0.8,0.2c-1.1,0-2.3-0.1-3.4-0.1
			c3.4-1,7.2-2.2,11.3-3.6c5.2-1.7,11-3.7,17.5-5.5c-0.2-0.9-0.4-1.9-0.6-2.8c-6.6,1.9-12.5,3.8-17.8,5.6
			c-8.4,2.8-15.4,5.1-20.8,5.6l-0.1,0.4l-1,2.6l-0.1,0.3c6.1,0.1,12.2,0.4,18.3,0.6c7.7,1.5,15.1,7.3,22.1,14.6
			c0.2-1.2,0.4-2.3,0.5-3.5c-4.3-4.3-8.8-8.1-13.5-10.6c4.7,0.3,9.5,0.6,14.1,0.9c0,0,0,0,0,0C201.8,97.2,201.8,96.3,201.8,95.3z"/>
		<path class="st4" d="M113.8,93.6c1.1-0.5,2.1-1,3.2-1.6v-3.2c-2.9,1.6-5.8,2.9-8.8,3.9v1.1v1.9v1c1.3-0.1,2.5-0.1,3.8-0.2
			c1.7-0.1,3.4-0.1,5-0.2v-2.8C116,93.5,114.9,93.6,113.8,93.6z"/>
		<path class="st19" d="M172.3,29.7C152.1,10.8,126.2,0,101.3,0C76.6,0,51,10.8,31.3,29.7C11.4,48.7,0,73.7,0,98.1
			s11.4,49.4,31.3,68.4c19.7,18.9,45.2,29.7,70,29.7c24.9,0,50.8-10.8,71-29.7c20.6-19.2,32.3-44.1,32.3-68.5
			C204.7,73.8,192.9,48.8,172.3,29.7z M201.2,107.9c-0.2,1.2-0.3,2.3-0.5,3.5c-3.2,18.2-12.9,36-27.8,50.7c-0.7,0.7-1.5,1.4-2.2,2.1
			c-0.1,0.1-0.2,0.2-0.3,0.3c-12.3,11.4-26.7,19.9-41.6,24.6c-0.9,0.3-1.9,0.6-2.8,0.8c-8.2,2.3-16.4,3.5-24.6,3.5
			c-9.1,0-18.3-1.5-27.3-4.4c-1.4-0.4-2.7-0.9-4-1.4c-13.3-4.9-25.9-12.8-36.7-23.1c-17.9-17.1-28.7-39.1-30.3-61c0-0.1,0-0.3,0-0.4
			c-0.1-0.9-0.1-1.7-0.1-2.6c0-0.1,0-0.2,0-0.3c0-0.7,0-1.4,0-2.1c0-23.7,11.1-47.9,30.5-66.4c8.9-8.5,19.1-15.4,29.8-20.3
			c1.7-0.8,3.4-1.5,5.1-2.2C79,5.1,90.2,2.8,101.3,2.8c8.6,0,17.2,1.3,25.8,3.9c1.2,0.4,2.4,0.7,3.6,1.1c14.3,4.8,27.9,13,39.7,23.9
			c2.1,1.9,4,3.9,5.9,5.9c0.6,0.7,1.3,1.4,1.9,2.1c11.1,12.6,18.6,27.2,21.8,42c0.2,0.9,0.4,1.9,0.6,2.8c0.6,3.6,1,7.2,1.2,10.7
			c0,0.9,0.1,1.9,0.1,2.8c0,0,0,0,0,0C201.8,101.4,201.6,104.7,201.2,107.9z"/>
		<polygon class="st5" points="49.9,161.1 51.6,162.3 54.8,157.9 55.7,158.5 59.1,160.9 59.6,160.2 60.1,159.5 58.9,158.6 
			55.8,156.4 57,154.7 58.1,153.1 62.8,156.4 63.8,154.9 57.4,150.4 55.9,152.6 54,155.3 		"/>
		<polygon class="st5" points="64.5,170.3 69.2,172.7 70,171.1 64.9,168.5 70,158.4 68.1,157.5 63.1,167.3 62.2,169.1 		"/>
		<path class="st5" d="M84.3,164.1c-3.9-1.2-6.8,1-7.9,4.7c-1.1,3.7-0.2,6.9,3.8,8.1c3.9,1.2,6.7-0.9,7.9-4.9
			C89.1,168.6,88.2,165.3,84.3,164.1z M85.9,171.6c-1,3.4-3,4.3-5.1,3.7c-2.2-0.7-3.2-2.6-2.3-5.8c1-3.2,3-4.2,5.2-3.6
			C86,166.5,86.9,168.4,85.9,171.6z"/>
		<path class="st5" d="M103.4,170.7c0.1-1.8-0.8-3.6-4.1-3.8l-4.7-0.2l-0.6,13l2.1,0.1l0.2-5.2l2.5,0.1l2.6,5.4l2.3,0.1l-2.8-5.9
			C102.3,173.8,103.3,172.7,103.4,170.7z M98.4,173l-2-0.1l0.2-4.4l2,0.1c1.7,0.1,2.7,0.6,2.6,2.1C101.1,172.6,100,173.1,98.4,173z"
			/>
		
			<rect x="109.7" y="166.2" transform="matrix(0.9888 -0.1493 0.1493 0.9888 -24.5574 18.4764)" class="st5" width="2.1" height="13"/>
		<path class="st5" d="M117.2,168.5c0.4,1.2,1.1,1.8,1.9,2.1c2.4,0.9,5.8-0.8,6.6,1.5c0.5,1.5-0.6,2.3-1.9,2.7
			c-1.6,0.5-2.4,0.1-3.1-0.7c-0.2-0.2-0.3-0.5-0.5-0.7l-1.8,0.9c0.8,1.8,2.1,2.6,3.6,2.6c0.7,0,1.5-0.1,2.2-0.4
			c2.4-0.8,4.2-2.5,3.3-5.2c-1.5-4.5-7.5-0.6-8.5-3.6c-0.3-1,0.1-1.9,1.7-2.4c1.7-0.6,2.5,0.3,3.1,1.4l1.8-0.8
			c-1.1-2.7-3.2-2.9-5.4-2.2c-1.6,0.5-2.8,1.6-3.2,2.8C116.9,167,116.9,167.7,117.2,168.5z"/>
		<polygon class="st5" points="137.4,158 136.6,156.4 127.9,161 128.7,162.6 132.1,160.7 137.4,170.7 139.2,169.7 134,159.8 		"/>
		<polygon class="st5" points="148.9,161.8 146.6,158.6 151,155.4 150,154 145.6,157.2 143.3,154 148,150.7 147,149.2 140.6,153.8 
			148.2,164.4 154.8,159.7 153.8,158.2 		"/>
		<path class="st19" d="M69,93.8v-4.1v-1.2c0-1-0.2-2.3-0.6-3.9c-0.4-1.6-1.3-3.1-2.8-4.6c-2.8-3-7.1-4.5-12.9-4.5
			c-6.4,0-10.9,1.4-13.5,4.3c-1.1,1.1-1.8,2.3-2.2,3.5c-0.3,1.2-0.5,2.2-0.4,3c0,1.5,0.6,2.8,1.7,3.9s2.4,1.7,3.8,1.7
			c1.5,0,2.8-0.5,3.9-1.6s1.7-2.4,1.7-3.9c0-0.6-0.2-1.4-0.6-2.4c-0.5-0.9-0.7-1.8-0.7-2.7c0-0.5,0.1-1,0.3-1.3
			c0.6-1,1.8-1.5,3.7-1.5c1.9,0,3.4,0.4,4.5,1.3c1,0.8,1.7,1.7,2,2.6c0.3,0.9,0.4,1.5,0.4,1.9v7.3c-5.6,0.7-10.6,2.3-15.1,5
			c-0.8,0.5-1.4,0.9-2,1.3c-0.6,0.4-1.1,0.8-1.5,1.2c-0.7,0.7-1.1,1.1-1.2,1.1c-0.2,0.3-0.4,0.5-0.6,0.8c-0.5,0.7-0.9,1.4-1.2,2.2
			c-0.4,1.1-0.7,2.2-0.7,3.3c0,1.7,0.5,3.4,1.5,4.8c1,1.5,2.4,2.7,4.1,3.6s3.6,1.3,5.6,1.3c1,0,2.3-0.2,3.8-0.7
			c2.6-0.9,5-2.5,7.3-4.8v13.9c0,1,0.2,2.3,0.6,3.9c0.4,1.6,1.3,3.1,2.8,4.6c1.4,1.4,3.2,2.5,5.6,3.3c2.3,0.8,4.8,1.2,7.4,1.2
			c4.1,0,7.6-0.9,10.6-2.8c2.9-1.9,4.4-4.6,4.4-8.2c0-2-0.7-3.8-2.2-5.2s-3.2-2.2-5.2-2.2c-2,0-3.7,0.7-5.2,2.2
			c-1.4,1.4-2.2,3.2-2.2,5.2v0.4c0,0.8,0.2,1.3,0.6,1.5c0.3,0.2,0.7,0.1,1.3-0.1c0.6-0.2,1.1-0.4,1.5-0.4c1,0,1.7,0.2,2.2,0.7
			c0.5,0.5,0.7,1.1,0.7,1.9c0,0.8-0.3,1.6-0.8,2.4c-0.7,1-2,1.5-3.8,1.5c-0.6,0-1.2-0.1-1.8-0.2c-1.9-0.4-3.2-1.3-3.8-2.5
			c-0.7-1.3-1-2.2-1-2.9V98.8v-2.8V93.8z M57.2,106.1c-1.5,2.5-3.3,3.8-5.4,3.8c-1.7,0-2.9-0.8-3.6-2.3c-0.5-0.9-0.7-2-0.7-3.5
			c0-1.4,0.5-2.8,1.4-4.1c0,0,0,0,0-0.1c0.8-1.2,1.9-2.2,3.1-3c0.2-0.1,0.4-0.3,0.6-0.4c1.5-0.9,3.1-1.3,4.7-1.3v1.3v2.8V106.1z"/>
		<path class="st19" d="M87.9,77.3h-1.3l-7.3,2.3l-4,1.2l-0.4,0.1v0.6v0.9c0.5,0,1,0.2,1.4,0.5c0.2,0.2,0.4,0.5,0.6,0.7
			c0.4,0.6,0.6,1.4,0.6,2.5v9.3v2.8v0.3v3.6v7v0.3c0,0.9-0.1,1.6-0.3,2.2c-0.5,1.7-1.3,2.6-2.6,2.8h-0.1v1.2h14.5h1.9v-1.2
			c-1.4-0.2-2.3-1.1-2.6-2.8c-0.2-0.6-0.3-1.3-0.3-2.2c0-0.1,0-0.2,0-0.3V97.7v-2.8V77.3z"/>
		<path class="st19" d="M82.6,74.8c1.5,0,2.8-0.6,3.9-1.7c1.1-1.1,1.6-2.5,1.6-4.1c0-1.5-0.5-2.7-1.4-3.8c-0.1-0.1-0.1-0.2-0.2-0.3
			c-0.6-0.6-1.4-1.1-2.1-1.3c-0.6-0.2-1.1-0.3-1.8-0.3c-1.5,0-2.8,0.6-3.9,1.7c-1.1,1.1-1.6,2.4-1.6,4s0.5,2.9,1.6,4.1
			c0.2,0.2,0.4,0.4,0.6,0.5c0.8,0.6,1.6,1,2.6,1.1C82.2,74.7,82.4,74.8,82.6,74.8z"/>
		<path class="st19" d="M108.2,93.9v-1.1V61.9h-1.3l-11.8,3.6V67c0.5,0,1,0.2,1.4,0.5c0.8,0.6,1.2,1.7,1.2,3.2v23.6v2.8v12v0.3
			c0,0.9-0.1,1.6-0.3,2.2c-0.5,1.7-1.3,2.6-2.6,2.8h-0.1v1.2h16.4v-1.2c-1.4-0.2-2.3-1.1-2.6-2.8c-0.2-0.7-0.3-1.5-0.3-2.5V96.7v-1
			V93.9z"/>
		<path class="st19" d="M122.3,74.8c1.5,0,2.8-0.6,3.9-1.7c1.1-1.1,1.6-2.5,1.6-4.1s-0.5-2.9-1.6-4c-1.1-1.1-2.4-1.7-3.9-1.7
			c-1.5,0-2.8,0.6-3.9,1.7c-1.1,1.1-1.6,2.4-1.6,4s0.5,2.9,1.6,4.1C119.4,74.2,120.7,74.8,122.3,74.8z"/>
		<path class="st19" d="M127.6,81.7v-4.4h-1.3l-11.8,3.6v1.5c0.5,0,1,0.2,1.4,0.5c0.8,0.6,1.2,1.7,1.2,3.2v2.7v3.2v1.4v2.8v12.9v0.3
			c0,0.9-0.1,1.6-0.3,2.2c-0.5,1.7-1.3,2.6-2.6,2.8H114v1.2h16.4v-1.2c-1.4-0.2-2.3-1.1-2.6-2.8c-0.2-0.7-0.3-1.5-0.3-2.5V96.8v-0.7
			v-2.3v-0.5v-7.9V81.7z"/>
		<path class="st19" d="M166.6,81.5c0.8-0.7,1.5-1,2.3-1.2h0.8v-3h-13.1v1l-0.1,0.9c0,0.4,0.1,0.6,0.3,0.8l0.4,0.2h0.3
			c1.5,0,2.6,0.3,3.3,0.8c0.2,0.3,0.2,0.5,0.2,0.5v0.4c0,0.4-0.1,0.8-0.2,1.2l-0.1,0.1v0.1l-0.3,0.9l-3.5,8.9l-1.1,2.8l-1.5,3.8
			l-1.7-3.9l-1.2-2.9l-4.4-10.3c0,0-0.1-0.1-0.2-0.2v-0.2c-0.1-0.3-0.2-0.6-0.2-0.8c0-0.2,0-0.3,0.1-0.3c0.6-0.7,1.7-1.1,3.4-1.1
			h1.1v-3h-14.3h-4.3h-1.1v0.9v2.1h1.1c0.3,0,0.5,0,0.7,0.1c0.1,0,0.2,0,0.2,0.1c0.2,0.1,0.5,0.3,0.9,0.7l0.2,0.2
			c0,0.1,0.2,0.3,0.5,0.6c0.3,0.4,0.6,0.9,0.9,1.8l4,9.4l1.2,2.8l5,11.7l3.5,8.1h2.6h0l7.6-19.6l0.1-0.3l1-2.6l0.1-0.4l3.4-8.7
			C165.4,83.1,165.9,82.1,166.6,81.5z"/>
	</g>
</g>
<g id="Layer_2">
</g>
</svg>
