<svg width="291" height="71" viewBox="0 0 291 71" fill="none" xmlns="http://www.w3.org/2000/svg">
<path d="M14.4756 59.2906H8.52675C10.5097 62.1659 12.7901 65.9336 12.7901 69.4037H0V0H14.079V9.71652C14.079 21.5152 11.1046 26.1751 8.6259 30.0419H14.5748C16.756 24.9853 21.0194 18.3424 31.2317 18.3424C43.3278 18.3424 51.6562 28.9513 51.6562 44.6167C51.6562 60.2821 43.3278 70.9901 31.2317 70.9901C20.722 70.9901 16.9543 64.248 14.4756 59.2906ZM36.8831 44.6167C36.8831 33.0164 31.8266 28.9513 25.2828 28.9513C18.2433 28.9513 13.4842 34.107 13.4842 44.6167C13.4842 55.1264 18.3424 60.2821 25.2828 60.2821C31.8266 60.2821 36.8831 56.217 36.8831 44.6167Z" fill="black"/>
<path d="M58.8945 44.5189C58.8945 28.9526 69.6025 18.3438 83.979 18.3438C100.636 18.3438 109.361 31.4313 107.973 47.9891H72.9736C73.3702 56.7141 78.0301 60.2834 84.0782 60.2834C90.4237 60.2834 93.4973 56.3175 95.5794 51.6575L108.171 56.5158C105.395 62.8613 99.1487 70.9915 84.0782 70.9915C68.8094 70.9915 58.8945 60.7792 58.8945 44.5189ZM94.0921 38.0742C93.4973 31.9271 89.9279 28.4569 83.979 28.4569C78.3276 28.4569 74.4608 31.8279 73.4693 38.0742H94.0921Z" fill="black"/>
<path d="M118.68 0H132.759V69.4038H118.68V0Z" fill="black"/>
<path d="M143.17 44.5189C143.17 28.9526 153.878 18.3438 168.254 18.3438C184.911 18.3438 193.636 31.4313 192.248 47.9891H157.249C157.646 56.7141 162.306 60.2834 168.354 60.2834C174.699 60.2834 177.773 56.3175 179.855 51.6575L192.447 56.5158C189.67 62.8613 183.424 70.9915 168.354 70.9915C153.085 70.9915 143.17 60.7792 143.17 44.5189ZM178.368 38.0742C177.773 31.9271 174.203 28.4569 168.254 28.4569C162.603 28.4569 158.736 31.8279 157.745 38.0742H178.368Z" fill="black"/>
<path d="M199.685 44.5189C199.685 28.9526 210.393 18.3438 224.769 18.3438C241.426 18.3438 250.151 31.4313 248.763 47.9891H213.764C214.16 56.7141 218.82 60.2834 224.868 60.2834C231.214 60.2834 234.287 56.3175 236.369 51.6575L248.961 56.5158C246.185 62.8613 239.939 70.9915 224.868 70.9915C209.599 70.9915 199.685 60.7792 199.685 44.5189ZM234.882 38.0742C234.287 31.9271 230.718 28.4569 224.769 28.4569C219.118 28.4569 215.251 31.8279 214.259 38.0742H234.882Z" fill="black"/>
<path d="M263.338 30.5376H253.72V19.8296H263.338V12.9884C263.338 5.25486 267.7 0 275.731 0H291V11.2037H281.779C278.706 11.2037 277.417 12.5918 277.417 15.5663V19.8296H288.918V30.5376H277.417V69.4038H263.338V30.5376Z" fill="black"/>
</svg>
