<svg width="113" height="26" viewBox="0 0 62 14" fill="none" xmlns="http://www.w3.org/2000/svg">
<path d="M0.785869 13.9652L1.61924 10.041H0L0 8.6687H1.90633L2.61578 5.32435H0L0 3.95205H2.90286L3.73623 0L5.17372 0L4.34035 3.95205H7.35784L8.19121 0L9.638 0L8.80462 3.95205H10.4621V5.32435H8.51754L7.79879 8.6687H10.4621V10.041H7.51068L6.6773 13.9652H5.24085L6.06493 10.041H3.0557L2.22233 13.9652H0.785869ZM3.34382 8.6687H6.35201L7.07076 5.32435H4.05223L3.34382 8.6687Z" fill="black"/>
<path d="M11.7117 7.1316C11.7117 3.07528 14.8314 0.26416 18.5986 0.26416C22.0911 0.26416 24.0728 2.22629 24.7792 4.22614L22.7779 4.99967C22.1108 3.26395 20.8746 2.01875 18.5594 2.01875C16.146 2.01875 13.8111 3.75448 13.8111 7.11273C13.8111 10.3955 15.734 12.2822 18.4809 12.2822C21.1297 12.2822 22.6013 10.5464 22.719 8.96166H17.9707V7.22593H24.74V13.7349H22.8367C22.8367 12.7161 23.2291 11.6596 23.6019 10.9238H22.6798C22.307 11.9048 21.1297 13.999 17.9119 13.999C14.282 14 11.7117 11.3577 11.7117 7.1316Z" fill="black"/>
<path d="M27.9775 0.52832H37.9646V2.26405H29.9396V6.45243H36.2576V8.16929H29.9396V13.7349H27.9775V0.52832Z" fill="black"/>
<path d="M39.6126 11.6596C43.4387 9.39559 46.5977 7.20706 46.5977 4.56574C46.5977 2.84888 45.4793 1.96215 44.1058 1.96215C42.6146 1.96215 41.4766 2.99981 41.4766 4.86761L39.4949 4.60347C39.5145 2.09422 41.2608 0.26416 44.1254 0.26416C46.9704 0.26416 48.6578 1.99989 48.6578 4.35821C48.6578 5.7732 48.1477 6.98066 47.2255 8.03719C46.0483 9.33899 43.9488 10.6596 41.2215 12.1312L41.712 12.8482C42.4184 12.3765 43.1836 11.9992 44.6356 11.9992H48.8148V13.7349H39.6126V11.6596Z" fill="black"/>
<path d="M51.0125 7.09386C51.0125 2.56588 53.5043 0.26416 56.5259 0.26416C59.5279 0.26416 62.0002 2.56588 62.0002 7.09386C62.0002 11.603 59.783 13.999 56.5259 13.999C53.2492 14 51.0125 11.603 51.0125 7.09386ZM59.94 7.09386C59.94 3.92428 58.5861 1.94329 56.5259 1.94329C54.4265 1.94329 53.0726 3.92428 53.0726 7.09386C53.0726 10.4899 54.3872 12.3199 56.5259 12.3199C58.6254 12.3209 59.94 10.5087 59.94 7.09386Z" fill="black"/>
</svg>
