<svg width="257" height="54" viewBox="0 0 257 54" fill="none" xmlns="http://www.w3.org/2000/svg">
<path d="M0 33.9384C0 21.8714 8.30514 13.9524 19.8568 13.9524C31.4085 13.9524 39.7137 21.8714 39.7137 33.9384C39.7137 46.2317 31.4085 53.9999 19.8568 53.9999C8.30514 53.9999 0 45.5529 0 33.9384ZM28.5395 34.0893C28.5395 26.3211 24.9909 22.3993 19.8568 22.3993C14.7227 22.3993 11.1742 26.3211 11.1742 34.0893C11.1742 41.8574 14.7227 45.4775 19.8568 45.4775C24.9909 45.4775 28.5395 41.8574 28.5395 34.0893Z" fill="black"/>
<path d="M47.5659 15.0837H57.2301C57.1546 17.5725 55.5691 20.8155 53.5305 23.7569H58.2116C59.9481 18.4021 63.7232 13.9524 69.7633 13.9524C78.0684 13.9524 82.5985 19.458 82.5985 27.8295V52.7932H71.8773V29.8658C71.8773 24.8881 69.5368 22.7764 65.8372 22.7764C58.3626 22.7764 58.2871 30.9217 58.2871 34.9189V52.7932H47.5659V15.0837Z" fill="black"/>
<path d="M96.4906 42.9133V23.229H88.563V15.0837H96.4906V3.24292H107.212V15.0837H117.027V23.229H107.212V40.9524C107.212 43.215 108.193 44.2709 110.534 44.2709H118.688V52.7932H106.079C99.9637 52.7932 96.4906 48.796 96.4906 42.9133Z" fill="black"/>
<path d="M122.689 33.9385C122.689 22.0223 129.032 13.9525 138.243 13.9525C146.019 13.9525 149.115 19.0056 150.776 22.852H155.306C153.418 19.9106 151.304 16.3659 151.304 7.39106V0H162.026V52.7933H152.286C152.286 50.1536 154.022 47.2877 155.532 45.1006H151.002C149.115 48.8715 146.246 54 138.243 54C129.032 54 122.689 45.8547 122.689 33.9385ZM151.751 33.9385C151.751 25.9441 148.127 22.0223 142.766 22.0223C137.783 22.0223 133.933 25.1145 133.933 33.9385C133.933 42.7626 137.783 45.8547 142.766 45.8547C148.052 45.8547 151.751 41.933 151.751 33.9385Z" fill="black"/>
<path d="M169.954 33.863C169.954 22.0222 178.108 13.9524 189.055 13.9524C201.74 13.9524 208.384 23.9077 207.327 36.5027H180.675C180.977 43.1395 184.525 45.8546 189.131 45.8546C193.963 45.8546 196.304 42.8379 197.889 39.2932L207.478 42.9887C205.364 47.8155 200.607 53.9999 189.131 53.9999C177.504 53.9999 169.954 46.2317 169.954 33.863ZM196.75 28.9608C196.297 24.2848 193.579 21.6451 189.049 21.6451C184.746 21.6451 181.801 24.2094 181.046 28.9608H196.75Z" fill="black"/>
<path d="M231.707 37.1816L226.195 42.4609V52.7933H215.474V0H226.195V16.6676C226.195 24.2095 224.157 27 220.759 29.7905L223.628 32.8827L241.371 15.0838H254.508L239.106 30.0168L257 52.7933H243.485L231.707 37.1816Z" fill="black"/>
</svg>
