<svg width="288" height="31" viewBox="0 0 288 31" fill="none" xmlns="http://www.w3.org/2000/svg">
<path d="M0.0405479 23.9576C1.27436 23.6037 2.50818 23.2383 3.74199 22.8961C10.0906 21.1385 16.4914 19.5781 22.9096 18.1106C27.6189 17.0375 32.3282 15.9702 37.055 14.9667C41.4052 14.0444 45.767 13.1801 50.1288 12.3448C54.1488 11.5791 58.1746 10.8482 62.2062 10.158C65.9308 9.51991 69.667 8.93406 73.4032 8.3482C76.5254 7.86095 79.6534 7.4027 82.7814 6.96186C85.7356 6.54421 88.6898 6.16138 91.6498 5.77854C94.1695 5.4537 96.6835 5.13467 99.2091 4.83304C101.364 4.57201 103.519 4.33999 105.674 4.10217C107.799 3.86434 109.925 3.62652 112.057 3.4061C114.362 3.16827 116.668 2.95365 118.973 2.73903C121.145 2.53601 123.323 2.33879 125.496 2.15897C127.291 2.00816 129.087 1.88634 130.883 1.75873C132.574 1.63692 134.266 1.51511 135.963 1.40489C137.892 1.27728 139.821 1.16127 141.75 1.05106C143.412 0.952448 145.08 0.87124 146.743 0.784231C148.052 0.720425 149.367 0.662419 150.682 0.604413C152.188 0.540607 153.688 0.4768 155.194 0.430396C157.111 0.366589 159.035 0.308583 160.952 0.250577C162.163 0.215774 163.373 0.186771 164.584 0.163569C166.194 0.128765 167.805 0.088161 169.415 0.0765598C175.051 0.0417563 180.687 0.0243545 186.323 0.00115217C187.418 -0.00464842 188.513 0.0127533 189.608 0.0243545C191.427 0.0475569 193.245 0.0765598 195.058 0.111363C196.258 0.134566 197.451 0.163569 198.65 0.198372C200.364 0.250577 202.073 0.302783 203.788 0.37819C205.248 0.441997 206.707 0.529006 208.167 0.598613C209.123 0.645017 210.084 0.67402 211.04 0.732026C212.146 0.795833 213.247 0.882841 214.353 0.952448C215.089 0.998853 215.825 1.03946 216.56 1.08586C217.765 1.16127 218.976 1.24248 220.181 1.32949C221.415 1.4165 222.654 1.5035 223.888 1.61952C225.649 1.78193 227.41 1.96755 229.171 2.15317C229.576 2.19377 229.669 2.36779 229.513 2.71003C229.437 2.87824 229.327 2.90145 229.159 2.88404C228.232 2.79703 227.311 2.71583 226.385 2.63462C225.371 2.54761 224.357 2.4548 223.344 2.37359C221.669 2.23438 219.995 2.10096 218.316 1.97335C217.14 1.88634 215.958 1.82254 214.782 1.74713C213.635 1.67172 212.488 1.59051 211.336 1.52671C210.38 1.4745 209.418 1.4339 208.462 1.39329C207.119 1.33529 205.78 1.27728 204.437 1.21928C203.95 1.19607 203.463 1.17867 202.977 1.16707C201.679 1.13227 200.376 1.10326 199.078 1.08006C197.068 1.03946 195.058 0.975651 193.048 0.958249C188.212 0.917645 183.375 0.894443 178.538 0.87124C177.461 0.86544 176.377 0.888642 175.3 0.906044C173.927 0.929246 172.554 0.958249 171.176 0.993053C169.212 1.04526 167.248 1.10326 165.285 1.17287C163.808 1.22508 162.336 1.28308 160.859 1.35269C159.457 1.4165 158.061 1.5035 156.66 1.57311C155.704 1.61952 154.742 1.65432 153.787 1.70652C152.976 1.74713 152.165 1.79933 151.354 1.85154C150.236 1.92115 149.118 1.98495 148 2.06036C146.882 2.13577 145.764 2.21698 144.646 2.29818C143.29 2.39679 141.941 2.4896 140.585 2.59401C139.265 2.69843 137.938 2.80864 136.617 2.91885C134.793 3.07546 132.974 3.22628 131.155 3.3945C129.157 3.58011 127.164 3.77733 125.166 3.99196C121.893 4.34579 118.626 4.69383 115.359 5.08247C112.735 5.3899 110.116 5.73793 107.498 6.09757C104.254 6.53841 101.005 6.99086 97.7667 7.47811C95.0964 7.87835 92.426 8.30759 89.7672 8.76004C86.506 9.3169 83.2506 9.89695 80.001 10.4886C78.1821 10.8192 76.3748 11.1847 74.5618 11.5327C74.4922 11.5443 74.4285 11.5675 74.3706 11.6429C74.7066 11.6081 75.0425 11.5849 75.3727 11.5443C77.4986 11.3123 79.6245 11.0745 81.7503 10.8541C83.4823 10.6742 85.2143 10.5176 86.9462 10.361C89.0895 10.1638 91.2327 9.96656 93.3818 9.78674C95.1485 9.64173 96.9094 9.50251 98.6762 9.3865C100.692 9.25309 102.702 9.01526 104.706 8.76004C106.566 8.52802 108.425 8.30759 110.29 8.08717C112.063 7.87835 113.835 7.67533 115.614 7.48391C117.212 7.30989 118.811 7.15328 120.416 7.00246C122.837 6.77044 125.258 6.53261 127.685 6.32379C129.742 6.14397 131.804 5.99316 133.86 5.83654C135.418 5.71473 136.977 5.59872 138.535 5.48271C140.342 5.34929 142.155 5.21008 143.962 5.08247C145.167 5.00126 146.378 4.93745 147.583 4.86204C148.643 4.79244 149.703 4.70543 150.763 4.64162C152.072 4.56041 153.387 4.49661 154.696 4.4212C155.843 4.35159 156.99 4.27038 158.143 4.20078C159.029 4.14857 159.909 4.11377 160.796 4.06736C161.809 4.01516 162.829 3.95715 163.842 3.89915C164.503 3.86434 165.169 3.83534 165.835 3.80054C166.982 3.74253 168.135 3.68452 169.282 3.62652C170.075 3.59172 170.875 3.56851 171.674 3.53371C172.925 3.4815 174.182 3.4177 175.433 3.36549C176.291 3.33069 177.142 3.30169 177.999 3.27268C179.668 3.21468 181.336 3.15667 183.004 3.09867C183.549 3.08126 184.099 3.05806 184.643 3.04646C185.53 3.02906 186.416 3.02326 187.302 3.00586C188.779 2.97685 190.256 2.94785 191.734 2.91885C192.62 2.90145 193.506 2.87824 194.392 2.87244C195.858 2.85504 197.318 2.83764 198.783 2.83184C203.012 2.81444 207.246 2.79123 211.475 2.78543C212.911 2.78543 214.342 2.81444 215.778 2.83184C216.931 2.84344 218.084 2.85504 219.237 2.87244C220.998 2.90145 222.753 2.93045 224.514 2.95945C225.846 2.98265 227.172 3.01746 228.505 3.04646C229.536 3.06966 230.573 3.09867 231.604 3.13347C233.139 3.18567 234.674 3.23208 236.209 3.31329C238.022 3.4119 239.835 3.51631 241.642 3.66712C243.421 3.81214 245.199 3.98616 246.966 4.20658C247.869 4.31679 248.761 4.56041 249.653 4.74603C249.705 4.75763 249.752 4.80404 249.798 4.83304C249.746 5.00706 249.636 4.98966 249.514 4.94905C248.518 4.64742 247.493 4.51981 246.467 4.4212C245.176 4.29359 243.878 4.17177 242.586 4.07316C241.393 3.98035 240.2 3.90495 239.007 3.84694C237.796 3.78894 236.585 3.75993 235.375 3.71353C234.06 3.66712 232.751 3.60912 231.436 3.58011C230.254 3.55111 229.072 3.55111 227.885 3.53951C225.4 3.51051 222.915 3.4699 220.43 3.4525C214.747 3.4177 209.071 3.3887 203.388 3.36549C201.847 3.35969 200.312 3.38289 198.771 3.4003C196.773 3.4235 194.78 3.4525 192.782 3.49311C191.525 3.51631 190.268 3.54531 189.011 3.58011C187.314 3.63232 185.617 3.69613 183.919 3.75413C182.842 3.78894 181.765 3.80634 180.687 3.84694C179.697 3.88174 178.712 3.93395 177.721 3.98035C177.293 3.99776 176.864 4.00356 176.435 4.02676C175.167 4.08477 173.898 4.14277 172.63 4.20078C171.848 4.23558 171.066 4.25878 170.284 4.29359C169.282 4.33999 168.279 4.398 167.277 4.4502C166.6 4.48501 165.922 4.51981 165.244 4.55461C164.288 4.60682 163.327 4.65322 162.371 4.70543C161.178 4.76924 159.985 4.83884 158.791 4.90845C157.969 4.95485 157.14 5.01286 156.318 5.05926C155.211 5.12887 154.111 5.19268 153.005 5.26228C151.8 5.33769 150.589 5.4247 149.384 5.50591C148.37 5.57552 147.351 5.63352 146.337 5.70893C145.202 5.79014 144.072 5.87715 142.937 5.95836C141.599 6.05697 140.261 6.14397 138.923 6.24258C137.556 6.34699 136.189 6.45141 134.822 6.56162C133.246 6.68923 131.676 6.81104 130.107 6.95026C128.595 7.08367 127.083 7.22288 125.571 7.3737C123.381 7.58252 121.198 7.79714 119.008 8.01756C118.689 8.04657 118.377 8.11617 118.058 8.17998C119.037 8.12778 120.01 8.06977 120.989 8.02336C121.742 7.98856 122.495 7.95956 123.248 7.93055C124.575 7.87255 125.901 7.81454 127.228 7.75654C127.639 7.73914 128.056 7.72753 128.467 7.71593C129.516 7.68693 130.564 7.66373 131.613 7.62312C132.91 7.57672 134.208 7.51291 135.505 7.45491C136.727 7.3969 137.95 7.33889 139.178 7.26929C140.516 7.19968 141.86 7.11847 143.198 7.04887C143.933 7.00826 144.675 6.98506 145.41 6.95606C146.766 6.89805 148.121 6.84004 149.483 6.78204C149.911 6.76464 150.34 6.75304 150.769 6.74143C151.892 6.71243 153.01 6.68343 154.134 6.64862C155.849 6.60222 157.557 6.55582 159.272 6.50941C160.57 6.47461 161.873 6.4456 163.17 6.4224C164.248 6.405 165.331 6.3934 166.408 6.3818C167.857 6.3644 169.305 6.34699 170.753 6.33539C172.78 6.31799 174.808 6.30059 176.835 6.30059C179.025 6.30059 181.214 6.31799 183.404 6.34119C185.298 6.3586 187.186 6.3934 189.081 6.4282C190.424 6.45141 191.768 6.48621 193.112 6.51521C194.219 6.54421 195.325 6.56742 196.437 6.60222C198.221 6.66023 200.011 6.71823 201.795 6.78204C203.301 6.83424 204.807 6.89805 206.308 6.96186C207.605 7.01406 208.903 7.07207 210.2 7.14167C211.764 7.22288 213.322 7.32149 214.886 7.4027C216.08 7.46651 217.273 7.51291 218.466 7.58832C220.187 7.69273 221.913 7.82034 223.633 7.93636C225 8.02916 226.373 8.11037 227.74 8.20898C229.124 8.30759 230.503 8.4236 231.888 8.53382C233.428 8.66143 234.975 8.78324 236.516 8.91665C238.028 9.05007 239.539 9.20088 241.051 9.3459C243.253 9.55472 245.459 9.75774 247.655 9.98396C250.209 10.2508 252.758 10.535 255.307 10.825C257.977 11.1267 260.642 11.4341 263.306 11.7531C264.1 11.846 264.888 11.9678 265.67 12.107C266.562 12.2694 266.579 12.4434 266.272 13.2439C266.4 13.2729 266.521 13.3077 266.643 13.3251C270.124 13.882 273.617 14.3982 277.093 15.0015C280.643 15.6163 284.177 16.3124 287.716 16.9737C287.815 16.9911 287.907 17.0317 288 17.0607C288 17.0897 288 17.1187 288 17.1477C287.345 17.0491 286.685 16.9621 286.031 16.8577C281.541 16.121 277.064 15.3495 272.569 14.6592C269.261 14.1546 265.93 13.7485 262.611 13.3251C260.358 13.0409 258.099 12.7914 255.84 12.5536C254.108 12.368 252.376 12.223 250.644 12.0606C248.825 11.8924 247 11.7241 245.181 11.5733C243.832 11.4573 242.476 11.3645 241.121 11.2601C239.343 11.1267 237.564 10.9875 235.78 10.8599C234.546 10.7728 233.307 10.709 232.067 10.6394C231.644 10.6162 231.216 10.5814 230.781 10.6336C231.024 10.6626 231.262 10.6974 231.505 10.7264C234.071 11.0339 236.637 11.3181 239.192 11.6603C241.08 11.9098 242.957 12.2404 244.834 12.5362C244.88 12.542 244.921 12.5478 244.967 12.5594C245.506 12.6928 245.622 13.0525 245.268 13.4933C245.152 13.6383 245.008 13.6035 244.863 13.5861C244.133 13.4991 243.397 13.4121 242.667 13.3251C240.634 13.0815 238.595 12.8263 236.556 12.6058C234.123 12.3448 231.685 12.1186 229.246 11.8866C227.41 11.7125 225.574 11.5501 223.737 11.3993C222.341 11.2833 220.94 11.1905 219.544 11.0861C218.188 10.9875 216.838 10.8715 215.483 10.7786C214.278 10.6974 213.068 10.6336 211.863 10.5582C210.745 10.4886 209.627 10.4074 208.509 10.3378C207.623 10.2856 206.742 10.2508 205.856 10.2044C204.854 10.1522 203.852 10.0942 202.849 10.042C202.114 10.0014 201.372 9.97236 200.637 9.93756C199.472 9.87955 198.308 9.82155 197.144 9.76934C196.304 9.73454 195.464 9.72874 194.63 9.69973C193.998 9.68233 193.367 9.64753 192.73 9.62433C192.568 9.61852 192.405 9.62433 192.243 9.65333C193.234 9.69973 194.23 9.74614 195.221 9.79834C196.252 9.85055 197.283 9.90275 198.314 9.95496C198.992 9.98976 199.669 10.0246 200.347 10.0652C201.17 10.1116 201.998 10.158 202.82 10.2102C203.898 10.2798 204.97 10.3436 206.041 10.419C207.113 10.4944 208.19 10.5756 209.262 10.6568C210.542 10.7554 211.822 10.8483 213.096 10.9527C214.319 11.0513 215.535 11.1615 216.752 11.2775C218.999 11.4921 221.247 11.6951 223.488 11.933C225.672 12.165 227.856 12.4202 230.04 12.687C232.971 13.0467 235.896 13.4005 238.821 13.7949C242.349 14.2648 245.877 14.7288 249.369 15.3901C249.833 15.4771 250.29 15.5989 250.742 15.7381C251.264 15.9006 251.339 16.005 251.304 16.3356C251.246 16.8693 251.015 17.1593 250.54 17.1883C250.111 17.2173 249.682 17.2115 249.254 17.1941C248.089 17.1477 246.925 17.0897 245.761 17.0259C244.481 16.9563 243.195 16.8751 241.914 16.8055C240.97 16.7532 240.026 16.7184 239.082 16.672C238.051 16.6198 237.02 16.5618 235.989 16.5096C235.265 16.4748 234.541 16.44 233.822 16.4052C232.629 16.3472 231.436 16.2892 230.237 16.237C229.408 16.2022 228.586 16.1732 227.757 16.1384C226.373 16.0804 224.983 16.0224 223.598 15.9702C222.637 15.9354 221.681 15.9006 220.719 15.8716C218.814 15.8136 216.908 15.7555 215.002 15.6975C214.278 15.6743 213.554 15.6569 212.83 15.6453C211.295 15.6163 209.754 15.5873 208.219 15.5583C208.074 15.5583 207.924 15.5583 207.773 15.6163C208.717 15.7439 209.661 15.8716 210.606 15.9992C212.419 16.2428 214.232 16.4806 216.045 16.7416C218.414 17.0781 220.777 17.4203 223.141 17.7742C225.724 18.1628 228.308 18.5514 230.885 18.9749C233.944 19.4737 237.002 19.9842 240.055 20.5236C243.003 21.0457 245.952 21.5967 248.894 22.1536C252.579 22.8439 256.263 23.5689 259.947 24.2418C263.637 24.9147 267.332 25.5411 271.022 26.2024C271.538 26.2952 272.042 26.475 272.551 26.6142C272.754 26.6664 272.823 26.8173 272.771 26.9855C272.656 27.3625 272.522 27.7338 272.366 28.0934C272.291 28.2674 272.099 28.2616 271.937 28.2384C271.514 28.1746 271.086 28.1224 270.669 28.0238C266.973 27.1421 263.219 26.5678 259.495 25.837C255.915 25.1351 252.335 24.4332 248.75 23.7488C245.355 23.0991 241.961 22.461 238.555 21.8462C235.519 21.3009 232.478 20.7673 229.431 20.2742C225.73 19.6767 222.017 19.1199 218.31 18.563C215.697 18.1686 213.079 17.7974 210.461 17.4377C208.109 17.1129 205.746 16.8171 203.388 16.5212C201.262 16.2544 199.136 15.9992 197.011 15.7439C195.777 15.5989 194.549 15.4713 193.315 15.3379C193.17 15.3205 193.019 15.3321 192.869 15.3321C189.538 15.3321 186.213 15.3263 182.883 15.3321C180.988 15.3379 179.094 15.3495 177.2 15.3727C175.161 15.3959 173.116 15.4249 171.077 15.4597C169.571 15.4829 168.059 15.5177 166.553 15.5467C165.325 15.5757 164.097 15.5989 162.875 15.6337C160.807 15.6917 158.739 15.7497 156.671 15.8136C154.957 15.8658 153.248 15.9296 151.533 15.9876C150.01 16.0456 148.492 16.1036 146.974 16.1674C145.631 16.2254 144.287 16.2776 142.949 16.3472C141.309 16.4284 139.676 16.5212 138.037 16.6082C136.768 16.672 135.499 16.7242 134.231 16.7939C132.858 16.8693 131.491 16.9621 130.118 17.0491C129.012 17.1129 127.905 17.1709 126.799 17.2405C125.623 17.3159 124.441 17.4029 123.266 17.4841C121.835 17.5827 120.41 17.6697 118.979 17.7742C117.566 17.8786 116.152 17.9888 114.739 18.099C113.105 18.2266 111.472 18.3484 109.838 18.4876C108.263 18.621 106.693 18.7661 105.117 18.9111C102.824 19.1199 100.53 19.3229 98.2417 19.5549C95.9073 19.787 93.5729 20.048 91.2385 20.309C89.0373 20.5526 86.8362 20.8021 84.6408 21.0631C82.6482 21.3009 80.6555 21.5619 78.6629 21.8288C76.3806 22.1304 74.0984 22.432 71.8161 22.7511C69.4759 23.0817 67.1415 23.4239 64.8013 23.7778C62.2294 24.1664 59.6633 24.555 57.0972 24.9611C54.6296 25.3497 52.1677 25.75 49.7059 26.1618C46.659 26.6723 43.6179 27.1827 40.5768 27.7164C37.5358 28.25 34.5005 28.8011 31.4652 29.3521C28.9222 29.8104 26.3793 30.2744 23.8364 30.7443C23.6394 30.7791 23.4425 30.8487 23.2455 30.9009C23.1297 30.9009 23.008 30.9009 22.8922 30.9009C22.7358 30.7095 22.5504 30.5354 22.423 30.3266C22.0754 29.7756 22.0754 29.4739 22.8227 29.2941C25.0586 28.7489 27.2829 28.1456 29.5304 27.6351C33.4868 26.7361 37.4547 25.8486 41.4283 25.0307C45.3499 24.2244 49.2831 23.4819 53.2162 22.7569C56.9756 22.0608 60.7465 21.4053 64.5175 20.7731C67.7787 20.222 71.0457 19.7057 74.3127 19.2185C77.348 18.7603 80.3891 18.3484 83.4302 17.9366C86.0774 17.5769 88.7245 17.2347 91.3775 16.9157C94.8183 16.5038 98.2649 16.1152 101.711 15.7265C103.351 15.5409 104.996 15.3843 106.641 15.2045C107.064 15.1581 107.481 15.0769 107.898 15.0131C108.141 15.0131 108.384 15.0131 108.628 15.0131C108.628 14.9957 108.628 14.9725 108.622 14.9551C108.384 14.9783 108.141 14.9957 107.904 15.0189C107.521 15.0479 107.139 15.0827 106.757 15.1175C105.199 15.2567 103.64 15.3901 102.088 15.5467C100.194 15.7323 98.2996 15.9238 96.4113 16.1268C94.4013 16.3472 92.397 16.5792 90.387 16.8171C87.8788 17.1129 85.3765 17.4087 82.8741 17.7277C80.2964 18.0584 77.7245 18.4122 75.1526 18.7661C72.5923 19.1199 70.0378 19.4795 67.4833 19.8682C64.7376 20.28 61.9977 20.7092 59.2578 21.1617C55.8924 21.7185 52.5327 22.287 49.173 22.8903C45.7728 23.4993 42.3783 24.1548 38.9839 24.7929C34.5294 25.6281 30.0749 26.4808 25.6205 27.3103C23.9059 27.6293 22.1797 27.873 20.4709 28.192C19.6541 28.3428 19.3008 27.7744 19.0865 27.1943C19.0054 26.9681 19.0865 26.7477 19.3008 26.6142C19.602 26.4286 19.8974 26.2314 20.2218 26.0922C20.9806 25.7674 21.751 25.4599 22.5215 25.1641C23.1413 24.9263 23.7726 24.7291 24.3982 24.5086C24.2824 24.0272 24.3171 23.9344 24.7516 23.7372C25.1165 23.5689 25.4814 23.4181 25.858 23.2789C28.8469 22.171 31.888 21.2139 34.9407 20.28C35.0623 20.2452 35.1782 20.2046 35.2998 20.1698C34.5062 20.2278 33.7358 20.3554 32.9654 20.4946C29.7506 21.0689 26.5415 21.6373 23.3324 22.2348C20.4419 22.7685 17.5572 23.3311 14.6725 23.888C13.572 24.1026 12.4714 24.3288 11.3766 24.5666C11.0927 24.6304 10.861 24.555 10.7104 24.3462C10.554 24.1374 10.444 23.888 10.3513 23.6385C10.276 23.4471 10.3629 23.2905 10.554 23.2093C10.6641 23.1629 10.7799 23.1339 10.89 23.1049C12.3729 22.7046 13.8558 22.2986 15.3387 21.91C19.3008 20.8833 23.2745 19.9262 27.2829 19.1025C30.7816 18.3832 34.2861 17.6813 37.8022 17.0259C40.5884 16.5038 43.3862 16.034 46.184 15.5699C48.9239 15.1175 51.6638 14.6882 54.4095 14.2764C56.5817 13.9516 58.7655 13.6615 60.9435 13.3599C61.8761 13.2323 62.826 13.1511 63.7471 12.9655C67.0199 12.3042 70.2753 11.5849 73.5481 10.9295C76.705 10.2972 79.8677 9.69973 83.0305 9.11967C85.7298 8.62663 88.4407 8.16838 91.1458 7.72173C93.4744 7.33889 95.8088 6.97926 98.1432 6.62542C100.507 6.26579 102.876 5.92355 105.239 5.59292C107.33 5.30289 109.421 5.03606 111.512 4.76343C112.3 4.65902 113.088 4.56041 113.87 4.456C113.719 4.4154 113.575 4.398 113.43 4.4154C112.567 4.50241 111.698 4.58942 110.835 4.68803C108.02 5.00706 105.204 5.32029 102.389 5.65092C99.4176 5.99896 96.4402 6.3528 93.4687 6.73563C89.8541 7.20548 86.2453 7.69273 82.6366 8.20898C78.9815 8.73104 75.3322 9.27049 71.6887 9.83895C68.3637 10.361 65.0446 10.9121 61.7312 11.4979C57.2826 12.281 52.8339 13.0757 48.3968 13.9284C43.9018 14.7926 39.4125 15.6917 34.9407 16.6662C28.1924 18.1396 21.4556 19.6883 14.7189 21.2139C10.079 22.2638 5.445 23.3253 0.81675 24.3926C0.474989 24.4738 0.220117 24.4506 0 24.178C0.0405479 24.0794 0.0405479 24.0156 0.0405479 23.9576ZM62.8608 22.4958C63.0404 22.4668 63.2199 22.4436 63.3995 22.4146C64.0541 22.3102 64.7028 22.1942 65.3574 22.1014C67.9988 21.7302 70.646 21.3531 73.2932 20.9935C75.645 20.6744 78.0025 20.3554 80.3601 20.0654C83.0073 19.7405 85.6603 19.4389 88.3133 19.1315C90.3523 18.8995 92.3854 18.6732 94.4244 18.4644C96.6719 18.2382 98.9137 18.0294 101.161 17.8148C102.702 17.6697 104.243 17.5305 105.789 17.3971C107.359 17.2637 108.935 17.1419 110.51 17.0143C111.524 16.9331 112.538 16.8461 113.551 16.7706C114.936 16.6662 116.314 16.5734 117.699 16.4748C118.834 16.3936 119.964 16.3124 121.099 16.237C122.171 16.1674 123.248 16.1036 124.326 16.034C125.119 15.9818 125.913 15.9296 126.712 15.8832C127.888 15.8136 129.07 15.7439 130.246 15.6801C131.201 15.6279 132.163 15.5815 133.119 15.5293C133.779 15.4945 134.445 15.4539 135.106 15.4191C136.108 15.3669 137.11 15.3147 138.112 15.2683C138.894 15.2335 139.676 15.2045 140.458 15.1755C141.726 15.1175 142.995 15.0595 144.264 15.0073C144.692 14.9899 145.121 14.9841 145.55 14.9609C146.534 14.9203 147.525 14.8681 148.51 14.8275C149.5 14.7926 150.485 14.7694 151.475 14.7346C152.964 14.6824 154.453 14.6186 155.941 14.5606C156.903 14.5258 157.859 14.4968 158.82 14.4736C159.956 14.4446 161.097 14.4098 162.232 14.3866C163.472 14.3576 164.711 14.3228 165.951 14.2996C167.503 14.2648 169.056 14.2358 170.602 14.2126C171.535 14.1952 172.467 14.1836 173.394 14.172C175.375 14.1546 177.356 14.1372 179.337 14.1198C179.587 14.1198 179.841 14.1198 180.09 14.114C180.16 14.114 180.235 14.1024 180.305 14.0966C179.812 14.0096 179.314 13.9632 178.822 13.9226C177.148 13.7833 175.468 13.6325 173.794 13.5049C172.439 13.4005 171.083 13.3135 169.728 13.2265C168.019 13.1105 166.31 12.9597 164.601 12.8959C163.095 12.8379 161.583 12.8669 160.077 12.8901C158.334 12.9249 156.59 13.0003 154.847 13.0583C154.036 13.0873 153.225 13.1163 152.408 13.1511C150.931 13.2207 149.459 13.3019 147.982 13.3715C146.447 13.4469 144.912 13.5049 143.377 13.5919C141.726 13.6847 140.076 13.7949 138.425 13.9052C136.629 14.0212 134.827 14.1314 133.032 14.259C130.987 14.3982 128.936 14.549 126.892 14.7056C124.731 14.8739 122.565 15.0479 120.404 15.2335C118.064 15.4365 115.729 15.6395 113.395 15.86C110.719 16.1152 108.049 16.382 105.378 16.6546C103.559 16.8403 101.74 17.0317 99.9216 17.2347C97.9579 17.4551 95.9942 17.6929 94.0305 17.925C91.98 18.1686 89.9294 18.418 87.8788 18.679C85.9731 18.9227 84.0731 19.1721 82.1732 19.4331C79.7751 19.7638 77.3769 20.1002 74.9846 20.454C72.795 20.7789 70.6054 21.1269 68.4216 21.4691C66.8055 21.7243 65.1894 21.997 63.5733 22.2696C63.5096 22.2812 63.4516 22.3624 63.3879 22.403C63.2141 22.3972 63.0114 22.258 62.8608 22.4958C62.7102 22.4842 62.5538 22.4784 62.4032 22.4668C62.4032 22.4842 62.4032 22.4958 62.4032 22.5132C62.5596 22.5074 62.7102 22.5016 62.8608 22.4958ZM56.7381 19.5665C56.9176 19.5433 57.0972 19.5143 57.2826 19.4911C57.3347 19.4737 57.3868 19.4447 57.4448 19.4389C60.1441 19.0271 62.8434 18.5978 65.5427 18.2092C69.5164 17.6465 73.4959 17.0955 77.4754 16.5792C81.032 16.1152 84.5887 15.6917 88.1511 15.2857C91.0821 14.9551 94.0189 14.6766 96.9558 14.3808C98.4502 14.23 99.9505 14.085 101.451 13.9516C103.009 13.8124 104.567 13.6905 106.125 13.5687C107.214 13.4817 108.303 13.4063 109.392 13.3251C110.481 13.2497 111.57 13.1743 112.659 13.0989C113.731 13.0235 114.808 12.9539 115.88 12.8843C116.691 12.8321 117.502 12.7972 118.313 12.7508C119.535 12.6812 120.757 12.6 121.98 12.5362C123.011 12.484 124.042 12.4492 125.079 12.4028C125.467 12.3854 125.855 12.3506 126.237 12.3274C126.104 12.2694 125.976 12.2636 125.843 12.2694C125.148 12.2868 124.459 12.3042 123.764 12.3216C122.669 12.3506 121.58 12.3796 120.485 12.4086C119.981 12.4202 119.483 12.4318 118.979 12.4492C117.398 12.5072 115.822 12.5652 114.241 12.6232C113.43 12.6522 112.619 12.6812 111.808 12.716C110.673 12.7682 109.537 12.8321 108.402 12.8901C107.342 12.9423 106.276 12.9597 105.216 13.0409C103.582 13.1627 101.949 13.3193 100.321 13.4817C97.6914 13.7369 95.0616 14.0038 92.4376 14.2822C90.219 14.52 88.0063 14.7636 85.7935 15.0363C83.3027 15.3379 80.8119 15.6395 78.3269 15.9934C75.1005 16.4516 71.874 16.9447 68.6534 17.4493C66.0757 17.8554 63.498 18.3078 60.9261 18.7428C59.7792 18.9401 58.6322 19.1489 57.4795 19.3519C57.3984 19.3693 57.242 19.3171 57.2884 19.5027C57.0914 19.4679 56.8887 19.3229 56.7381 19.5665C56.5875 19.5549 56.4369 19.5491 56.2862 19.5433C56.2862 19.5607 56.2862 19.5781 56.2862 19.6013C56.4369 19.5897 56.5875 19.5781 56.7381 19.5665ZM221.119 13.1047C194.885 10.5234 168.586 10.1058 142.254 10.8773C142.375 10.9063 142.503 10.9237 142.63 10.9237C144.345 10.9411 146.059 10.9585 147.774 10.9759C148.336 10.9817 148.898 10.9991 149.459 11.0107C151.244 11.0571 153.033 11.1035 154.818 11.1499C155.866 11.1789 156.915 11.2079 157.963 11.2427C158.363 11.2543 158.762 11.2659 159.156 11.2833C160.321 11.3413 161.485 11.4283 162.649 11.4457C163.68 11.4631 164.717 11.3877 165.748 11.3703C166.826 11.3471 167.909 11.3297 168.986 11.3297C174.252 11.3529 179.517 11.2601 184.782 11.4167C186.144 11.4573 187.499 11.4747 188.86 11.5095C190.616 11.5501 192.377 11.5907 194.132 11.6371C194.607 11.6487 195.076 11.6719 195.545 11.6893C196.872 11.7473 198.198 11.8053 199.525 11.8634C200.307 11.8982 201.089 11.9214 201.871 11.962C202.919 12.0142 203.962 12.078 205.01 12.1302C205.908 12.1766 206.812 12.2114 207.709 12.2636C208.781 12.3274 209.858 12.4144 210.93 12.484C212.094 12.5594 213.259 12.629 214.417 12.7044C216.375 12.8379 218.333 12.9713 220.285 13.0989C220.563 13.1221 220.841 13.1047 221.119 13.1047ZM184.389 13.0235C184.383 13.0293 184.383 13.0293 184.377 13.0351C185.854 13.1801 187.337 13.3193 188.814 13.4643C190.28 13.6093 191.751 13.7601 193.216 13.9052C193.964 13.9806 194.711 14.085 195.464 14.114C196.657 14.1604 197.856 14.1546 199.055 14.172C201.199 14.201 203.342 14.23 205.485 14.2648C206.887 14.288 208.289 14.3228 209.696 14.3518C211.011 14.3808 212.326 14.4156 213.641 14.4388C214.51 14.4562 215.385 14.462 216.253 14.4794C216.798 14.491 217.342 14.5142 217.893 14.5316C219.045 14.5722 220.192 14.6128 221.345 14.6476C221.449 14.6534 221.548 14.636 221.652 14.6244C221.223 14.549 220.801 14.5026 220.378 14.4736C219.086 14.375 217.788 14.2764 216.491 14.1894C215.298 14.1024 214.104 14.0154 212.917 13.9458C212.031 13.8936 211.15 13.853 210.264 13.8124C209.024 13.7543 207.785 13.6963 206.545 13.6383C205.676 13.6035 204.802 13.5745 203.933 13.5455C202.797 13.5049 201.662 13.4527 200.527 13.4121C199.478 13.3773 198.43 13.3541 197.381 13.3193C195.667 13.2613 193.958 13.1975 192.243 13.1511C191.34 13.1221 190.442 13.1279 189.538 13.1105C188.681 13.0931 187.824 13.0467 186.966 13.0293C186.097 13.0119 185.24 13.0235 184.389 13.0235ZM31.2277 22.3682C31.2335 22.3972 31.2392 22.432 31.245 22.461C37.1476 20.8427 43.0908 19.4215 49.0803 18.1512C49.0166 18.1222 48.9587 18.1106 48.9065 18.1164C47.5627 18.2904 46.213 18.4586 44.8691 18.65C44.0234 18.7719 43.1603 18.8473 42.3436 19.0677C39.708 19.787 37.0897 20.5584 34.4715 21.3299C33.3825 21.6489 32.3109 22.0202 31.2277 22.3682ZM32.2066 23.9634C29.5304 24.6188 26.8079 24.9901 24.2534 26.0226C24.2592 26.0516 24.265 26.0806 24.2708 26.1154C27.0454 25.6165 29.8259 25.1235 32.6295 24.6188C32.4731 24.3752 32.3572 24.1954 32.2066 23.9634ZM162.377 9.07327C166.449 9.07327 170.527 9.07327 173.985 9.07327C170.533 8.95146 166.455 8.89925 162.377 9.07327ZM176.812 9.13128C176.812 9.11967 176.812 9.10807 176.812 9.09647C176.296 9.09647 175.775 9.09647 175.26 9.09647C175.26 9.10807 175.26 9.11967 175.26 9.13128C175.775 9.13128 176.296 9.13128 176.812 9.13128ZM178.063 9.17188C178.057 9.17768 178.052 9.18928 178.046 9.19508C178.26 9.19508 178.474 9.19508 178.689 9.19508C178.689 9.18928 178.689 9.17768 178.689 9.17188C178.48 9.17188 178.272 9.17188 178.063 9.17188ZM179.928 9.17768C179.928 9.18928 179.928 9.20088 179.928 9.21248C180.119 9.21248 180.316 9.21248 180.508 9.21248C180.508 9.20088 180.508 9.18928 180.508 9.17768C180.316 9.17768 180.119 9.17768 179.928 9.17768ZM191.664 9.57212C191.664 9.56052 191.664 9.54312 191.664 9.53152C191.444 9.53152 191.224 9.53152 191.009 9.53152C191.009 9.54312 191.009 9.56052 191.009 9.57212C191.23 9.57212 191.45 9.57212 191.664 9.57212ZM109.607 14.8739C109.387 14.8623 109.236 14.8507 109.08 14.8391C109.08 14.8623 109.08 14.8855 109.08 14.9087C109.23 14.8971 109.381 14.8855 109.607 14.8739ZM188.814 9.43871C188.803 9.45031 188.791 9.46771 188.779 9.47931C188.936 9.47931 189.092 9.47931 189.243 9.47931C189.243 9.46771 189.243 9.45031 189.243 9.43871C189.098 9.43871 188.959 9.43871 188.814 9.43871ZM190.413 9.55472C190.407 9.53732 190.407 9.52572 190.401 9.50831C190.303 9.51412 190.21 9.51992 190.112 9.52572C190.112 9.53732 190.112 9.54312 190.112 9.55472C190.216 9.55472 190.314 9.55472 190.413 9.55472ZM182.129 9.28789C182.124 9.28209 182.124 9.27049 182.118 9.26469C182.048 9.26469 181.985 9.26469 181.915 9.26469C181.915 9.27049 181.915 9.28209 181.915 9.28789C181.99 9.28789 182.06 9.28789 182.129 9.28789ZM186.242 9.3517C186.242 9.3633 186.242 9.3807 186.242 9.3923C186.364 9.3923 186.485 9.3923 186.607 9.3923C186.607 9.3807 186.607 9.3633 186.607 9.3517C186.485 9.3517 186.364 9.3517 186.242 9.3517ZM183.693 9.30529C183.693 9.29369 183.693 9.28209 183.693 9.27049C183.589 9.27049 183.485 9.27049 183.381 9.27049C183.381 9.28209 183.381 9.29369 183.381 9.30529C183.485 9.30529 183.589 9.30529 183.693 9.30529Z" fill="white"/>
</svg>
