<!-- Generated by IcoMoon.io -->
<svg version="1.1" xmlns="http://www.w3.org/2000/svg" width="32" height="32" viewBox="0 0 32 32">
<title>raster</title>
<path d="M7.2 9.6c-1.325 0-2.4-1.075-2.4-2.4s1.075-2.4 2.4-2.4v0c1.325 0 2.4 1.075 2.4 2.4s-1.075 2.4-2.4 2.4v0zM16 9.6c-1.325 0-2.4-1.075-2.4-2.4s1.075-2.4 2.4-2.4v0c1.325 0 2.4 1.075 2.4 2.4s-1.075 2.4-2.4 2.4v0zM24.8 9.6c-1.325 0-2.4-1.075-2.4-2.4s1.075-2.4 2.4-2.4v0c1.325 0 2.4 1.075 2.4 2.4s-1.075 2.4-2.4 2.4v0zM7.2 18.4c-1.325 0-2.4-1.075-2.4-2.4s1.075-2.4 2.4-2.4v0c1.325 0 2.4 1.075 2.4 2.4s-1.075 2.4-2.4 2.4v0zM7.2 27.2c-1.325 0-2.4-1.075-2.4-2.4s1.075-2.4 2.4-2.4v0c1.325 0 2.4 1.075 2.4 2.4s-1.075 2.4-2.4 2.4v0zM16 18.4c-1.325 0-2.4-1.075-2.4-2.4s1.075-2.4 2.4-2.4v0c1.325 0 2.4 1.075 2.4 2.4s-1.075 2.4-2.4 2.4v0zM16 27.2c-1.325 0-2.4-1.075-2.4-2.4s1.075-2.4 2.4-2.4v0c1.325 0 2.4 1.075 2.4 2.4s-1.075 2.4-2.4 2.4v0zM24.8 18.4c-1.325 0-2.4-1.075-2.4-2.4s1.075-2.4 2.4-2.4v0c1.325 0 2.4 1.075 2.4 2.4s-1.075 2.4-2.4 2.4v0zM24.8 27.2c-1.325 0-2.4-1.075-2.4-2.4s1.075-2.4 2.4-2.4v0c1.325 0 2.4 1.075 2.4 2.4s-1.075 2.4-2.4 2.4v0z"></path>
</svg>
