<svg height="512" viewBox="0 0 64 64" width="512" xmlns="http://www.w3.org/2000/svg" xmlns:xlink="http://www.w3.org/1999/xlink"><linearGradient id="New_Gradient_Swatch_1" gradientUnits="userSpaceOnUse" x1="32" x2="32" y1="-.474" y2="64.747"><stop offset="0" stop-color="#fff33b"/><stop offset=".014" stop-color="#fee72e"/><stop offset=".042" stop-color="#fed51b"/><stop offset=".07" stop-color="#fdca10"/><stop offset=".1" stop-color="#fdc70c"/><stop offset=".4" stop-color="#f3903f"/><stop offset=".8" stop-color="#ed683c"/><stop offset="1" stop-color="#e93e3a"/></linearGradient><linearGradient id="New_Gradient_Swatch_1-2" x1="18.5" x2="18.5" xlink:href="#New_Gradient_Swatch_1" y1="-.474" y2="64.747"/><linearGradient id="New_Gradient_Swatch_1-5" x1="47.5" x2="47.5" xlink:href="#New_Gradient_Swatch_1" y1="-.474" y2="64.747"/><linearGradient id="New_Gradient_Swatch_1-9" x1="38" x2="38" xlink:href="#New_Gradient_Swatch_1" y1="-.474" y2="64.747"/><g id="organize-notebook-calendar-date-schedule"><path d="m61 17h-3v-2a1 1 0 0 0 -1-1h-6v-7a3 3 0 0 0 -3-3h-5v-2h-2v2h-8v-2h-2v2h-8v-2h-2v2h-5a3 3 0 0 0 -3 3v7h-6a1 1 0 0 0 -1 1v2h-3a1 1 0 0 0 -1 1v43a1 1 0 0 0 1 1h58a1 1 0 0 0 1-1v-43a1 1 0 0 0 -1-1zm-5-1v40h-21v-20h13a3 3 0 0 0 3-3v-17zm-41-4h34v21a1 1 0 0 1 -1 1h-32a1 1 0 0 1 -1-1zm16 47v-23h2v23a1 1 0 0 1 -2 0zm-15-53h5v2h2v-2h8v2h2v-2h8v2h2v-2h5a1 1 0 0 1 1 1v3h-34v-3a1 1 0 0 1 1-1zm-8 10h5v17a3 3 0 0 0 3 3h13v20h-21zm-4 3h2v38a1 1 0 0 0 1 1h22v1a2.966 2.966 0 0 0 .184 1h-25.184zm56 41h-25.184a2.966 2.966 0 0 0 .184-1v-1h22a1 1 0 0 0 1-1v-38h2z" fill="url(#New_Gradient_Swatch_1)"/><g fill="url(#New_Gradient_Swatch_1-2)"><path d="m10 52h17v2h-17z"/><path d="m10 40h17v2h-17z"/><path d="m10 46h17v2h-17z"/></g><path d="m41 52h13v2h-13z" fill="url(#New_Gradient_Swatch_1-5)"/><path d="m41 40h13v2h-13z" fill="url(#New_Gradient_Swatch_1-5)"/><path d="m41 46h13v2h-13z" fill="url(#New_Gradient_Swatch_1-5)"/><path d="m18 32h28a1 1 0 0 0 1-1v-16a1 1 0 0 0 -1-1h-28a1 1 0 0 0 -1 1v16a1 1 0 0 0 1 1zm1-4h2v2h-2zm16-4h2v2h-2zm-2 2h-2v-2h2zm2-4v-2h2v2zm-2 0h-2v-2h2zm-4 0h-2v-2h2zm0 2v2h-2v-2zm-4 2h-2v-2h2zm0 2v2h-2v-2zm2 0h2v2h-2zm4 0h2v2h-2zm4 0h2v2h-2zm4 0h2v2h-2zm0-2v-2h2v2zm4-2h2v2h-2zm0-2v-2h2v2zm-2 0h-2v-2h2zm-2-4v-2h2v2zm-2 0h-2v-2h2zm-4 0h-2v-2h2zm-4 0h-2v-2h2zm-4 0h-2v-2h2zm0 2v2h-2v-2zm-4 2h-2v-2h2zm0 2v2h-2v-2zm22 6v-2h2v2zm2-12h-2v-2h2zm-24-2v2h-2v-2z" fill="url(#New_Gradient_Swatch_1)"/><path d="m37 40h2v2h-2z" fill="url(#New_Gradient_Swatch_1-9)"/><path d="m37 46h2v2h-2z" fill="url(#New_Gradient_Swatch_1-9)"/><path d="m37 52h2v2h-2z" fill="url(#New_Gradient_Swatch_1-9)"/></g></svg>