<?xml version="1.0" standalone="no"?>
<!DOCTYPE svg PUBLIC "-//W3C//DTD SVG 20010904//EN"
 "http://www.w3.org/TR/2001/REC-SVG-20010904/DTD/svg10.dtd">
<svg version="1.0" xmlns="http://www.w3.org/2000/svg"
 width="100.000000pt" height="100.000000pt" viewBox="0 0 100.000000 100.000000"
 preserveAspectRatio="xMidYMid meet">
<metadata>
Created by potrace 1.14, written by Peter Selinger 2001-2017
</metadata>
<g transform="translate(0.000000,100.000000) scale(0.100000,-0.100000)"
fill="#000000" stroke="none">
<path d="M97 902 c-15 -17 -17 -59 -17 -404 0 -360 1 -386 18 -401 17 -15 59
-17 404 -17 360 0 386 1 401 18 15 17 17 59 17 404 0 360 -1 386 -18 401 -17
15 -59 17 -404 17 -360 0 -386 -1 -401 -18z m781 -399 l-3 -378 -377 -3 -378
-2 0 380 0 380 380 0 380 0 -2 -377z"/>
<path d="M460 402 c0 -142 -5 -162 -42 -162 -10 0 -26 8 -37 19 -18 18 -19 18
-49 -1 -30 -19 -31 -21 -16 -43 47 -71 174 -71 208 0 12 25 16 67 16 179 l0
146 -40 0 -40 0 0 -138z"/>
<path d="M655 526 c-27 -12 -46 -37 -58 -76 -6 -20 19 -80 41 -97 9 -7 38 -23
64 -34 50 -22 68 -50 48 -74 -19 -23 -61 -18 -90 10 l-25 24 -29 -23 -29 -23
32 -31 c76 -72 210 -46 227 45 11 59 -15 98 -91 135 -66 33 -79 46 -69 73 8
20 61 19 72 -1 8 -15 11 -15 36 1 35 23 33 41 -6 65 -38 23 -80 25 -123 6z"/>
</g>
</svg>
